<svg width="66" height="344" viewBox="0 0 66 344" fill="none" xmlns="http://www.w3.org/2000/svg">
<path d="M64.5 1.5H66V0H64.5V1.5ZM64.5 332V333.5H66V332H64.5ZM0.43934 330.939C-0.146447 331.525 -0.146447 332.475 0.43934 333.061L9.98528 342.607C10.5711 343.192 11.5208 343.192 12.1066 342.607C12.6924 342.021 12.6924 341.071 12.1066 340.485L3.62132 332L12.1066 323.515C12.6924 322.929 12.6924 321.979 12.1066 321.393C11.5208 320.808 10.5711 320.808 9.98528 321.393L0.43934 330.939ZM1.5 3H64.5V0H1.5V3ZM63 1.5V332H66V1.5H63ZM64.5 330.5H1.5V333.5H64.5V330.5Z" fill="white"/>
</svg>
