<svg width="67" height="344" viewBox="0 0 67 344" fill="none" xmlns="http://www.w3.org/2000/svg">
<path d="M2 2H0.5V0.5H2V2ZM2 332.5V334H0.5V332.5H2ZM66.0607 331.439C66.6464 332.025 66.6464 332.975 66.0607 333.561L56.5147 343.107C55.9289 343.692 54.9792 343.692 54.3934 343.107C53.8076 342.521 53.8076 341.571 54.3934 340.985L62.8787 332.5L54.3934 324.015C53.8076 323.429 53.8076 322.479 54.3934 321.893C54.9792 321.308 55.9289 321.308 56.5147 321.893L66.0607 331.439ZM65 3.5H2V0.5H65V3.5ZM3.5 2V332.5H0.5V2H3.5ZM2 331H65V334H2V331Z" fill="white"/>
</svg>
