<svg width="71" height="24" viewBox="0 0 71 24" fill="none" xmlns="http://www.w3.org/2000/svg">
<path d="M52.01 8.19971L52.42 9.23969C54.49 8.42969 56.58 7.57972 58.63 6.70972L58.2 5.67969C56.14 6.54969 54.07 7.38971 52.01 8.19971Z" fill="white"/>
<path d="M13.5901 19.7798L13.8201 20.8698C16.0101 20.3998 18.2101 19.8897 20.3701 19.3597L20.1101 18.2798C17.9701 18.8098 15.7801 19.3098 13.5901 19.7798Z" fill="white"/>
<path d="M26.6001 16.6095L26.8901 17.6895C29.0301 17.1095 31.2101 16.4795 33.3501 15.8395L33.0301 14.7695C30.9001 15.4095 28.7301 16.0295 26.6001 16.6095Z" fill="white"/>
<path d="M39.4199 12.7496L39.7699 13.8096C41.8799 13.1096 44.0199 12.3696 46.1299 11.6096L45.7499 10.5596C43.6499 11.3196 41.5199 12.0496 39.4199 12.7496Z" fill="white"/>
<path d="M0.439941 22.2499L0.619934 23.3499C2.83993 22.9899 5.06993 22.5999 7.23993 22.1999L7.02994 21.1099C4.86994 21.5099 2.64994 21.8999 0.439941 22.2499Z" fill="white"/>
<path d="M64.3 3.0097L64.7601 4.01971C66.7801 3.09971 68.8201 2.13967 70.8301 1.15967L70.3401 0.159668C68.3401 1.12967 66.31 2.0897 64.3 3.0097Z" fill="white"/>
</svg>
