<svg width="79" height="41" viewBox="0 0 79 41" fill="none" xmlns="http://www.w3.org/2000/svg">
<path d="M23.08 16.5999C25 17.7299 26.97 18.8599 28.92 19.9499L29.46 18.9799C27.51 17.8999 25.55 16.7799 23.64 15.6499L23.08 16.5999Z" fill="white"/>
<path d="M72.08 38.8598C74.18 39.5598 76.35 40.2398 78.51 40.8898L78.83 39.8198C76.67 39.1698 74.52 38.4898 72.42 37.7998L72.08 38.8598Z" fill="white"/>
<path d="M59.39 34.2798C61.47 35.0898 63.59 35.8898 65.7 36.6498L66.08 35.5997C63.98 34.8397 61.86 34.0497 59.79 33.2397L59.39 34.2798Z" fill="white"/>
<path d="M34.86 23.1399C36.82 24.1599 38.85 25.1799 40.88 26.1699L41.37 25.1699C39.35 24.1899 37.34 23.1699 35.38 22.1499L34.86 23.1399Z" fill="white"/>
<path d="M46.97 29.0397C49 29.9597 51.07 30.8698 53.14 31.7498L53.57 30.7197C51.51 29.8497 49.44 28.9398 47.42 28.0298L46.97 29.0397Z" fill="white"/>
<path d="M0.660034 1.69958C2.43003 3.01959 4.27002 4.3496 6.11002 5.6496L6.75003 4.73956C4.92003 3.44956 3.09004 2.12957 1.32004 0.80957L0.660034 1.69958Z" fill="white"/>
<path d="M11.67 9.44977C13.51 10.6698 15.41 11.8997 17.32 13.0997L17.91 12.1498C16.01 10.9598 14.11 9.72977 12.28 8.50977L11.67 9.44977Z" fill="white"/>
</svg>
