<svg width="285" height="302" viewBox="0 0 285 302" fill="none" xmlns="http://www.w3.org/2000/svg">
<path d="M220.44 278.71C173.1 309.86 109.5 310 61.23 274.38C46.63 263.56 34.71 250.45 25.66 235.88L0.26001 245.67L22.35 179.54L83.08 213.65L64.88 220.67C70.52 228.37 77.48 235.39 85.56 241.38C118.4 265.65 161.37 266.38 194.36 246.64L220.44 278.71ZM188.52 44.5403L135.09 89.1803L134.99 64.0803C107.98 66.5603 82.15 80.1103 64.78 103.7C50.86 122.56 44.73 144.78 45.7 166.57L4.82999 169.01C3.26999 137.96 11.98 106.29 31.84 79.3303C57.19 44.9203 95.34 25.5703 134.8 22.9403L134.75 0.280273L188.52 44.5403ZM216.4 255.52L214.75 185.83L234.17 201.13C251.93 160.04 239.81 110.63 202.25 82.9003C199.67 81.0003 196.99 79.2403 194.27 77.5903L208.53 38.6003C214.76 41.8203 220.74 45.6203 226.58 49.9103C283.17 91.6803 298.55 167.56 267.11 227.16L284.43 240.86L216.4 255.52Z" fill="#D6BC78"/>
</svg>
