<svg width="89" height="107" viewBox="0 0 89 107" fill="none" xmlns="http://www.w3.org/2000/svg">
<path d="M11.11 61.1605H20.33C20.93 61.1605 21.42 60.6705 21.42 60.0705C21.42 59.4705 20.93 58.9805 20.33 58.9805H11.11C10.51 58.9805 10.02 59.4705 10.02 60.0705C10.02 60.6705 10.51 61.1605 11.11 61.1605Z" fill="white"/>
<path d="M1.39008 49.6503H10.61C11.21 49.6503 11.7001 49.1602 11.7001 48.5602C11.7001 47.9602 11.21 47.4702 10.61 47.4702H1.39008C0.790076 47.4702 0.300049 47.9602 0.300049 48.5602C0.300049 49.1602 0.790076 49.6503 1.39008 49.6503Z" fill="white"/>
<path d="M1.39008 72.6702H10.61C11.21 72.6702 11.7001 72.1803 11.7001 71.5803C11.7001 70.9803 11.21 70.4902 10.61 70.4902H1.39008C0.790076 70.4902 0.300049 70.9803 0.300049 71.5803C0.300049 72.1803 0.790076 72.6702 1.39008 72.6702Z" fill="white"/>
<path d="M43.2698 41.91L43.0798 41.4001L45.1598 40.37L45.4698 40.81L43.2698 41.91ZM45.9898 41.16C46.0398 41.14 46.0998 41.07 46.1298 41C46.1298 40.94 46.1198 40.8501 46.0798 40.7701L45.5898 40.04C45.4398 39.8 45.1498 39.72 44.8998 39.85L42.7998 40.8901C42.5698 41.0001 42.4298 41.29 42.5298 41.56L42.8198 42.4001C42.8298 42.4901 42.8998 42.5501 42.9698 42.5801C43.0498 42.6101 43.1098 42.6101 43.1598 42.5801L44.8998 48.05L45.4198 47.79L43.6998 42.35L45.4998 41.4601L48.8098 46.12L49.3298 45.86L45.9898 41.16Z" fill="white"/>
<path d="M45.68 47.4901C45.59 47.5601 45.53 47.6601 45.46 47.7501L46.06 47.4501C45.95 47.3501 45.78 47.3801 45.68 47.4901Z" fill="white"/>
<path d="M48.01 46.4005C48.01 46.4305 48.04 46.4404 48.05 46.4704L48.75 46.1204C48.61 46.1104 48.47 46.1004 48.32 46.1204C48.16 46.1304 48.04 46.2605 48.01 46.4005Z" fill="white"/>
<path d="M55.72 42.5804C55.72 42.6104 55.75 42.6304 55.76 42.6504L56.46 42.3104C56.32 42.3004 56.18 42.2904 56.03 42.3104C55.88 42.3104 55.75 42.4404 55.72 42.5804Z" fill="white"/>
<path d="M50.9801 38.0902L50.7901 37.5802L52.87 36.5502L53.18 36.9902L50.9801 38.0902ZM53.7001 37.3402C53.7501 37.3102 53.81 37.2502 53.84 37.1802C53.84 37.1202 53.8301 37.0302 53.7901 36.9502L53.3 36.2201C53.15 35.9801 52.86 35.9002 52.61 36.0302L50.5101 37.0702C50.2801 37.1802 50.14 37.4702 50.24 37.7402L50.53 38.5702C50.54 38.6602 50.61 38.7202 50.68 38.7502C50.76 38.7702 50.82 38.7702 50.87 38.7502L52.61 44.2201L53.13 43.9602L51.41 38.5202L53.21 37.6302L56.52 42.2902L57.0401 42.0302L53.7001 37.3402Z" fill="white"/>
<path d="M53.3899 43.6702C53.2999 43.7402 53.2399 43.8402 53.1699 43.9302L53.7699 43.6303C53.6699 43.5303 53.4899 43.5602 53.3899 43.6702Z" fill="white"/>
<path d="M61.23 39.7903C61.14 39.8603 61.08 39.9604 61.01 40.0504L61.61 39.7504C61.5 39.6504 61.33 39.6803 61.23 39.7903Z" fill="white"/>
<path d="M58.8099 34.2103L58.6199 33.7003L60.6899 32.6703L61.0099 33.1103L58.8099 34.2103ZM61.5299 33.4603C61.5799 33.4403 61.6399 33.3703 61.6699 33.3003C61.6699 33.2403 61.6599 33.1503 61.6199 33.0703L61.1299 32.3403C60.9799 32.1003 60.6899 32.0203 60.4399 32.1503L58.3399 33.1903C58.1099 33.3003 57.9699 33.5903 58.0699 33.8603L58.3598 34.6903C58.3698 34.7803 58.4399 34.8403 58.5099 34.8703C58.5899 34.9003 58.6499 34.9003 58.6999 34.8703L60.4399 40.3403L60.9599 40.0803L59.2399 34.6403L61.0399 33.7503L64.3499 38.4103L64.8699 38.1503L61.5299 33.4603Z" fill="white"/>
<path d="M63.5601 38.7003C63.5601 38.7303 63.5901 38.7403 63.6001 38.7703L64.3 38.4202C64.16 38.4102 64.0201 38.4002 63.8701 38.4202C63.7101 38.4302 63.5801 38.5603 63.5601 38.7003Z" fill="white"/>
<path d="M71.5498 34.7402C71.5498 34.7702 71.5798 34.7803 71.5898 34.8103L72.2898 34.4603C72.1498 34.4503 72.0098 34.4403 71.8598 34.4603C71.7098 34.4803 71.5798 34.6002 71.5498 34.7402Z" fill="white"/>
<path d="M69.23 35.8301C69.14 35.9001 69.08 36.0001 69.01 36.0901L69.61 35.7901C69.5 35.7001 69.33 35.7201 69.23 35.8301Z" fill="white"/>
<path d="M66.8099 30.2503L66.6199 29.7403L68.6999 28.7104L69.0099 29.1504L66.8099 30.2503ZM69.5299 29.5003C69.5799 29.4703 69.6399 29.4104 69.6699 29.3404C69.6699 29.2804 69.6599 29.1903 69.6199 29.1103L69.1299 28.3803C68.9799 28.1403 68.6899 28.0603 68.4399 28.1903L66.3399 29.2303C66.1099 29.3403 65.9699 29.6304 66.0699 29.9004L66.3598 30.7303C66.3698 30.8203 66.4399 30.8803 66.5099 30.9103C66.5899 30.9303 66.6499 30.9303 66.6999 30.9103L68.4399 36.3803L68.9599 36.1203L67.2399 30.6803L69.0399 29.7903L72.3499 34.4504L72.8699 34.1903L69.5299 29.5003Z" fill="white"/>
<path d="M43.58 48.6804L74.15 33.5404L82.01 49.4304L51.44 64.5704L43.58 48.6804ZM84.58 49.4404L75.7 31.5004C75.57 31.2304 75.33 31.0204 75.04 30.9204C74.75 30.8204 74.44 30.8404 74.17 30.9804L41.55 47.1304C40.98 47.4104 40.75 48.1004 41.03 48.6604L48.82 64.4005C50.53 64.6305 52.18 65.1704 53.7 66.0004L84.07 50.9604C84.63 50.6904 84.86 50.0004 84.58 49.4404Z" fill="white"/>
<path d="M38.05 82.6103C40.47 87.5003 46.42 89.5103 51.31 87.0903C56.2 84.6703 58.21 78.7203 55.79 73.8303C53.37 68.9403 47.42 66.9303 42.53 69.3503C37.64 71.7703 35.63 77.7203 38.05 82.6103ZM36.21 83.5203C33.29 77.6203 35.71 70.4303 41.62 67.5103C47.52 64.5903 54.71 67.0103 57.63 72.9203C60.55 78.8203 58.13 86.0103 52.22 88.9303C46.32 91.8503 39.14 89.4203 36.21 83.5203Z" fill="white"/>
<path d="M43.49 79.9203C44.43 81.8103 46.73 82.5903 48.62 81.6503C50.51 80.7103 51.2901 78.4103 50.3501 76.5203C49.4101 74.6303 47.1101 73.8502 45.2201 74.7902C43.3301 75.7202 42.55 78.0203 43.49 79.9203ZM41.65 80.8303C40.21 77.9303 41.4 74.3903 44.31 72.9603C47.21 71.5203 50.75 72.7203 52.18 75.6203C53.62 78.5203 52.42 82.0603 49.52 83.4903C46.62 84.9203 43.09 83.7303 41.65 80.8303Z" fill="white"/>
<path d="M82.73 54.6504C81.93 54.6504 81.12 54.8304 80.36 55.2104C80.29 55.2504 80.23 55.3004 80.16 55.3304L55.96 67.3104L57.03 68.4103C58.06 69.4603 58.91 70.6604 59.55 71.9604C60.06 72.9904 60.45 74.1303 60.7 75.3503L60.99 76.7704L85.23 64.7704L85.22 64.7504C87.79 63.4004 88.83 60.2504 87.53 57.6404C86.6 55.7404 84.7 54.6504 82.73 54.6504ZM82.73 56.8804C83.93 56.8804 85.01 57.5504 85.54 58.6204C86.3 60.1504 85.7 61.9704 84.19 62.7704L83.62 63.0804L62.54 73.5104C62.28 72.6204 61.95 71.7703 61.55 70.9703C61.02 69.9003 60.38 68.9003 59.63 67.9803L81.14 57.3304L81.18 57.3104L81.22 57.2903C81.29 57.2503 81.35 57.2103 81.42 57.1703C81.84 56.9803 82.28 56.8804 82.73 56.8804Z" fill="white"/>
<path d="M10.6399 0.230469C9.83989 0.230469 9.03986 0.410466 8.26986 0.790466C5.61986 2.10047 4.52987 5.32046 5.83987 7.97046C5.87987 8.04046 5.91986 8.09046 5.95986 8.16046L36.1899 69.2205L37.2899 68.1505C39.1799 66.3105 41.4999 65.0505 44.2299 64.4905L45.6499 64.2005L15.4099 3.11047L15.3899 3.12048C14.4499 1.29048 12.5799 0.230469 10.6399 0.230469ZM10.6399 2.46051C11.8099 2.46051 12.8799 3.11051 13.4199 4.15051L13.7299 4.74048L42.3999 62.6505C40.3599 63.2505 38.5099 64.2205 36.8599 65.5505L7.95986 7.17047L7.93988 7.13049L7.91989 7.09052C7.87989 7.02052 7.83986 6.9605 7.79986 6.8905C7.09986 5.3605 7.73988 3.54047 9.25988 2.79047C9.69988 2.57047 10.1599 2.46051 10.6399 2.46051Z" fill="white"/>
<path d="M57.29 55.2103C57.26 55.1603 57.17 55.0303 57.03 55.1003C56.95 55.1403 56.91 55.3303 56.9 55.3403C56.84 55.4603 56.78 55.5503 56.68 55.6403C56.61 55.7103 56.5 55.7803 56.38 55.8403C56.23 55.9203 56.06 55.9803 55.9 56.0303C55.4 56.2003 53.78 56.1503 53.72 56.1403C53.7 56.1303 53.6801 56.1103 53.6701 56.1103C53.6001 56.0403 53.2901 55.4203 52.8901 54.6203L52.76 54.3603L52.4801 53.7803H52.47L51.3901 51.6103C51.1001 51.0203 51.05 50.8403 51.03 50.7803C51.02 50.7603 51.02 50.7503 51.01 50.7303C50.97 50.6403 50.8201 50.6203 50.7301 50.6603C50.6801 50.6903 50.65 50.7403 50.61 50.8103C50.53 50.9503 50.4 51.1703 50.04 51.3503L49.88 51.4303C49.76 51.4903 49.6901 51.7603 49.7301 51.8503C49.7801 51.9503 49.89 51.9203 49.97 51.9003C50 51.8903 50.02 51.8803 50.05 51.8803C50.15 51.8603 50.25 51.8703 50.35 52.0803L51.4501 54.2903L51.69 54.7803L52.13 55.6803C52.67 56.8103 52.67 56.8603 52.57 56.9603C52.57 56.9603 52.39 57.1303 52.35 57.2703C52.32 57.3703 52.33 57.4503 52.36 57.5003C52.39 57.5703 52.44 57.6103 52.51 57.6203C52.58 57.6303 52.8 57.5303 52.84 57.5003C52.86 57.4903 53.02 57.4003 53.03 57.4003C53.45 57.2203 53.87 57.1803 54.4 57.1803C54.97 57.1703 55.56 57.1703 56.12 56.8903C56.22 56.8403 56.32 56.7803 56.41 56.7203C56.63 56.5703 56.85 56.3503 57 56.1203C57.02 56.1103 57.5 55.5203 57.29 55.2103Z" fill="white"/>
<path d="M56.12 54.1904C55.72 54.3904 55.06 54.0904 54.5 52.9704C54.14 52.2504 54.16 51.6804 54.55 51.4804C54.95 51.2804 55.61 51.5804 56.17 52.7004C56.53 53.4304 56.51 54.0004 56.12 54.1904ZM54.53 50.4604C53.59 50.9304 53.08 52.4404 53.83 53.9504C54.37 55.0304 55.39 55.5804 56.15 55.2004C57.09 54.7304 57.6 53.2204 56.85 51.7104C56.31 50.6304 55.29 50.0804 54.53 50.4604Z" fill="white"/>
<path d="M58.2199 48.6202C57.9599 48.7502 57.8799 49.1102 57.7899 49.4702C57.7799 49.5202 57.7699 49.5702 57.7499 49.6202C57.6899 49.4702 57.6599 49.3603 57.6499 49.2703C57.6399 49.2103 57.6299 49.1702 57.6099 49.1302C57.5799 49.0702 57.4199 49.0202 57.3399 49.0602C57.2999 49.0802 57.2799 49.1202 57.2499 49.1902C57.1799 49.3202 57.0699 49.5502 56.7999 49.6802C56.7699 49.7002 56.7299 49.7102 56.6899 49.7302C56.6399 49.7502 56.5799 49.7702 56.5199 49.8102C56.4499 49.8502 56.4399 49.9102 56.4299 49.9702C56.4299 49.9902 56.4299 50.0003 56.4199 50.0203C56.4199 50.0303 56.4099 50.0502 56.4099 50.0602C56.3999 50.1002 56.3799 50.1402 56.3999 50.1902C56.4299 50.2502 56.4999 50.3302 56.6499 50.2502C56.7599 50.2002 56.8799 50.1902 57.0299 50.4902L58.3099 53.0803C58.4699 53.4003 58.3799 53.5103 58.3099 53.5903C58.2799 53.6303 58.2499 53.6702 58.2399 53.7202C58.2399 53.7402 58.2399 53.7503 58.2299 53.7703C58.2199 53.8203 58.2199 53.8802 58.2499 53.9402C58.2899 54.0202 58.3499 54.0402 58.4199 54.0002C58.5499 53.9302 58.7099 53.8403 58.8499 53.7603C58.9599 53.6903 59.0699 53.6303 59.1499 53.5903C59.2599 53.5403 59.3999 53.4802 59.5399 53.4202C59.7099 53.3502 59.8899 53.2702 60.0499 53.1902C60.1199 53.1502 60.1699 52.9003 60.1399 52.8303C60.0699 52.6903 59.9399 52.7602 59.8499 52.8002C59.7699 52.8402 59.6899 52.8802 59.5999 52.8702C59.4399 52.8502 59.3499 52.7803 59.2399 52.5703L58.2999 50.6702C58.0399 50.1502 58.1199 49.7102 58.2999 49.6302C58.3699 49.5902 58.4399 49.6202 58.5299 49.6702C58.6099 49.7102 58.6799 49.7503 58.7599 49.7103C58.8599 49.6603 58.8599 49.5402 58.8799 49.3702C58.8799 49.3302 58.8899 49.2902 58.8899 49.2502C58.8999 49.1802 58.9099 49.1202 58.9099 49.0602C58.9299 48.9302 58.9399 48.8402 58.8899 48.7402C58.8199 48.5402 58.4899 48.4902 58.2199 48.6202Z" fill="white"/>
<path d="M60.9399 47.2704C60.6799 47.4004 60.5999 47.7604 60.5099 48.1204C60.4999 48.1704 60.4899 48.2204 60.4699 48.2604C60.4099 48.1104 60.3799 48.0004 60.3699 47.9104C60.3499 47.8504 60.3499 47.8104 60.3299 47.7704C60.2999 47.7104 60.1399 47.6604 60.0599 47.7004C60.0199 47.7204 59.9999 47.7604 59.9699 47.8304C59.8999 47.9604 59.7899 48.1904 59.5199 48.3204C59.4899 48.3304 59.4499 48.3504 59.4099 48.3704C59.3599 48.3904 59.2999 48.4204 59.2399 48.4504C59.1699 48.4904 59.1599 48.5504 59.1499 48.6104C59.1499 48.6304 59.1499 48.6404 59.1399 48.6604C59.1399 48.6704 59.1299 48.6804 59.1299 48.7004C59.1199 48.7404 59.0999 48.7804 59.1199 48.8304C59.1499 48.8904 59.2199 48.9704 59.3699 48.8904C59.4799 48.8404 59.5999 48.8304 59.7499 49.1304L61.0299 51.7204C61.1899 52.0404 61.0999 52.1504 61.0299 52.2304C60.9999 52.2704 60.9699 52.3104 60.9599 52.3604C60.9599 52.3804 60.9599 52.3904 60.9499 52.4104C60.9399 52.4604 60.9399 52.5204 60.9699 52.5804C61.0099 52.6604 61.0699 52.6804 61.1399 52.6404C61.2699 52.5704 61.4299 52.4804 61.5699 52.4004C61.6899 52.3304 61.7899 52.2704 61.8699 52.2304C61.9799 52.1804 62.1199 52.1204 62.2599 52.0604C62.4299 51.9904 62.6099 51.9104 62.7699 51.8304C62.8399 51.8004 62.8899 51.5404 62.8599 51.4704C62.7899 51.3304 62.6599 51.4004 62.5699 51.4404C62.4899 51.4804 62.4099 51.5204 62.3199 51.5104C62.1599 51.4904 62.0699 51.4204 61.9599 51.2104L61.0199 49.3104C60.7599 48.7904 60.8399 48.3504 61.0199 48.2704C61.0899 48.2304 61.1599 48.2604 61.2499 48.3104C61.3199 48.3504 61.3999 48.3904 61.4799 48.3504C61.5799 48.3004 61.5799 48.1804 61.5999 48.0104C61.5999 47.9704 61.6099 47.9304 61.6099 47.8904C61.6199 47.8204 61.6299 47.7604 61.6299 47.7004C61.6499 47.5704 61.6599 47.4804 61.6099 47.3804C61.5399 47.1804 61.2199 47.1304 60.9399 47.2704Z" fill="white"/>
<path d="M64.69 49.9402C64.36 50.1002 64.15 49.8602 64.03 49.6202C63.73 49.0102 64.15 48.4502 64.54 48.1802L64.69 48.4902C65.02 49.1502 65.02 49.7702 64.69 49.9402ZM66.5499 48.8302C66.4999 48.8602 66.4699 48.9102 66.4599 48.9502C66.4399 48.9902 66.43 49.0203 66.41 49.0303C66.3 49.0803 66.17 49.1002 65.95 48.6602C65.74 48.2302 65.55 47.8202 65.38 47.4602C65.25 47.1702 65.12 46.9002 65.01 46.6702C64.68 46.0002 63.9899 45.7602 63.3299 46.0902C63.1899 46.1602 62.97 46.3202 62.78 46.4702C62.64 46.5802 62.5 46.6802 62.44 46.7102C62.34 46.7602 62.2899 46.7302 62.2399 46.7102C62.1999 46.6902 62.1599 46.6702 62.1099 46.6902C62.0299 46.7302 61.9399 46.9002 62.0199 47.0802C62.3099 47.6702 62.39 48.1002 62.42 48.2402C62.43 48.2802 62.43 48.3002 62.44 48.3102C62.49 48.4002 62.5699 48.4302 62.6499 48.4002C62.6999 48.3702 62.73 48.3202 62.76 48.2702C62.77 48.2402 62.79 48.2202 62.81 48.1902C62.83 48.1602 62.83 48.1102 62.82 48.0202C62.8 47.7502 62.77 47.1902 63.28 46.9302C63.55 46.8002 63.8999 46.8502 64.1099 47.2602L64.32 47.6802C63.41 48.2102 62.66 49.1503 63.22 50.2803C63.54 50.9303 64.2 51.2102 64.76 50.9402C65.12 50.7602 65.23 50.4102 65.34 50.0802C65.37 49.9902 65.4 49.9002 65.44 49.8102C65.65 50.1102 66.03 50.3202 66.32 50.1702C66.47 50.0902 66.5399 49.9202 66.6099 49.7402C66.6599 49.6102 66.7099 49.4802 66.7999 49.3602C66.8799 49.2402 66.8199 48.9502 66.7999 48.9002C66.7299 48.8502 66.6699 48.7702 66.5499 48.8302Z" fill="white"/>
<path d="M68.7301 48.4002C68.6901 48.4102 68.6501 48.4202 68.5901 48.4402C68.4801 48.4702 68.3201 48.4502 68.1301 48.0802L66.8701 45.5402C66.5901 44.9702 66.5401 44.8102 66.5301 44.7502C66.5201 44.7302 66.5201 44.7202 66.5201 44.7002C66.4801 44.6202 66.3401 44.6002 66.2501 44.6402C66.2001 44.6602 66.1701 44.7202 66.1301 44.7902C66.0501 44.9302 65.9301 45.1302 65.5901 45.3102L65.4401 45.3802C65.3301 45.4402 65.2601 45.7002 65.3001 45.7802C65.3501 45.8802 65.4501 45.8502 65.5301 45.8202C65.5501 45.8102 65.5801 45.8102 65.6101 45.8002C65.7001 45.7802 65.8001 45.7902 65.9001 45.9902L67.0501 48.3202C67.2901 48.8002 67.3501 49.0302 67.2501 49.1202C67.1101 49.2502 67.1101 49.4702 67.1501 49.5302C67.1801 49.6002 67.2601 49.6202 67.3301 49.5902C67.5601 49.4802 67.7101 49.3802 67.8401 49.3102C67.9301 49.2602 68.0001 49.2102 68.0701 49.1802C68.2301 49.1002 68.3601 49.0502 68.4901 49.0002C68.6201 48.9502 68.7401 48.9002 68.8801 48.8302C68.9401 48.8002 69.0101 48.5502 68.9801 48.4902C68.9001 48.3502 68.8401 48.3702 68.7301 48.4002ZM65.1801 44.4701C65.0501 44.4101 64.9801 44.3802 64.9501 44.3102C64.8801 44.1702 64.8801 44.0802 64.9801 43.8202C65.0901 43.5202 65.1401 43.4202 65.2001 43.3902C65.3401 43.3202 65.4301 43.3302 65.6201 43.4202C65.9001 43.5402 66.0101 43.5902 66.0801 43.7502C66.1301 43.8502 66.1201 43.9802 66.0501 44.2302C66.0101 44.4202 65.9501 44.6001 65.8301 44.6601C65.7101 44.7201 65.6001 44.6702 65.4201 44.5702C65.4001 44.5602 65.3701 44.5402 65.3401 44.5302C65.2801 44.5202 65.2301 44.4901 65.1801 44.4701Z" fill="white"/>
<path d="M72.7499 43.1804C72.5399 42.7704 72.6399 42.2804 72.8699 42.1704C73.1799 42.0204 73.5099 42.2804 73.6799 42.6104C73.7799 42.8104 73.7299 42.8504 73.6599 42.8804L72.8999 43.2604C72.8399 43.2904 72.8099 43.3004 72.7499 43.1804ZM75.4199 43.7604C75.3399 43.8004 75.3099 43.9104 75.2799 44.0604C75.2199 44.3204 75.1299 44.7104 74.6699 44.9404C74.1599 45.2004 73.5399 44.7804 73.0699 43.8904L74.6299 43.1204C74.9299 42.9704 74.9999 42.7804 74.8599 42.4904C74.3599 41.4804 73.4999 41.0504 72.7199 41.4404C71.7699 41.9104 71.5399 43.3104 72.1899 44.6204C72.8199 45.8904 73.8599 46.4303 74.7799 45.9703C75.6299 45.5503 75.7399 44.2804 75.6999 44.2004C75.6599 44.1204 75.6399 44.0204 75.6299 43.9504C75.6199 43.9004 75.6199 43.8704 75.5999 43.8504C75.5599 43.7604 75.4799 43.7204 75.4199 43.7604Z" fill="white"/>
<path d="M72.79 46.3604C72.73 46.3804 72.66 46.4104 72.62 46.4004C72.47 46.3604 72.37 46.2704 72.13 45.7804L71 43.5004C70.67 42.8404 70.19 42.6704 69.56 42.9804C69.32 43.1004 69.19 43.3504 69.05 43.6204C68.99 43.7404 68.92 43.8604 68.85 43.9804C68.76 43.7904 68.74 43.7004 68.73 43.6504C68.72 43.6304 68.72 43.6104 68.71 43.5904C68.67 43.5004 68.52 43.4804 68.44 43.5304C68.39 43.5604 68.36 43.6104 68.32 43.6804C68.24 43.8204 68.12 44.0304 67.77 44.2004L67.62 44.2804C67.52 44.3304 67.44 44.6004 67.48 44.6804C67.53 44.7804 67.64 44.7504 67.72 44.7204C67.74 44.7104 67.77 44.7004 67.8 44.7004C67.89 44.6804 67.99 44.6904 68.09 44.8904L69.29 47.3004C69.57 47.8604 69.44 48.0004 69.43 48.0104C69.3 48.1204 69.28 48.3704 69.32 48.4404C69.38 48.5504 69.46 48.5104 69.51 48.4904C69.66 48.4204 69.79 48.3404 69.92 48.2604C70.04 48.1904 70.15 48.1204 70.27 48.0604C70.38 48.0004 70.49 47.9604 70.61 47.9104C70.74 47.8604 70.9 47.8004 71.08 47.7104C71.16 47.6704 71.16 47.6104 71.16 47.5804C71.16 47.5704 71.16 47.5604 71.17 47.5404C71.17 47.5304 71.18 47.5204 71.18 47.5104C71.2 47.4704 71.22 47.4204 71.18 47.3304C71.13 47.2404 71.03 47.2704 70.97 47.3004C70.9 47.3304 70.81 47.3604 70.7 47.3304C70.58 47.3004 70.43 47.1104 70.24 46.7204L69.31 44.8404C69.17 44.5604 69.32 44.0504 69.58 43.9204C69.81 43.8104 70.05 43.9504 70.22 44.3004L71.23 46.3404C71.51 46.9004 71.38 47.0404 71.38 47.0404C71.31 47.0904 71.31 47.4004 71.33 47.4404C71.39 47.5504 71.47 47.5104 71.52 47.4904C71.63 47.4304 71.79 47.3404 71.95 47.2504C72.08 47.1704 72.2 47.1004 72.27 47.0704C72.34 47.0304 72.42 47.0004 72.52 46.9704C72.65 46.9204 72.81 46.8604 73.01 46.7604C73.06 46.7304 73.08 46.6604 73.1 46.5704C73.1 46.5504 73.11 46.5404 73.11 46.5304C73.12 46.4904 73.13 46.4504 73.1 46.3904C73.01 46.2804 72.88 46.3304 72.79 46.3604Z" fill="white"/>
<path d="M23.5801 102.2C23.5801 99.4598 25.6001 97.5898 28.1701 97.5898C29.7501 97.5898 30.8401 98.3398 31.5501 99.3598L30.6301 99.8798C30.1201 99.1198 29.1801 98.5798 28.1701 98.5798C26.2201 98.5798 24.7301 100.06 24.7301 102.2C24.7301 104.31 26.2101 105.82 28.1701 105.82C29.1801 105.82 30.1201 105.27 30.6301 104.52L31.5601 105.03C30.8101 106.06 29.7401 106.81 28.1701 106.81C25.6001 106.81 23.5801 104.94 23.5801 102.2Z" fill="white"/>
<path d="M37.9001 103.42C37.9001 102.11 37.1401 100.93 35.7601 100.93C34.3801 100.93 33.6201 102.11 33.6201 103.42C33.6201 104.74 34.3801 105.92 35.7601 105.92C37.1401 105.92 37.9001 104.74 37.9001 103.42ZM32.5701 103.42C32.5701 101.55 33.8001 100.04 35.7601 100.04C37.7201 100.04 38.9601 101.55 38.9601 103.42C38.9601 105.29 37.7301 106.82 35.7601 106.82C33.7901 106.82 32.5701 105.29 32.5701 103.42Z" fill="white"/>
<path d="M41.5901 97.7402H40.5901V106.66H41.5901V97.7402Z" fill="white"/>
<path d="M44.6001 97.7402H43.6001V106.66H44.6001V97.7402Z" fill="white"/>
<path d="M49.41 100.87C48.03 100.87 47.35 102.03 47.3 103.01H51.54C51.52 102.06 50.88 100.87 49.41 100.87ZM46.24 103.42C46.24 101.55 47.58 100.04 49.42 100.04C51.37 100.04 52.52 101.56 52.52 103.5V103.76H47.31C47.39 104.98 48.23 105.99 49.62 105.99C50.37 105.99 51.1 105.7 51.63 105.16L52.11 105.82C51.45 106.46 50.58 106.82 49.54 106.82C47.62 106.81 46.24 105.44 46.24 103.42Z" fill="white"/>
<path d="M53.77 103.42C53.77 101.51 55.07 100.04 56.99 100.04C58.17 100.04 58.86 100.52 59.36 101.16L58.69 101.76C58.26 101.17 57.71 100.93 57.05 100.93C55.69 100.93 54.82 101.99 54.82 103.42C54.82 104.85 55.69 105.92 57.05 105.92C57.72 105.92 58.27 105.65 58.69 105.08L59.36 105.69C58.87 106.33 58.17 106.81 56.99 106.81C55.06 106.81 53.77 105.33 53.77 103.42Z" fill="white"/>
<path d="M60.9799 105.3V101.08H59.9099V100.2H60.9799V98.4399H61.9999V100.2H63.3099V101.08H61.9999V105.09C61.9999 105.57 62.2099 105.92 62.6399 105.92C62.9299 105.92 63.1899 105.79 63.3199 105.64L63.6099 106.4C63.3599 106.64 62.9999 106.81 62.4199 106.81C61.4599 106.81 60.9799 106.27 60.9799 105.3Z" fill="white"/>
<path d="M67.5001 100.87C66.1201 100.87 65.4401 102.03 65.3901 103.01H69.6301C69.6101 102.06 68.9701 100.87 67.5001 100.87ZM64.3301 103.42C64.3301 101.55 65.6701 100.04 67.5101 100.04C69.4601 100.04 70.6101 101.56 70.6101 103.5V103.76H65.4001C65.4801 104.98 66.3201 105.99 67.7101 105.99C68.4601 105.99 69.1901 105.7 69.7201 105.16L70.2001 105.82C69.5501 106.46 68.6801 106.82 67.6301 106.82C65.7101 106.81 64.3301 105.44 64.3301 103.42Z" fill="white"/>
</svg>
