<svg width="193" height="167" viewBox="0 0 193 167" fill="none" xmlns="http://www.w3.org/2000/svg">
<path d="M50.0798 87.3803L66.7299 87.3903L68.8298 101.86C68.9098 102.42 69.4398 102.83 70.0098 102.74C70.2898 102.7 70.5298 102.56 70.6998 102.33C70.8698 102.11 70.9398 101.83 70.8998 101.56L65.8499 66.7603H68.9199C70.3499 66.7603 71.5198 65.6003 71.5198 64.1603C71.5198 62.7303 70.3599 61.5603 68.9199 61.5603L47.9299 61.5503C46.4999 61.5503 45.3298 62.7203 45.3298 64.1503C45.3298 64.8503 45.5998 65.5003 46.0898 65.9903C46.5798 66.4803 47.2299 66.7503 47.9299 66.7503H50.9999L45.9099 101.55C45.8299 102.12 46.2199 102.65 46.7899 102.73C46.8499 102.74 46.8998 102.74 46.9498 102.74C47.4498 102.74 47.8898 102.36 47.9698 101.85L50.0798 87.3803ZM69.8599 104.98C68.2499 104.98 66.8599 103.78 66.6199 102.18L64.7999 89.6203L52.0098 89.6103L50.1799 102.17C49.9499 103.77 48.5499 104.97 46.9399 104.97C46.7699 104.97 46.6098 104.96 46.4598 104.93C45.6098 104.81 44.8398 104.35 44.3198 103.65C43.7998 102.95 43.5798 102.09 43.7098 101.22L48.4199 68.9703H47.9299C46.6399 68.9703 45.4298 68.4703 44.5198 67.5503C43.6098 66.6403 43.1099 65.4203 43.1099 64.1303C43.1099 61.4703 45.2799 59.3003 47.9399 59.3003L68.9299 59.3103C71.5899 59.3103 73.7598 61.4803 73.7598 64.1403C73.7598 66.8003 71.5899 68.9603 68.9299 68.9603H68.4399L73.1199 101.21C73.2499 102.07 73.0299 102.94 72.4999 103.64C71.9799 104.34 71.2099 104.79 70.3499 104.92C70.1699 104.96 70.0099 104.98 69.8599 104.98Z" fill="#D6BC78"/>
<path d="M89.3099 87.3998L105.96 87.4099L108.06 101.88C108.14 102.44 108.67 102.83 109.24 102.76C109.81 102.68 110.2 102.15 110.12 101.58L105.07 66.7798H108.14C108.83 66.7798 109.49 66.5099 109.98 66.0199C110.47 65.5299 110.74 64.8799 110.74 64.1799C110.74 63.4799 110.47 62.8298 109.98 62.3398C109.49 61.8498 108.84 61.5799 108.14 61.5799L87.1499 61.5699C86.4599 61.5699 85.7999 61.8399 85.3099 62.3299C84.8199 62.8199 84.5499 63.4699 84.5499 64.1699C84.5499 65.5999 85.7199 66.7699 87.1499 66.7699H90.2199L85.1399 101.57C85.0599 102.14 85.4499 102.67 86.0199 102.75C86.0799 102.76 86.1299 102.76 86.1699 102.76C86.6799 102.76 87.1199 102.38 87.1999 101.87L89.3099 87.3998ZM109.09 105C107.48 105 106.09 103.79 105.86 102.2L104.04 89.6399L91.2499 89.6299L89.4099 102.19C89.1499 103.94 87.4899 105.23 85.6899 104.95C83.9099 104.69 82.6699 103.03 82.9299 101.24L87.6399 68.9899H87.1499C84.4899 68.9899 82.3199 66.8199 82.3299 64.1599C82.3299 62.8699 82.8299 61.6599 83.7499 60.7499C84.6599 59.8399 85.8699 59.3398 87.1599 59.3398L108.15 59.3499C109.44 59.3499 110.65 59.8499 111.56 60.7699C112.47 61.6799 112.97 62.8899 112.97 64.1899C112.97 65.4799 112.47 66.6899 111.55 67.5999C110.64 68.5099 109.43 69.0099 108.14 69.0099H107.65L112.33 101.26C112.59 103.05 111.35 104.71 109.56 104.97C109.4 104.99 109.24 105 109.09 105Z" fill="#D6BC78"/>
<path d="M52.9599 83.0602L63.8499 83.0703L61.7999 68.9802H55.0199L52.9599 83.0602ZM66.4299 85.3002L50.3899 85.2902L53.0999 66.7402H63.7399L66.4299 85.3002Z" fill="#D6BC78"/>
<path d="M128.55 87.4203L145.2 87.4304L147.3 101.9C147.38 102.46 147.91 102.87 148.48 102.78C149.05 102.7 149.45 102.17 149.36 101.6L144.32 66.8004H147.39C148.08 66.8004 148.73 66.5303 149.23 66.0403C149.72 65.5503 149.99 64.9004 149.99 64.2004C149.99 62.7704 148.82 61.6003 147.39 61.6003L126.4 61.5903C124.97 61.5903 123.8 62.7604 123.8 64.1904C123.8 64.8804 124.07 65.5403 124.56 66.0303C125.05 66.5203 125.7 66.7903 126.4 66.7903H129.47L124.39 101.59C124.31 102.16 124.7 102.69 125.27 102.77C125.33 102.78 125.38 102.78 125.42 102.78C125.93 102.78 126.38 102.4 126.45 101.89L128.55 87.4203ZM148.32 105.02C146.71 105.02 145.32 103.82 145.09 102.22L143.27 89.6603L130.48 89.6503L128.65 102.21C128.39 103.96 126.72 105.25 124.93 104.97C124.08 104.85 123.31 104.39 122.79 103.69C122.27 102.99 122.05 102.13 122.18 101.26L126.89 69.0104H126.4C125.11 69.0104 123.9 68.5103 122.99 67.5903C122.08 66.6803 121.58 65.4603 121.58 64.1703C121.58 61.5103 123.75 59.3403 126.41 59.3403L147.4 59.3503C150.06 59.3503 152.23 61.5204 152.22 64.1804C152.22 65.4704 151.72 66.6803 150.8 67.5903C149.89 68.5003 148.68 69.0004 147.39 69.0004H147.38H146.89L151.57 101.25C151.83 103.03 150.58 104.7 148.8 104.96C148.64 105.01 148.48 105.02 148.32 105.02Z" fill="#D6BC78"/>
<path d="M92.1998 83.0902L103.09 83.1002L101.05 69.0103H94.2598L92.1998 83.0902ZM105.66 85.3203L89.6199 85.3102L92.3298 66.7603H102.97L105.66 85.3203Z" fill="#D6BC78"/>
<path d="M131.43 83.1103L142.32 83.1203L140.28 69.0303H133.49L131.43 83.1103ZM144.89 85.3403L128.85 85.3303L131.56 66.7803H142.2L144.89 85.3403Z" fill="#D6BC78"/>
<path d="M161.9 13.96H144.74V15.96H160.9V110.47H34.4099V15.96H50.5699V13.96H33.4099C32.8599 13.96 32.4099 14.41 32.4099 14.96V111.46C32.4099 112.01 32.8599 112.46 33.4099 112.46H161.9C162.45 112.46 162.9 112.01 162.9 111.46V14.96C162.89 14.4 162.45 13.96 161.9 13.96Z" fill="#D6BC78"/>
<path d="M51.6799 27.69H143.63V2.21997H51.6799V27.69ZM144.74 29.92H50.5599C49.9399 29.92 49.4399 29.42 49.4399 28.81V1.10999C49.4399 0.489985 49.9399 0 50.5599 0H144.74C145.36 0 145.85 0.499985 145.85 1.10999V28.81C145.85 29.42 145.36 29.92 144.74 29.92Z" fill="#D6BC78"/>
<path d="M153.62 51.05H41.6799C41.0599 51.05 40.5698 50.5501 40.5698 49.9401C40.5698 49.3201 41.0699 48.8301 41.6799 48.8301H153.61C154.23 48.8301 154.72 49.3301 154.72 49.9401C154.73 50.5501 154.23 51.05 153.62 51.05Z" fill="#D6BC78"/>
<path d="M52.3 127.98C52.3 125.24 54.32 123.37 56.89 123.37C58.47 123.37 59.56 124.12 60.27 125.13L59.35 125.65C58.84 124.89 57.9 124.35 56.89 124.35C54.94 124.35 53.45 125.83 53.45 127.97C53.45 130.08 54.93 131.59 56.89 131.59C57.9 131.59 58.84 131.04 59.35 130.3L60.28 130.81C59.53 131.84 58.46 132.59 56.89 132.59C54.32 132.59 52.3 130.72 52.3 127.98Z" fill="#D6BC78"/>
<path d="M66.6201 129.2C66.6201 127.89 65.86 126.71 64.48 126.71C63.1 126.71 62.34 127.88 62.34 129.2C62.34 130.52 63.1 131.7 64.48 131.7C65.86 131.69 66.6201 130.52 66.6201 129.2ZM61.29 129.2C61.29 127.33 62.52 125.82 64.48 125.82C66.45 125.82 67.6801 127.33 67.6801 129.2C67.6801 131.07 66.45 132.6 64.48 132.6C62.52 132.59 61.29 131.07 61.29 129.2Z" fill="#D6BC78"/>
<path d="M73.6901 132.43V128.21C73.6901 127.06 73.1001 126.71 72.2301 126.71C71.4401 126.71 70.7101 127.19 70.3201 127.71V132.43H69.3201V125.97H70.3201V126.91C70.7801 126.36 71.6601 125.81 72.6301 125.81C73.9701 125.81 74.6701 126.49 74.6701 127.9V132.43H73.6901Z" fill="#D6BC78"/>
<path d="M76.1499 131.57L76.6599 130.85C77.0899 131.34 77.8999 131.77 78.7899 131.77C79.7799 131.77 80.3299 131.3 80.3299 130.66C80.3299 129.1 76.3299 130.06 76.3299 127.67C76.3299 126.65 77.1799 125.81 78.7199 125.81C79.8299 125.81 80.5999 126.23 81.1099 126.74L80.6399 127.44C80.2499 126.97 79.5599 126.62 78.7199 126.62C77.8399 126.62 77.2899 127.06 77.2899 127.64C77.2899 129.04 81.2899 128.12 81.2899 130.63C81.2899 131.71 80.4199 132.58 78.7599 132.58C77.6899 132.59 76.7999 132.26 76.1499 131.57Z" fill="#D6BC78"/>
<path d="M87.88 129.2C87.88 127.89 87.1201 126.71 85.7401 126.71C84.3601 126.71 83.6 127.88 83.6 129.2C83.6 130.52 84.3601 131.7 85.7401 131.7C87.1201 131.69 87.88 130.52 87.88 129.2ZM82.54 129.2C82.54 127.33 83.77 125.82 85.73 125.82C87.7 125.82 88.9301 127.33 88.9301 129.2C88.9301 131.07 87.7 132.6 85.73 132.6C83.77 132.59 82.54 131.07 82.54 129.2Z" fill="#D6BC78"/>
<path d="M98.3601 132.43V128.05C98.3601 127.23 98.0101 126.71 97.1701 126.71C96.5001 126.71 95.7901 127.18 95.4601 127.7V132.43H94.4601V128.05C94.4601 127.23 94.1301 126.71 93.2701 126.71C92.6101 126.71 91.9201 127.19 91.5701 127.71V132.43H90.5701V125.97H91.5701V126.91C91.8501 126.5 92.7101 125.81 93.6701 125.81C94.6501 125.81 95.2101 126.35 95.3901 127.01C95.7501 126.42 96.6201 125.81 97.5601 125.81C98.7401 125.81 99.3601 126.46 99.3601 127.76V132.42H98.3601V132.43Z" fill="#D6BC78"/>
<path d="M109.17 132.43V128.05C109.17 127.23 108.82 126.71 107.98 126.71C107.31 126.71 106.6 127.18 106.27 127.7V132.43H105.27V128.05C105.27 127.23 104.94 126.71 104.08 126.71C103.42 126.71 102.73 127.19 102.38 127.71V132.43H101.38V125.97H102.38V126.91C102.66 126.5 103.52 125.81 104.48 125.81C105.46 125.81 106.02 126.35 106.2 127.01C106.56 126.42 107.43 125.81 108.37 125.81C109.55 125.81 110.17 126.46 110.17 127.76V132.42H109.17V132.43Z" fill="#D6BC78"/>
<path d="M116.22 131.07V129.84C115.83 129.32 115.15 129.05 114.46 129.05C113.51 129.05 112.86 129.64 112.86 130.45C112.86 131.28 113.51 131.87 114.46 131.87C115.15 131.87 115.83 131.6 116.22 131.07ZM116.22 132.43V131.69C115.7 132.28 114.95 132.59 114.08 132.59C113 132.59 111.84 131.85 111.84 130.45C111.84 128.99 112.99 128.33 114.08 128.33C114.96 128.33 115.7 128.61 116.22 129.2V128.04C116.22 127.18 115.52 126.69 114.59 126.69C113.81 126.69 113.18 126.96 112.61 127.59L112.14 126.89C112.84 126.17 113.66 125.82 114.72 125.82C116.1 125.82 117.22 126.43 117.22 128V132.44H116.22V132.43Z" fill="#D6BC78"/>
<path d="M119.44 131.08V126.86H118.37V125.98H119.44V124.22H120.46V125.98H121.77V126.86H120.46V130.87C120.46 131.35 120.67 131.7 121.1 131.7C121.39 131.7 121.65 131.57 121.78 131.42L122.07 132.18C121.81 132.42 121.46 132.6 120.88 132.6C119.93 132.59 119.44 132.04 119.44 131.08Z" fill="#D6BC78"/>
<path d="M123.18 125.97H124.18V132.43H123.18V125.97ZM123 124.38C123 124.01 123.31 123.7 123.68 123.7C124.06 123.7 124.35 124.01 124.35 124.38C124.35 124.75 124.06 125.05 123.68 125.05C123.31 125.05 123 124.76 123 124.38Z" fill="#D6BC78"/>
<path d="M131.14 129.2C131.14 127.89 130.38 126.71 129 126.71C127.62 126.71 126.86 127.88 126.86 129.2C126.86 130.52 127.62 131.7 129 131.7C130.38 131.69 131.14 130.52 131.14 129.2ZM125.81 129.2C125.81 127.33 127.04 125.82 129 125.82C130.97 125.82 132.2 127.33 132.2 129.2C132.2 131.07 130.97 132.6 129 132.6C127.04 132.59 125.81 131.07 125.81 129.2Z" fill="#D6BC78"/>
<path d="M138.21 132.43V128.21C138.21 127.06 137.62 126.71 136.75 126.71C135.96 126.71 135.23 127.19 134.84 127.71V132.43H133.84V125.97H134.84V126.91C135.3 126.36 136.18 125.81 137.15 125.81C138.49 125.81 139.2 126.49 139.2 127.9V132.43H138.21Z" fill="#D6BC78"/>
<path d="M5.48999 145.95C5.48999 145.13 4.92997 144.41 3.83997 144.41H1.09998V147.48H3.83997C4.86997 147.49 5.48999 146.9 5.48999 145.95ZM5.31 142C5.31 141.2 4.77996 140.56 3.76996 140.56H1.08997V143.43H3.76996C4.77996 143.43 5.31 142.81 5.31 142ZM0 148.48V139.56H3.96997C5.51997 139.56 6.46997 140.5 6.46997 141.83C6.46997 142.95 5.71997 143.7 4.90997 143.87C5.85997 144.02 6.64996 144.99 6.64996 146.06C6.64996 147.49 5.69995 148.47 4.06995 148.47H0V148.48Z" fill="#D6BC78"/>
<path d="M11.7599 140.7L9.87 145.51H13.65L11.7599 140.7ZM14.77 148.48L13.98 146.49H9.53998L8.75 148.48H7.47998L11.08 139.56H12.46L16.04 148.48H14.77Z" fill="#D6BC78"/>
<path d="M22.45 142.25C22.45 141.23 21.71 140.55 20.66 140.55H18.3199V143.96H20.66C21.71 143.96 22.45 143.25 22.45 142.25ZM22.37 148.48L20.11 144.94H18.3199V148.48H17.21V139.56H20.79C22.42 139.56 23.6 140.6 23.6 142.25C23.6 143.85 22.49 144.74 21.27 144.84L23.68 148.48H22.37Z" fill="#D6BC78"/>
<path d="M24.8198 147.22L25.4899 146.37C26.0699 147.04 27.0298 147.65 28.2798 147.65C29.8698 147.65 30.3798 146.79 30.3798 146.1C30.3798 143.8 25.0999 145.08 25.0999 141.9C25.0999 140.43 26.4099 139.41 28.1699 139.41C29.5199 139.41 30.5798 139.88 31.3198 140.67L30.6498 141.49C29.9798 140.74 29.0498 140.42 28.0698 140.42C27.0098 140.42 26.2399 141 26.2399 141.84C26.2399 143.85 31.5198 142.7 31.5198 146.02C31.5198 147.3 30.6399 148.64 28.2299 148.64C26.6999 148.64 25.5498 148.05 24.8198 147.22Z" fill="#D6BC78"/>
<path d="M35.6099 148.75L38.7798 139.3H39.5698L36.3998 148.75H35.6099Z" fill="#D6BC78"/>
<path d="M49.3198 142.25C49.3198 141.23 48.5898 140.55 47.5298 140.55H45.1899V143.96H47.5298C48.5798 143.96 49.3198 143.25 49.3198 142.25ZM49.2399 148.48L46.9799 144.94H45.1899V148.48H44.0798V139.56H47.6599C49.2899 139.56 50.4698 140.6 50.4698 142.25C50.4698 143.85 49.3598 144.74 48.1398 144.84L50.5499 148.48H49.2399Z" fill="#D6BC78"/>
<path d="M52.22 148.48V139.56H58.0699V140.55H53.33V143.43H57.97V144.42H53.33V147.49H58.0699V148.48H52.22Z" fill="#D6BC78"/>
<path d="M59.3 147.22L59.97 146.37C60.55 147.04 61.51 147.65 62.76 147.65C64.35 147.65 64.86 146.79 64.86 146.1C64.86 143.8 59.58 145.08 59.58 141.9C59.58 140.43 60.89 139.41 62.65 139.41C64 139.41 65.06 139.88 65.8 140.67L65.13 141.49C64.46 140.74 63.53 140.42 62.55 140.42C61.49 140.42 60.72 141 60.72 141.84C60.72 143.85 66.0001 142.7 66.0001 146.02C66.0001 147.3 65.12 148.64 62.71 148.64C61.18 148.64 60.03 148.05 59.3 147.22Z" fill="#D6BC78"/>
<path d="M69.8 148.48V140.55H66.98V139.56H73.74V140.55H70.91V148.48H69.8Z" fill="#D6BC78"/>
<path d="M77.6699 140.7L75.7799 145.51H79.5599L77.6699 140.7ZM80.6799 148.48L79.8899 146.49H75.4499L74.6599 148.48H73.3899L76.9899 139.56H78.3699L81.9499 148.48H80.6799Z" fill="#D6BC78"/>
<path d="M82.7698 145.02V139.57H83.8898V145C83.8898 146.63 84.7598 147.66 86.3998 147.66C88.0498 147.66 88.9298 146.63 88.9298 145V139.57H90.0498V145.01C90.0498 147.23 88.8198 148.65 86.3998 148.65C83.9998 148.64 82.7698 147.21 82.7698 145.02Z" fill="#D6BC78"/>
<path d="M97.3899 142.25C97.3899 141.23 96.6599 140.55 95.5999 140.55H93.2599V143.96H95.5999C96.6499 143.96 97.3899 143.25 97.3899 142.25ZM97.3099 148.48L95.0499 144.94H93.2599V148.48H92.1499V139.56H95.7299C97.3599 139.56 98.5399 140.6 98.5399 142.25C98.5399 143.85 97.4299 144.74 96.2099 144.84L98.6199 148.48H97.3099Z" fill="#D6BC78"/>
<path d="M103.65 140.7L101.76 145.51H105.54L103.65 140.7ZM106.66 148.48L105.87 146.49H101.43L100.64 148.48H99.3699L102.97 139.56H104.35L107.93 148.48H106.66Z" fill="#D6BC78"/>
<path d="M115.4 148.48L110.2 141.37V148.48H109.09V139.56H110.23L115.36 146.53V139.56H116.47V148.48H115.4Z" fill="#D6BC78"/>
<path d="M120.77 148.48V140.55H117.95V139.56H124.71V140.55H121.88V148.48H120.77Z" fill="#D6BC78"/>
<path d="M125.61 147.22L126.28 146.37C126.86 147.04 127.82 147.65 129.07 147.65C130.66 147.65 131.17 146.79 131.17 146.1C131.17 143.8 125.89 145.08 125.89 141.9C125.89 140.43 127.2 139.41 128.96 139.41C130.31 139.41 131.37 139.88 132.11 140.67L131.44 141.49C130.77 140.74 129.84 140.42 128.86 140.42C127.8 140.42 127.03 141 127.03 141.84C127.03 143.85 132.31 142.7 132.31 146.02C132.31 147.3 131.43 148.64 129.02 148.64C127.5 148.64 126.35 148.05 125.61 147.22Z" fill="#D6BC78"/>
<path d="M136.4 148.75L139.57 139.3H140.36L137.19 148.75H136.4Z" fill="#D6BC78"/>
<path d="M151.19 148.48V144.39H145.98V148.48H144.87V139.56H145.98V143.4H151.19V139.56H152.3V148.48H151.19Z" fill="#D6BC78"/>
<path d="M159.58 138.75L158.47 137.33L157.4 138.75H156.72L157.99 136.82H158.95L160.26 138.75H159.58ZM161.75 144.03C161.75 141.94 160.45 140.41 158.46 140.41C156.45 140.41 155.19 141.95 155.19 144.03C155.19 146.1 156.46 147.65 158.46 147.65C160.45 147.65 161.75 146.1 161.75 144.03ZM154.03 144.03C154.03 141.4 155.82 139.42 158.45 139.42C161.08 139.42 162.89 141.4 162.89 144.03C162.89 146.66 161.09 148.64 158.45 148.64C155.82 148.64 154.03 146.66 154.03 144.03Z" fill="#D6BC78"/>
<path d="M166.47 148.48V140.55H163.65V139.56H170.41V140.55H167.58V148.48H166.47Z" fill="#D6BC78"/>
<path d="M171.89 148.48V139.56H177.73V140.55H173V143.43H177.64V144.42H173V147.49H177.73V148.48H171.89Z" fill="#D6BC78"/>
<path d="M179.35 148.48V139.56H180.46V147.49H184.6V148.48H179.35Z" fill="#D6BC78"/>
<path d="M185.56 147.22L186.23 146.37C186.81 147.04 187.77 147.65 189.02 147.65C190.61 147.65 191.12 146.79 191.12 146.1C191.12 143.8 185.84 145.08 185.84 141.9C185.84 140.43 187.15 139.41 188.91 139.41C190.26 139.41 191.32 139.88 192.07 140.67L191.4 141.49C190.73 140.74 189.8 140.42 188.82 140.42C187.76 140.42 186.99 141 186.99 141.84C186.99 143.85 192.27 142.7 192.27 146.02C192.27 147.3 191.39 148.64 188.98 148.64C187.44 148.64 186.29 148.05 185.56 147.22Z" fill="#D6BC78"/>
<path d="M62.8998 162.77V159.85C62.5498 159.29 61.7598 158.81 60.9698 158.81C59.6598 158.81 58.8798 159.88 58.8798 161.31C58.8798 162.74 59.6598 163.8 60.9698 163.8C61.7698 163.8 62.5498 163.33 62.8998 162.77ZM62.8998 164.53V163.57C62.4198 164.22 61.6298 164.69 60.7198 164.69C59.0398 164.69 57.8398 163.41 57.8398 161.31C57.8398 159.24 59.0298 157.91 60.7198 157.91C61.5898 157.91 62.3798 158.34 62.8998 159.05V155.62H63.8998V164.53H62.8998Z" fill="#D6BC78"/>
<path d="M68.7098 158.74C67.3298 158.74 66.6498 159.9 66.5998 160.88H70.8398C70.8198 159.93 70.1798 158.74 68.7098 158.74ZM65.5398 161.3C65.5398 159.43 66.8798 157.92 68.7198 157.92C70.6698 157.92 71.8198 159.44 71.8198 161.38V161.64H66.6098C66.6898 162.86 67.5298 163.87 68.9198 163.87C69.6698 163.87 70.3998 163.58 70.9298 163.04L71.4098 163.7C70.7598 164.34 69.8898 164.7 68.8398 164.7C66.9198 164.69 65.5398 163.31 65.5398 161.3Z" fill="#D6BC78"/>
<path d="M84.5699 164.53V157.03L81.54 164.53H81.09L78.06 157.03V164.53H76.95V155.62H78.54L81.3199 162.49L84.08 155.62H85.68V164.53H84.5699Z" fill="#D6BC78"/>
<path d="M91.7599 163.17V161.94C91.3699 161.42 90.6899 161.15 89.9999 161.15C89.0499 161.15 88.3999 161.74 88.3999 162.55C88.3999 163.38 89.0499 163.97 89.9999 163.97C90.6899 163.97 91.3799 163.7 91.7599 163.17ZM91.7599 164.53V163.8C91.2399 164.39 90.4899 164.69 89.6199 164.69C88.5399 164.69 87.3799 163.96 87.3799 162.55C87.3799 161.09 88.5299 160.42 89.6199 160.42C90.4999 160.42 91.2399 160.7 91.7599 161.29V160.13C91.7599 159.27 91.0599 158.78 90.1299 158.78C89.3499 158.78 88.7199 159.05 88.1499 159.68L87.6799 158.98C88.3799 158.26 89.1999 157.91 90.2599 157.91C91.6399 157.91 92.7599 158.52 92.7599 160.09V164.53H91.7599Z" fill="#D6BC78"/>
<path d="M94.7898 164.53V158.07H95.7898V159.1C96.3098 158.43 97.0598 157.92 97.9398 157.92V158.95C97.8198 158.94 97.6998 158.92 97.5498 158.92C96.9198 158.92 96.0798 159.43 95.7798 159.95V164.52H94.7898V164.53Z" fill="#D6BC78"/>
<path d="M99.3998 163.18V158.96H98.3298V158.08H99.3998V156.32H100.42V158.08H101.73V158.96H100.42V162.97C100.42 163.45 100.63 163.8 101.06 163.8C101.35 163.8 101.61 163.66 101.74 163.52L102.03 164.28C101.77 164.52 101.42 164.69 100.84 164.69C99.8798 164.69 99.3998 164.14 99.3998 163.18Z" fill="#D6BC78"/>
<path d="M103.13 158.07H104.13V164.53H103.13V158.07ZM102.96 156.48C102.96 156.1 103.27 155.8 103.64 155.8C104.02 155.8 104.31 156.11 104.31 156.48C104.31 156.85 104.02 157.15 103.64 157.15C103.27 157.15 102.96 156.86 102.96 156.48Z" fill="#D6BC78"/>
<path d="M110.51 164.53V160.31C110.51 159.16 109.92 158.81 109.05 158.81C108.26 158.81 107.53 159.29 107.14 159.81V164.53H106.14V158.07H107.14V159.01C107.6 158.46 108.48 157.91 109.45 157.91C110.79 157.91 111.5 158.59 111.5 160V164.53H110.51Z" fill="#D6BC78"/>
<path d="M113.53 158.07H114.53V164.53H113.53V158.07ZM113.35 156.48C113.35 156.1 113.66 155.8 114.03 155.8C114.41 155.8 114.7 156.11 114.7 156.48C114.7 156.85 114.41 157.15 114.03 157.15C113.66 157.15 113.35 156.86 113.35 156.48Z" fill="#D6BC78"/>
<path d="M121.17 162.75V159.84C120.82 159.28 120.03 158.81 119.24 158.81C117.94 158.81 117.17 159.87 117.17 161.3C117.17 162.73 117.95 163.8 119.24 163.8C120.04 163.8 120.83 163.31 121.17 162.75ZM116.12 161.3C116.12 159.2 117.3 157.92 119 157.92C119.91 157.92 120.71 158.39 121.18 159.04V158.08H122.18V167H121.18V163.56C120.64 164.27 119.88 164.7 119 164.7C117.3 164.69 116.12 163.38 116.12 161.3Z" fill="#D6BC78"/>
<path d="M128.54 164.531V163.621C128.04 164.181 127.2 164.691 126.24 164.691C124.89 164.691 124.18 164.021 124.18 162.631V158.071H125.18V162.321C125.18 163.461 125.76 163.791 126.64 163.791C127.41 163.791 128.16 163.331 128.54 162.811V158.061H129.54V164.521H128.54V164.531Z" fill="#D6BC78"/>
<path d="M134.35 158.74C132.97 158.74 132.29 159.9 132.24 160.88H136.48C136.46 159.93 135.82 158.74 134.35 158.74ZM131.18 161.3C131.18 159.43 132.52 157.92 134.36 157.92C136.31 157.92 137.46 159.44 137.46 161.38V161.64H132.25C132.33 162.86 133.17 163.87 134.56 163.87C135.31 163.87 136.04 163.58 136.57 163.04L137.05 163.7C136.4 164.34 135.53 164.7 134.48 164.7C132.56 164.69 131.18 163.31 131.18 161.3Z" fill="#D6BC78"/>
<path d="M88.7999 16.7403C88.7999 15.9303 88.2299 15.2303 87.1599 15.2303H84.0198V18.2603H87.1599C88.1799 18.2503 88.7999 17.6803 88.7999 16.7403ZM88.5798 12.1503C88.5798 11.3503 88.0298 10.7503 87.0698 10.7503H84.0098V13.5503H87.0698C88.0298 13.5503 88.5798 12.9803 88.5798 12.1503ZM82.1099 19.9303V9.07031H87.4498C89.4498 9.07031 90.5399 10.3103 90.5399 11.8403C90.5399 13.1903 89.6598 14.1203 88.6498 14.3303C89.8198 14.5103 90.7499 15.6703 90.7499 16.9803C90.7499 18.6703 89.6398 19.9303 87.5898 19.9303H82.1099Z" fill="#D6BC78"/>
<path d="M97.5499 10.9803L95.5999 16.1603H99.5098L97.5499 10.9803ZM100.83 19.9303L100.03 17.8303H95.0499L94.2499 19.9303H92.0798L96.3398 9.07031H98.7198L102.99 19.9303H100.83Z" fill="#D6BC78"/>
<path d="M111.1 12.4603C111.1 11.4203 110.32 10.7503 109.25 10.7503H106.63V14.2003H109.25C110.32 14.2003 111.1 13.5203 111.1 12.4603ZM110.92 19.9303L108.53 15.8803H106.63V19.9303H104.73V9.07031H109.5C111.65 9.07031 113.06 10.4503 113.06 12.4703C113.06 14.3903 111.79 15.4503 110.47 15.6603L113.14 19.9203H110.92V19.9303Z" fill="#D6BC78"/>
</svg>
