<svg width="193" height="168" viewBox="0 0 193 168" fill="none" xmlns="http://www.w3.org/2000/svg">
<path d="M50.6699 88.1401L67.3199 88.1501L69.4199 102.62C69.4999 103.18 70.0299 103.59 70.5999 103.5C70.8799 103.46 71.1199 103.32 71.2899 103.09C71.4599 102.87 71.5299 102.59 71.4899 102.32L66.4399 67.5201H69.5099C70.9399 67.5201 72.1099 66.36 72.1099 64.92C72.1099 63.49 70.9499 62.3201 69.5099 62.3201L48.52 62.3101C47.09 62.3101 45.9199 63.48 45.9199 64.91C45.9199 65.61 46.1899 66.2601 46.6799 66.7501C47.1699 67.2401 47.82 67.5101 48.52 67.5101H51.59L46.4999 102.31C46.4199 102.88 46.8099 103.41 47.3799 103.49C47.4399 103.5 47.4899 103.5 47.5399 103.5C48.0399 103.5 48.4799 103.12 48.5599 102.61L50.6699 88.1401ZM70.45 105.74C68.84 105.74 67.45 104.54 67.21 102.94L65.39 90.3801L52.5999 90.3701L50.77 102.93C50.54 104.53 49.14 105.73 47.53 105.73C47.36 105.73 47.1999 105.72 47.0499 105.69C46.1999 105.57 45.4299 105.11 44.9099 104.41C44.3899 103.71 44.1699 102.85 44.2999 101.98L49.0099 69.73H48.52C47.23 69.73 46.0199 69.2301 45.1099 68.3101C44.1999 67.4001 43.7 66.1801 43.7 64.8901C43.7 62.2301 45.87 60.0601 48.53 60.0601L69.52 60.0701C72.18 60.0701 74.3499 62.2401 74.3499 64.9001C74.3499 67.5601 72.18 69.72 69.52 69.72H69.03L73.71 101.97C73.84 102.83 73.62 103.7 73.09 104.4C72.57 105.1 71.7999 105.55 70.9399 105.68C70.7599 105.72 70.6 105.74 70.45 105.74Z" fill="white"/>
<path d="M89.9 88.1601L106.55 88.1701L108.65 102.64C108.73 103.2 109.26 103.59 109.83 103.52C110.4 103.44 110.79 102.91 110.71 102.34L105.66 67.5401H108.73C109.42 67.5401 110.08 67.2702 110.57 66.7802C111.06 66.2902 111.33 65.6401 111.33 64.9401C111.33 64.2401 111.06 63.5901 110.57 63.1001C110.08 62.6101 109.43 62.3401 108.73 62.3401L87.74 62.3301C87.05 62.3301 86.39 62.6001 85.9 63.0901C85.41 63.5801 85.14 64.2301 85.14 64.9301C85.14 66.3601 86.31 67.5302 87.74 67.5302H90.81L85.73 102.33C85.65 102.9 86.04 103.43 86.61 103.51C86.67 103.52 86.72 103.52 86.76 103.52C87.27 103.52 87.71 103.14 87.79 102.63L89.9 88.1601ZM109.68 105.76C108.07 105.76 106.68 104.55 106.45 102.96L104.63 90.4001L91.84 90.3901L90 102.95C89.74 104.7 88.08 105.99 86.28 105.71C84.5 105.45 83.26 103.79 83.52 102L88.23 69.7501H87.74C85.08 69.7501 82.91 67.5801 82.92 64.9201C82.92 63.6301 83.42 62.4201 84.34 61.5101C85.25 60.6001 86.46 60.1001 87.75 60.1001L108.74 60.1101C110.03 60.1101 111.24 60.6102 112.15 61.5302C113.06 62.4402 113.56 63.6501 113.56 64.9501C113.56 66.2401 113.06 67.4501 112.14 68.3601C111.23 69.2701 110.02 69.7701 108.73 69.7701H108.24L112.92 102.02C113.18 103.81 111.94 105.47 110.15 105.73C109.99 105.75 109.83 105.76 109.68 105.76Z" fill="white"/>
<path d="M53.55 83.82L64.44 83.83L62.39 69.74H55.61L53.55 83.82ZM67.02 86.06L50.98 86.05L53.69 67.5H64.33L67.02 86.06Z" fill="white"/>
<path d="M129.14 88.1801L145.79 88.1901L147.89 102.66C147.97 103.22 148.5 103.63 149.07 103.54C149.64 103.46 150.04 102.93 149.95 102.36L144.91 67.5601H147.98C148.67 67.5601 149.32 67.2901 149.82 66.8001C150.31 66.3101 150.58 65.6601 150.58 64.9601C150.58 63.5301 149.41 62.3601 147.98 62.3601L126.99 62.3501C125.56 62.3501 124.39 63.5201 124.39 64.9501C124.39 65.6401 124.66 66.3001 125.15 66.7901C125.64 67.2801 126.29 67.5501 126.99 67.5501H130.06L124.98 102.35C124.9 102.92 125.29 103.45 125.86 103.53C125.92 103.54 125.97 103.54 126.01 103.54C126.52 103.54 126.97 103.16 127.04 102.65L129.14 88.1801ZM148.91 105.78C147.3 105.78 145.91 104.58 145.68 102.98L143.86 90.4201L131.07 90.4101L129.24 102.97C128.98 104.72 127.31 106.01 125.52 105.73C124.67 105.61 123.9 105.15 123.38 104.45C122.86 103.75 122.64 102.89 122.77 102.02L127.48 69.7701H126.99C125.7 69.7701 124.49 69.2701 123.58 68.3501C122.67 67.4401 122.17 66.2201 122.17 64.9301C122.17 62.2701 124.34 60.1001 127 60.1001L147.99 60.1101C150.65 60.1101 152.82 62.2801 152.81 64.9401C152.81 66.2301 152.31 67.4401 151.39 68.3501C150.48 69.2601 149.27 69.7601 147.98 69.7601H147.97H147.48L152.16 102.01C152.42 103.79 151.17 105.46 149.39 105.72C149.23 105.77 149.07 105.78 148.91 105.78Z" fill="white"/>
<path d="M92.7899 83.85L103.68 83.86L101.64 69.77H94.8499L92.7899 83.85ZM106.25 86.08L90.21 86.07L92.9199 67.52H103.56L106.25 86.08Z" fill="white"/>
<path d="M132.02 83.8701L142.91 83.8801L140.87 69.79H134.08L132.02 83.8701ZM145.48 86.1L129.44 86.0901L132.15 67.54H142.79L145.48 86.1Z" fill="white"/>
<path d="M162.49 14.7202H145.33V16.7202H161.49V111.23H35V16.7202H51.16V14.7202H34C33.45 14.7202 33 15.1702 33 15.7202V112.22C33 112.77 33.45 113.22 34 113.22H162.49C163.04 113.22 163.49 112.77 163.49 112.22V15.7202C163.48 15.1602 163.04 14.7202 162.49 14.7202Z" fill="white"/>
<path d="M52.27 28.4503H144.22V2.98022H52.27V28.4503ZM145.33 30.6802H51.15C50.53 30.6802 50.03 30.1803 50.03 29.5703V1.87024C50.03 1.25024 50.53 0.760254 51.15 0.760254H145.33C145.95 0.760254 146.44 1.26024 146.44 1.87024V29.5703C146.44 30.1803 145.95 30.6802 145.33 30.6802Z" fill="white"/>
<path d="M154.21 51.8103H42.27C41.65 51.8103 41.1599 51.3103 41.1599 50.7003C41.1599 50.0803 41.66 49.5903 42.27 49.5903H154.2C154.82 49.5903 155.31 50.0903 155.31 50.7003C155.32 51.3103 154.82 51.8103 154.21 51.8103Z" fill="white"/>
<path d="M52.8901 128.74C52.8901 126 54.9101 124.13 57.4801 124.13C59.0601 124.13 60.1501 124.88 60.8601 125.89L59.9401 126.41C59.4301 125.65 58.4901 125.11 57.4801 125.11C55.5301 125.11 54.0401 126.59 54.0401 128.73C54.0401 130.84 55.5201 132.35 57.4801 132.35C58.4901 132.35 59.4301 131.8 59.9401 131.06L60.8701 131.57C60.1201 132.6 59.0501 133.35 57.4801 133.35C54.9101 133.35 52.8901 131.48 52.8901 128.74Z" fill="white"/>
<path d="M67.2101 129.96C67.2101 128.65 66.4501 127.47 65.0701 127.47C63.6901 127.47 62.9301 128.64 62.9301 129.96C62.9301 131.28 63.6901 132.46 65.0701 132.46C66.4501 132.45 67.2101 131.28 67.2101 129.96ZM61.8801 129.96C61.8801 128.09 63.1101 126.58 65.0701 126.58C67.0401 126.58 68.2701 128.09 68.2701 129.96C68.2701 131.83 67.0401 133.36 65.0701 133.36C63.1101 133.35 61.8801 131.83 61.8801 129.96Z" fill="white"/>
<path d="M74.2802 133.19V128.97C74.2802 127.82 73.6902 127.47 72.8202 127.47C72.0302 127.47 71.3002 127.95 70.9102 128.47V133.19H69.9102V126.73H70.9102V127.67C71.3702 127.12 72.2502 126.57 73.2202 126.57C74.5602 126.57 75.2602 127.25 75.2602 128.66V133.19H74.2802Z" fill="white"/>
<path d="M76.74 132.33L77.25 131.61C77.68 132.1 78.49 132.53 79.38 132.53C80.37 132.53 80.92 132.06 80.92 131.42C80.92 129.86 76.92 130.82 76.92 128.43C76.92 127.41 77.77 126.57 79.31 126.57C80.42 126.57 81.19 126.99 81.7 127.5L81.23 128.2C80.84 127.73 80.15 127.38 79.31 127.38C78.43 127.38 77.88 127.82 77.88 128.4C77.88 129.8 81.88 128.88 81.88 131.39C81.88 132.47 81.01 133.34 79.35 133.34C78.28 133.35 77.39 133.02 76.74 132.33Z" fill="white"/>
<path d="M88.4701 129.96C88.4701 128.65 87.7101 127.47 86.3301 127.47C84.9501 127.47 84.1901 128.64 84.1901 129.96C84.1901 131.28 84.9501 132.46 86.3301 132.46C87.7101 132.45 88.4701 131.28 88.4701 129.96ZM83.1301 129.96C83.1301 128.09 84.3601 126.58 86.3201 126.58C88.2901 126.58 89.5201 128.09 89.5201 129.96C89.5201 131.83 88.2901 133.36 86.3201 133.36C84.3601 133.35 83.1301 131.83 83.1301 129.96Z" fill="white"/>
<path d="M98.9502 133.19V128.81C98.9502 127.99 98.6002 127.47 97.7602 127.47C97.0902 127.47 96.3802 127.94 96.0502 128.46V133.19H95.0502V128.81C95.0502 127.99 94.7202 127.47 93.8602 127.47C93.2002 127.47 92.5102 127.95 92.1602 128.47V133.19H91.1602V126.73H92.1602V127.67C92.4402 127.26 93.3002 126.57 94.2602 126.57C95.2402 126.57 95.8002 127.11 95.9802 127.77C96.3402 127.18 97.2102 126.57 98.1502 126.57C99.3302 126.57 99.9502 127.22 99.9502 128.52V133.18H98.9502V133.19Z" fill="white"/>
<path d="M109.76 133.19V128.81C109.76 127.99 109.41 127.47 108.57 127.47C107.9 127.47 107.19 127.94 106.86 128.46V133.19H105.86V128.81C105.86 127.99 105.53 127.47 104.67 127.47C104.01 127.47 103.32 127.95 102.97 128.47V133.19H101.97V126.73H102.97V127.67C103.25 127.26 104.11 126.57 105.07 126.57C106.05 126.57 106.61 127.11 106.79 127.77C107.15 127.18 108.02 126.57 108.96 126.57C110.14 126.57 110.76 127.22 110.76 128.52V133.18H109.76V133.19Z" fill="white"/>
<path d="M116.81 131.83V130.6C116.42 130.08 115.74 129.81 115.05 129.81C114.1 129.81 113.45 130.4 113.45 131.21C113.45 132.04 114.1 132.63 115.05 132.63C115.74 132.63 116.42 132.36 116.81 131.83ZM116.81 133.19V132.45C116.29 133.04 115.54 133.35 114.67 133.35C113.59 133.35 112.43 132.61 112.43 131.21C112.43 129.75 113.58 129.09 114.67 129.09C115.55 129.09 116.29 129.37 116.81 129.96V128.8C116.81 127.94 116.11 127.45 115.18 127.45C114.4 127.45 113.77 127.72 113.2 128.35L112.73 127.65C113.43 126.93 114.25 126.58 115.31 126.58C116.69 126.58 117.81 127.19 117.81 128.76V133.2H116.81V133.19Z" fill="white"/>
<path d="M120.03 131.84V127.62H118.96V126.74H120.03V124.98H121.05V126.74H122.36V127.62H121.05V131.63C121.05 132.11 121.26 132.46 121.69 132.46C121.98 132.46 122.24 132.33 122.37 132.18L122.66 132.94C122.4 133.18 122.05 133.36 121.47 133.36C120.52 133.35 120.03 132.8 120.03 131.84Z" fill="white"/>
<path d="M123.77 126.73H124.77V133.19H123.77V126.73ZM123.59 125.14C123.59 124.77 123.9 124.46 124.27 124.46C124.65 124.46 124.94 124.77 124.94 125.14C124.94 125.51 124.65 125.81 124.27 125.81C123.9 125.81 123.59 125.52 123.59 125.14Z" fill="white"/>
<path d="M131.73 129.96C131.73 128.65 130.97 127.47 129.59 127.47C128.21 127.47 127.45 128.64 127.45 129.96C127.45 131.28 128.21 132.46 129.59 132.46C130.97 132.45 131.73 131.28 131.73 129.96ZM126.4 129.96C126.4 128.09 127.63 126.58 129.59 126.58C131.56 126.58 132.79 128.09 132.79 129.96C132.79 131.83 131.56 133.36 129.59 133.36C127.63 133.35 126.4 131.83 126.4 129.96Z" fill="white"/>
<path d="M138.8 133.19V128.97C138.8 127.82 138.21 127.47 137.34 127.47C136.55 127.47 135.82 127.95 135.43 128.47V133.19H134.43V126.73H135.43V127.67C135.89 127.12 136.77 126.57 137.74 126.57C139.08 126.57 139.79 127.25 139.79 128.66V133.19H138.8Z" fill="white"/>
<path d="M6.08008 146.71C6.08008 145.89 5.52005 145.17 4.43005 145.17H1.69006V148.24H4.43005C5.46005 148.25 6.08008 147.66 6.08008 146.71ZM5.90009 142.76C5.90009 141.96 5.37005 141.32 4.36005 141.32H1.68005V144.19H4.36005C5.37005 144.19 5.90009 143.57 5.90009 142.76ZM0.590088 149.24V140.32H4.56006C6.11006 140.32 7.06006 141.26 7.06006 142.59C7.06006 143.71 6.31006 144.46 5.50006 144.63C6.45006 144.78 7.24005 145.75 7.24005 146.82C7.24005 148.25 6.29003 149.23 4.66003 149.23H0.590088V149.24Z" fill="white"/>
<path d="M12.35 141.46L10.4601 146.27H14.2401L12.35 141.46ZM15.36 149.24L14.5701 147.25H10.1301L9.34009 149.24H8.07007L11.67 140.32H13.05L16.6301 149.24H15.36Z" fill="white"/>
<path d="M23.04 143.01C23.04 141.99 22.3001 141.31 21.2501 141.31H18.91V144.72H21.2501C22.3001 144.72 23.04 144.01 23.04 143.01ZM22.9601 149.24L20.7001 145.7H18.91V149.24H17.8V140.32H21.3801C23.0101 140.32 24.1901 141.36 24.1901 143.01C24.1901 144.61 23.08 145.5 21.86 145.6L24.2701 149.24H22.9601V149.24Z" fill="white"/>
<path d="M25.4102 147.98L26.0802 147.13C26.6602 147.8 27.6202 148.41 28.8702 148.41C30.4602 148.41 30.9702 147.55 30.9702 146.86C30.9702 144.56 25.6902 145.84 25.6902 142.66C25.6902 141.19 27.0002 140.17 28.7602 140.17C30.1102 140.17 31.1702 140.64 31.9102 141.43L31.2402 142.25C30.5702 141.5 29.6402 141.18 28.6602 141.18C27.6002 141.18 26.8302 141.76 26.8302 142.6C26.8302 144.61 32.1102 143.46 32.1102 146.78C32.1102 148.06 31.2302 149.4 28.8202 149.4C27.2902 149.4 26.1402 148.81 25.4102 147.98Z" fill="white"/>
<path d="M36.2 149.51L39.3699 140.06H40.1599L36.9899 149.51H36.2Z" fill="white"/>
<path d="M49.9099 143.01C49.9099 141.99 49.1799 141.31 48.1199 141.31H45.78V144.72H48.1199C49.1699 144.72 49.9099 144.01 49.9099 143.01ZM49.83 149.24L47.5699 145.7H45.78V149.24H44.6699V140.32H48.2499C49.8799 140.32 51.0599 141.36 51.0599 143.01C51.0599 144.61 49.9499 145.5 48.7299 145.6L51.14 149.24H49.83V149.24Z" fill="white"/>
<path d="M52.8101 149.24V140.32H58.66V141.31H53.92V144.19H58.5601V145.18H53.92V148.25H58.66V149.24H52.8101Z" fill="white"/>
<path d="M59.8901 147.98L60.5601 147.13C61.1401 147.8 62.1001 148.41 63.3501 148.41C64.9401 148.41 65.4501 147.55 65.4501 146.86C65.4501 144.56 60.1701 145.84 60.1701 142.66C60.1701 141.19 61.4801 140.17 63.2401 140.17C64.5901 140.17 65.6501 140.64 66.3901 141.43L65.7201 142.25C65.0501 141.5 64.1201 141.18 63.1401 141.18C62.0801 141.18 61.3101 141.76 61.3101 142.6C61.3101 144.61 66.5901 143.46 66.5901 146.78C66.5901 148.06 65.7101 149.4 63.3001 149.4C61.7701 149.4 60.6201 148.81 59.8901 147.98Z" fill="white"/>
<path d="M70.3901 149.24V141.31H67.5701V140.32H74.3301V141.31H71.5001V149.24H70.3901Z" fill="white"/>
<path d="M78.26 141.46L76.37 146.27H80.15L78.26 141.46ZM81.27 149.24L80.48 147.25H76.04L75.25 149.24H73.98L77.58 140.32H78.96L82.54 149.24H81.27Z" fill="white"/>
<path d="M83.3599 145.78V140.33H84.4799V145.76C84.4799 147.39 85.3499 148.42 86.9899 148.42C88.6399 148.42 89.5199 147.39 89.5199 145.76V140.33H90.6399V145.77C90.6399 147.99 89.4099 149.41 86.9899 149.41C84.5899 149.4 83.3599 147.97 83.3599 145.78Z" fill="white"/>
<path d="M97.9797 143.01C97.9797 141.99 97.2498 141.31 96.1898 141.31H93.8497V144.72H96.1898C97.2398 144.72 97.9797 144.01 97.9797 143.01ZM97.8998 149.24L95.6398 145.7H93.8497V149.24H92.7397V140.32H96.3198C97.9498 140.32 99.1298 141.36 99.1298 143.01C99.1298 144.61 98.0197 145.5 96.7997 145.6L99.2098 149.24H97.8998V149.24Z" fill="white"/>
<path d="M104.24 141.46L102.35 146.27H106.13L104.24 141.46ZM107.25 149.24L106.46 147.25H102.02L101.23 149.24H99.96L103.56 140.32H104.94L108.52 149.24H107.25Z" fill="white"/>
<path d="M115.99 149.24L110.79 142.13V149.24H109.68V140.32H110.82L115.95 147.29V140.32H117.06V149.24H115.99Z" fill="white"/>
<path d="M121.36 149.24V141.31H118.54V140.32H125.3V141.31H122.47V149.24H121.36Z" fill="white"/>
<path d="M126.2 147.98L126.87 147.13C127.45 147.8 128.41 148.41 129.66 148.41C131.25 148.41 131.76 147.55 131.76 146.86C131.76 144.56 126.48 145.84 126.48 142.66C126.48 141.19 127.79 140.17 129.55 140.17C130.9 140.17 131.96 140.64 132.7 141.43L132.03 142.25C131.36 141.5 130.43 141.18 129.45 141.18C128.39 141.18 127.62 141.76 127.62 142.6C127.62 144.61 132.9 143.46 132.9 146.78C132.9 148.06 132.02 149.4 129.61 149.4C128.09 149.4 126.94 148.81 126.2 147.98Z" fill="white"/>
<path d="M136.99 149.51L140.16 140.06H140.95L137.78 149.51H136.99Z" fill="white"/>
<path d="M151.78 149.24V145.15H146.57V149.24H145.46V140.32H146.57V144.16H151.78V140.32H152.89V149.24H151.78Z" fill="white"/>
<path d="M160.17 139.51L159.06 138.09L157.99 139.51H157.31L158.58 137.58H159.54L160.85 139.51H160.17ZM162.34 144.79C162.34 142.7 161.04 141.17 159.05 141.17C157.04 141.17 155.78 142.71 155.78 144.79C155.78 146.86 157.05 148.41 159.05 148.41C161.04 148.41 162.34 146.86 162.34 144.79ZM154.62 144.79C154.62 142.16 156.41 140.18 159.04 140.18C161.67 140.18 163.48 142.16 163.48 144.79C163.48 147.42 161.68 149.4 159.04 149.4C156.41 149.4 154.62 147.42 154.62 144.79Z" fill="white"/>
<path d="M167.06 149.24V141.31H164.24V140.32H171V141.31H168.17V149.24H167.06Z" fill="white"/>
<path d="M172.48 149.24V140.32H178.32V141.31H173.59V144.19H178.23V145.18H173.59V148.25H178.32V149.24H172.48Z" fill="white"/>
<path d="M179.94 149.24V140.32H181.05V148.25H185.19V149.24H179.94Z" fill="white"/>
<path d="M186.15 147.98L186.82 147.13C187.4 147.8 188.36 148.41 189.61 148.41C191.2 148.41 191.71 147.55 191.71 146.86C191.71 144.56 186.43 145.84 186.43 142.66C186.43 141.19 187.74 140.17 189.5 140.17C190.85 140.17 191.91 140.64 192.66 141.43L191.99 142.25C191.32 141.5 190.39 141.18 189.41 141.18C188.35 141.18 187.58 141.76 187.58 142.6C187.58 144.61 192.86 143.46 192.86 146.78C192.86 148.06 191.98 149.4 189.57 149.4C188.03 149.4 186.88 148.81 186.15 147.98Z" fill="white"/>
<path d="M63.4899 163.53V160.61C63.1399 160.05 62.3499 159.57 61.5599 159.57C60.2499 159.57 59.4699 160.64 59.4699 162.07C59.4699 163.5 60.2499 164.56 61.5599 164.56C62.3599 164.56 63.1399 164.09 63.4899 163.53ZM63.4899 165.29V164.33C63.0099 164.98 62.2199 165.45 61.3099 165.45C59.6299 165.45 58.4299 164.17 58.4299 162.07C58.4299 160 59.6199 158.67 61.3099 158.67C62.1799 158.67 62.9699 159.1 63.4899 159.81V156.38H64.4899V165.29H63.4899Z" fill="white"/>
<path d="M69.2999 159.5C67.9199 159.5 67.2399 160.66 67.1899 161.64H71.4299C71.4099 160.69 70.7699 159.5 69.2999 159.5ZM66.1299 162.06C66.1299 160.19 67.4699 158.68 69.3099 158.68C71.2599 158.68 72.4099 160.2 72.4099 162.14V162.4H67.1999C67.2799 163.62 68.1199 164.63 69.5099 164.63C70.2599 164.63 70.9899 164.34 71.5199 163.8L71.9999 164.46C71.3499 165.1 70.4799 165.46 69.4299 165.46C67.5099 165.45 66.1299 164.07 66.1299 162.06Z" fill="white"/>
<path d="M85.16 165.29V157.79L82.1301 165.29H81.6801L78.6501 157.79V165.29H77.54V156.38H79.1301L81.91 163.25L84.67 156.38H86.2701V165.29H85.16Z" fill="white"/>
<path d="M92.3502 163.93V162.7C91.9602 162.18 91.2803 161.91 90.5903 161.91C89.6403 161.91 88.9902 162.5 88.9902 163.31C88.9902 164.14 89.6403 164.73 90.5903 164.73C91.2803 164.73 91.9702 164.46 92.3502 163.93ZM92.3502 165.29V164.56C91.8302 165.15 91.0803 165.45 90.2103 165.45C89.1303 165.45 87.9702 164.72 87.9702 163.31C87.9702 161.85 89.1203 161.18 90.2103 161.18C91.0903 161.18 91.8302 161.46 92.3502 162.05V160.89C92.3502 160.03 91.6502 159.54 90.7202 159.54C89.9402 159.54 89.3102 159.81 88.7402 160.44L88.2703 159.74C88.9703 159.02 89.7902 158.67 90.8502 158.67C92.2302 158.67 93.3502 159.28 93.3502 160.85V165.29H92.3502V165.29Z" fill="white"/>
<path d="M95.3804 165.29V158.83H96.3804V159.86C96.9004 159.19 97.6504 158.68 98.5304 158.68V159.71C98.4104 159.7 98.2904 159.68 98.1404 159.68C97.5104 159.68 96.6704 160.19 96.3704 160.71V165.28H95.3804V165.29Z" fill="white"/>
<path d="M99.9902 163.94V159.72H98.9202V158.84H99.9902V157.08H101.01V158.84H102.32V159.72H101.01V163.73C101.01 164.21 101.22 164.56 101.65 164.56C101.94 164.56 102.2 164.42 102.33 164.28L102.62 165.04C102.36 165.28 102.01 165.45 101.43 165.45C100.47 165.45 99.9902 164.9 99.9902 163.94Z" fill="white"/>
<path d="M103.72 158.83H104.72V165.29H103.72V158.83ZM103.55 157.24C103.55 156.86 103.86 156.56 104.23 156.56C104.61 156.56 104.9 156.87 104.9 157.24C104.9 157.61 104.61 157.91 104.23 157.91C103.86 157.91 103.55 157.62 103.55 157.24Z" fill="white"/>
<path d="M111.1 165.29V161.07C111.1 159.92 110.51 159.57 109.64 159.57C108.85 159.57 108.12 160.05 107.73 160.57V165.29H106.73V158.83H107.73V159.77C108.19 159.22 109.07 158.67 110.04 158.67C111.38 158.67 112.09 159.35 112.09 160.76V165.29H111.1Z" fill="white"/>
<path d="M114.12 158.83H115.12V165.29H114.12V158.83ZM113.94 157.24C113.94 156.86 114.25 156.56 114.62 156.56C115 156.56 115.29 156.87 115.29 157.24C115.29 157.61 115 157.91 114.62 157.91C114.25 157.91 113.94 157.62 113.94 157.24Z" fill="white"/>
<path d="M121.76 163.51V160.6C121.41 160.04 120.62 159.57 119.83 159.57C118.53 159.57 117.76 160.63 117.76 162.06C117.76 163.49 118.54 164.56 119.83 164.56C120.63 164.56 121.42 164.07 121.76 163.51ZM116.71 162.06C116.71 159.96 117.89 158.68 119.59 158.68C120.5 158.68 121.3 159.15 121.77 159.8V158.84H122.77V167.76H121.77V164.32C121.23 165.03 120.47 165.46 119.59 165.46C117.89 165.45 116.71 164.14 116.71 162.06Z" fill="white"/>
<path d="M129.13 165.29V164.38C128.63 164.94 127.79 165.45 126.83 165.45C125.48 165.45 124.77 164.78 124.77 163.39V158.83H125.77V163.08C125.77 164.22 126.35 164.55 127.23 164.55C128 164.55 128.75 164.09 129.13 163.57V158.82H130.13V165.28H129.13V165.29Z" fill="white"/>
<path d="M134.94 159.5C133.56 159.5 132.88 160.66 132.83 161.64H137.07C137.05 160.69 136.41 159.5 134.94 159.5ZM131.77 162.06C131.77 160.19 133.11 158.68 134.95 158.68C136.9 158.68 138.05 160.2 138.05 162.14V162.4H132.84C132.92 163.62 133.76 164.63 135.15 164.63C135.9 164.63 136.63 164.34 137.16 163.8L137.64 164.46C136.99 165.1 136.12 165.46 135.07 165.46C133.15 165.45 131.77 164.07 131.77 162.06Z" fill="white"/>
<path d="M89.39 17.5001C89.39 16.6901 88.8199 15.9901 87.7499 15.9901H84.6099V19.0201H87.7499C88.7699 19.0101 89.39 18.4401 89.39 17.5001ZM89.1699 12.91C89.1699 12.11 88.6199 11.5101 87.6599 11.5101H84.5999V14.3101H87.6599C88.6199 14.3101 89.1699 13.74 89.1699 12.91ZM82.7 20.6901V9.83008H88.0399C90.0399 9.83008 91.1299 11.07 91.1299 12.6C91.1299 13.95 90.2499 14.8801 89.2399 15.0901C90.4099 15.2701 91.34 16.4301 91.34 17.7401C91.34 19.4301 90.2299 20.6901 88.1799 20.6901H82.7Z" fill="white"/>
<path d="M98.14 11.7401L96.1899 16.92H100.1L98.14 11.7401ZM101.42 20.6901L100.62 18.5901H95.64L94.84 20.6901H92.6699L96.9299 9.83008H99.3099L103.58 20.6901H101.42Z" fill="white"/>
<path d="M111.69 13.22C111.69 12.18 110.91 11.5101 109.84 11.5101H107.22V14.9601H109.84C110.91 14.9601 111.69 14.28 111.69 13.22ZM111.51 20.6901L109.12 16.6401H107.22V20.6901H105.32V9.83008H110.09C112.24 9.83008 113.65 11.21 113.65 13.23C113.65 15.15 112.38 16.21 111.06 16.42L113.73 20.6801H111.51V20.6901Z" fill="white"/>
</svg>
