<svg width="130" height="129" viewBox="0 0 130 129" fill="none" xmlns="http://www.w3.org/2000/svg">
<path d="M71.88 47.3104H57.28V45.5604C57.28 42.5704 59.09 39.8804 61.9 38.7604C62.21 38.6404 62.4 38.2604 62.27 37.9504C62.08 37.7004 61.71 37.5704 61.4 37.7004C61.03 37.8204 60.71 38.0104 60.4 38.2004L62.4 25.6604H66.83L68.76 38.2004C68.51 38.0804 68.26 37.8904 67.95 37.8304C67.64 37.7104 67.26 37.8304 67.14 38.1404C67.02 38.4504 67.14 38.8304 67.45 38.9504C70.13 40.1304 71.88 42.7604 71.88 45.6204V47.3104V47.3104ZM70.44 73.3904H58.71C57.9 73.3904 57.28 72.7704 57.28 71.9604V67.5304H71.88V71.9604C71.88 72.7604 71.19 73.3904 70.44 73.3904ZM71.88 66.2704H57.28V48.5504H71.88V66.2704ZM62.02 23.2304H67.14L67.26 24.4204H61.83L62.02 23.2304ZM70.19 39.1404L68.13 25.6004C68.25 25.6004 68.38 25.5404 68.51 25.4104C68.63 25.2904 68.7 25.1004 68.63 24.9104L68.38 22.9804C68.32 22.3604 67.76 21.9204 67.19 21.9204H62.01C61.39 21.9204 60.89 22.3604 60.83 22.9804L60.58 24.9104C60.58 25.1004 60.64 25.2804 60.7 25.4104C60.82 25.5304 61.01 25.6004 61.14 25.6004L58.96 39.1404C57.09 40.7004 56.03 43.0704 56.03 45.6304V71.9604C56.03 73.4604 57.22 74.6404 58.71 74.6404H70.38C71.88 74.6404 73.06 73.4604 73.06 71.9604V45.6304C73.12 43.0704 72 40.7604 70.19 39.1404Z" fill="white"/>
<path d="M62.16 24.1301H66.95L66.88 23.5001H62.25L62.16 24.1301ZM67.57 24.6901H61.51L61.78 22.9501H67.38L67.57 24.6901ZM57.56 47.0301H71.6V45.6201C71.6 42.8601 69.93 40.3401 67.34 39.2001C67.13 39.1201 66.96 38.9401 66.87 38.7101C66.79 38.4901 66.79 38.2501 66.88 38.0301C67.06 37.5801 67.59 37.3801 68.05 37.5601C68.17 37.5801 68.28 37.6301 68.4 37.6801L66.59 25.9301H62.64L60.77 37.6601C60.94 37.5701 61.12 37.4901 61.31 37.4301C61.71 37.2701 62.22 37.4201 62.49 37.7801L62.53 37.8401C62.71 38.2901 62.47 38.8301 62 39.0101C59.3 40.0901 57.56 42.6601 57.56 45.5501V47.0301V47.0301ZM72.16 47.5901H57V45.5701C57 42.4501 58.88 39.6701 61.79 38.5101C61.95 38.4401 62.06 38.2501 62.02 38.1001C61.89 37.9601 61.67 37.9001 61.5 37.9701C61.14 38.0901 60.85 38.2601 60.54 38.4501L60.03 38.7601L62.16 25.4001H67.07L69.12 38.7101L68.64 38.4701C68.56 38.4301 68.49 38.3901 68.41 38.3501C68.24 38.2501 68.07 38.1601 67.89 38.1201C67.68 38.0401 67.46 38.0901 67.39 38.2601C67.36 38.3501 67.35 38.4501 67.38 38.5401C67.4 38.6001 67.45 38.6801 67.54 38.7101C70.34 39.9501 72.14 42.6701 72.14 45.6401V47.5901H72.16ZM57.56 66.0001H71.6V48.8401H57.56V66.0001ZM72.16 66.5501H57V48.2801H72.16V66.5501ZM57.56 67.8001V71.9501C57.56 72.6101 58.06 73.1101 58.72 73.1101H70.45C71.08 73.1101 71.61 72.5801 71.61 71.9501V67.8001H57.56ZM70.44 73.6601H58.71C57.75 73.6601 57 72.9101 57 71.9501V67.2401H72.16V71.9501C72.16 72.8801 71.37 73.6601 70.44 73.6601ZM60.94 25.2401C61.01 25.2901 61.1 25.3201 61.15 25.3201H61.48L59.23 39.2901L59.15 39.3601C57.35 40.8601 56.32 43.1501 56.32 45.6301V71.9601C56.32 73.3101 57.38 74.3701 58.72 74.3701H70.39C71.74 74.3701 72.79 73.3101 72.79 71.9601V45.6301C72.85 43.2701 71.83 40.9801 70.01 39.3501L69.93 39.2801L69.92 39.1801L67.81 25.3201H68.13C68.19 25.3201 68.27 25.2501 68.31 25.2201C68.33 25.2001 68.4 25.1201 68.37 25.0001L68.11 23.0201C68.06 22.5101 67.6 22.2001 67.2 22.2001H62.02C61.53 22.2001 61.16 22.5301 61.11 23.0101L60.86 24.9501C60.86 25.0301 60.9 25.1501 60.94 25.2401ZM70.38 74.9101H58.71C57.05 74.9101 55.75 73.6101 55.75 71.9501V45.6201C55.75 43.0001 56.82 40.5901 58.7 38.9901L60.82 25.8101C60.71 25.7701 60.6 25.7001 60.5 25.6001L60.45 25.5301C60.4 25.4401 60.3 25.1901 60.3 24.9101L60.55 22.9401C60.63 22.1901 61.24 21.6401 62.01 21.6401H67.19C67.94 21.6401 68.58 22.2201 68.65 22.9501L68.9 24.8801C68.98 25.1001 68.9 25.4001 68.69 25.6101C68.61 25.6901 68.52 25.7601 68.43 25.8001L70.44 39.0001C72.34 40.7401 73.39 43.1501 73.33 45.6401V71.9601C73.34 73.6101 72.04 74.9101 70.38 74.9101Z" fill="white"/>
<path d="M59.15 43.5001C58.84 43.4401 58.46 43.6201 58.4 44.0001C58.34 44.1901 58.34 44.3701 58.34 44.6201C58.34 44.9901 58.59 45.2401 58.9 45.3101H58.96C59.27 45.3101 59.58 45.0601 59.58 44.7501C59.58 44.6301 59.58 44.4401 59.64 44.3101C59.71 43.8801 59.52 43.5601 59.15 43.5001Z" fill="white"/>
<path d="M59.03 43.7703C58.95 43.7703 58.87 43.7903 58.81 43.8403C58.74 43.8903 58.69 43.9603 58.68 44.0503C58.62 44.2403 58.62 44.3903 58.62 44.6303C58.62 44.8903 58.7901 45.0103 58.9601 45.0403C59.1401 45.0303 59.31 44.8903 59.31 44.7503C59.31 44.6103 59.3101 44.4103 59.3801 44.2403C59.4001 44.0503 59.37 43.8203 59.11 43.7803H59.1001C59.0701 43.7703 59.05 43.7703 59.03 43.7703ZM58.9601 45.5903H58.84C58.37 45.5003 58.05 45.1103 58.05 44.6303C58.05 44.3703 58.0501 44.1503 58.1301 43.9203C58.1601 43.7303 58.2901 43.5203 58.4901 43.3803C58.7001 43.2403 58.95 43.1803 59.2 43.2303C59.72 43.3203 60.01 43.7703 59.92 44.3503L59.89 44.4303C59.86 44.5003 59.86 44.6603 59.86 44.7403C59.87 45.2003 59.4401 45.5903 58.9601 45.5903Z" fill="white"/>
<path d="M61.27 40.3803C61.21 40.3803 60.27 40.8803 59.52 41.8203C59.27 42.0703 59.33 42.4403 59.58 42.6903C59.7 42.8103 59.83 42.8103 60.02 42.8103C60.21 42.8103 60.4 42.7503 60.52 42.6203C61.14 41.8703 61.89 41.5003 61.89 41.5003C62.2 41.3103 62.33 40.9403 62.14 40.6903C61.96 40.4503 61.58 40.2603 61.27 40.3803Z" fill="white"/>
<path d="M61.32 40.66C61.15 40.74 60.38 41.2 59.74 41.99C59.58 42.16 59.65 42.36 59.78 42.49C59.82 42.53 59.84 42.53 60.02 42.53C60.14 42.53 60.26 42.4901 60.32 42.4201C60.96 41.6501 61.73 41.26 61.77 41.24C61.85 41.19 61.93 41.09 61.95 40.99C61.96 40.93 61.95 40.88 61.92 40.84C61.8 40.68 61.55 40.55 61.37 40.62L61.32 40.66ZM60.02 43.1C59.81 43.1 59.59 43.1001 59.39 42.8901C59.01 42.5101 58.98 41.97 59.33 41.62C59.97 40.82 60.84 40.25 61.17 40.13C61.62 39.95 62.12 40.2 62.37 40.53C62.49 40.7 62.54 40.91 62.5 41.12C62.45 41.37 62.28 41.6 62.04 41.75C62.01 41.76 61.31 42.12 60.74 42.81C60.55 43 60.3 43.1 60.02 43.1Z" fill="white"/>
<path d="M58.4699 23.1901C58.3299 23.1901 58.1999 23.1401 58.0899 23.0501L51.1099 16.9601C50.8699 16.7501 50.8399 16.3801 51.0599 16.1401C51.2799 15.9001 51.6399 15.8801 51.8799 16.0901L58.8599 22.1801C59.0999 22.3901 59.1299 22.7601 58.9199 23.0001C58.7899 23.1201 58.6299 23.1901 58.4699 23.1901Z" fill="white"/>
<path d="M70.96 22.4004C70.8 22.4004 70.64 22.3304 70.52 22.2004C70.31 21.9604 70.3399 21.5904 70.5799 21.3804L74.0799 18.3504C74.3199 18.1404 74.6899 18.1704 74.8999 18.4104C75.1099 18.6504 75.0799 19.0204 74.8399 19.2304L71.3399 22.2604C71.2299 22.3504 71.1 22.4004 70.96 22.4004Z" fill="white"/>
<path d="M76.4 17.6901C76.25 17.6901 76.09 17.6301 75.98 17.5101C75.76 17.2801 75.77 16.9101 76 16.6901L76.86 15.8801C77.09 15.6601 77.46 15.6701 77.68 15.9001C77.9 16.1301 77.89 16.5001 77.66 16.7201L76.8 17.5301C76.69 17.6401 76.54 17.6901 76.4 17.6901Z" fill="white"/>
<path d="M75.7499 27.8901C75.4799 27.8901 75.2299 27.7001 75.1799 27.4201C75.1199 27.1101 75.3299 26.8001 75.6399 26.7401L80.1899 25.8701C80.4999 25.8101 80.8099 26.0201 80.8699 26.3301C80.9299 26.6501 80.7199 26.9501 80.4099 27.0101L75.8599 27.8801C75.8299 27.8801 75.7899 27.8901 75.7499 27.8901Z" fill="white"/>
<path d="M64.9099 17.1602C64.8999 17.1602 64.8899 17.1602 64.8799 17.1602C64.5599 17.1402 64.3199 16.8702 64.3299 16.5502L64.4599 14.1302C64.4799 13.8102 64.7699 13.5602 65.0699 13.5802C65.3899 13.6002 65.6399 13.8702 65.6199 14.1902L65.4899 16.6102C65.4699 16.9202 65.2199 17.1602 64.9099 17.1602Z" fill="white"/>
<path d="M52.8501 27.9204C52.8401 27.9204 52.8301 27.9204 52.8201 27.9204L48.2001 27.6904C47.8801 27.6704 47.63 27.4004 47.65 27.0804C47.66 26.7604 47.94 26.5104 48.26 26.5304L52.8801 26.7604C53.2001 26.7804 53.45 27.0504 53.43 27.3704C53.42 27.6804 53.1601 27.9204 52.8501 27.9204Z" fill="white"/>
<path d="M53.73 35.76C53.56 35.76 53.4 35.68 53.3 35.52C53.15 35.28 53.23 34.97 53.46 34.83L56.42 33.01C56.66 32.86 56.96 32.94 57.11 33.17C57.26 33.41 57.18 33.72 56.95 33.86L53.99 35.68C53.91 35.74 53.82 35.76 53.73 35.76Z" fill="white"/>
<path d="M51.33 37.2003C51.16 37.2003 51 37.1203 50.9 36.9603C50.75 36.7303 50.82 36.4103 51.06 36.2703L51.69 35.8703C51.93 35.7203 52.24 35.7903 52.38 36.0303C52.53 36.2703 52.45 36.5803 52.22 36.7203L51.59 37.1103C51.52 37.1703 51.42 37.2003 51.33 37.2003Z" fill="white"/>
<path d="M75.61 35.2803C75.51 35.2803 75.41 35.2503 75.32 35.1903L72.48 33.1802C72.25 33.0202 72.2 32.7103 72.36 32.4803C72.52 32.2503 72.83 32.2002 73.06 32.3602L75.9 34.3702C76.13 34.5302 76.18 34.8403 76.02 35.0703C75.92 35.2103 75.77 35.2803 75.61 35.2803Z" fill="white"/>
<path d="M77.87 36.9205C77.77 36.9205 77.67 36.8905 77.58 36.8305L76.97 36.4005C76.74 36.2405 76.69 35.9305 76.85 35.7005C77.01 35.4705 77.32 35.4205 77.55 35.5805L78.16 36.0105C78.39 36.1705 78.44 36.4805 78.28 36.7105C78.19 36.8405 78.03 36.9205 77.87 36.9205Z" fill="white"/>
<path d="M66.22 61.8503C65.91 62.0303 65.59 62.1602 65.26 62.2402C65.26 62.2502 65.26 62.2702 65.26 62.2802C65.26 62.6702 64.94 62.9902 64.55 63.0002C64.16 63.0002 63.84 62.6803 63.84 62.2903C63.84 62.2803 63.84 62.2602 63.84 62.2502C63.51 62.1702 63.19 62.0402 62.88 61.8602C62.38 61.5702 61.92 61.1502 61.52 60.6302C60.73 59.5802 60.28 58.2102 60.28 56.8602C60.28 55.5402 60.71 54.4403 61.53 53.6703C62.13 53.1103 62.93 52.7502 63.84 52.6202C63.84 52.6002 63.84 52.5903 63.84 52.5703C63.84 52.1803 64.16 51.8602 64.55 51.8602C64.94 51.8602 65.26 52.1803 65.26 52.5703C65.26 52.5903 65.26 52.6002 65.26 52.6202C66.16 52.7402 66.96 53.1003 67.57 53.6703C68.39 54.4303 68.82 55.5303 68.83 56.8503C68.83 58.2003 68.38 59.5702 67.59 60.6202C67.18 61.1402 66.73 61.5603 66.22 61.8503ZM65.36 52.5103C65.33 52.0803 64.98 51.7402 64.55 51.7402C64.12 51.7402 63.76 52.0803 63.73 52.5103C61.61 52.8403 60 54.3103 60 56.8503C60 59.3803 61.61 61.8102 63.74 62.3402C63.77 62.7602 64.12 63.1003 64.55 63.1003C64.98 63.1003 65.33 62.7602 65.36 62.3402C67.48 61.8102 69.09 59.3803 69.09 56.8503C69.09 54.3103 67.48 52.8303 65.36 52.5103Z" fill="white"/>
<path d="M64.55 58.0604V62.8004C64.25 62.8004 64.01 62.5604 64.01 62.2604C64.01 62.1904 64.02 62.1204 64.05 62.0504C64.03 62.0504 64.01 62.0604 63.98 62.0604C63.75 62.0604 63.56 61.8704 63.56 61.6404C63.56 61.4104 63.75 61.2204 63.98 61.2204V58.6304L64.55 58.0604H60.97C60.97 57.7604 61.21 57.5204 61.51 57.5204C61.58 57.5204 61.65 57.5304 61.72 57.5604C61.72 57.5404 61.71 57.5204 61.71 57.4904C61.71 57.2604 61.9 57.0704 62.13 57.0704C62.36 57.0704 62.55 57.2604 62.55 57.4904H63.97V55.8604L64.54 55.2904H61.38C61.38 54.9904 61.62 54.7504 61.92 54.7504C61.99 54.7504 62.06 54.7704 62.13 54.7904C62.13 54.7704 62.13 54.7504 62.13 54.7204C62.13 54.4904 62.32 54.3004 62.55 54.3004C62.78 54.3004 62.97 54.4904 62.97 54.7204H63.98V53.5904C63.75 53.5904 63.56 53.4004 63.56 53.1704C63.56 52.9404 63.75 52.7504 63.98 52.7504C64 52.7504 64.02 52.7504 64.05 52.7604C64.02 52.7004 64.01 52.6304 64.01 52.5504C64.01 52.2504 64.25 52.0104 64.55 52.0104V55.3004L65.12 54.7304H66.13C66.13 54.5004 66.32 54.3104 66.55 54.3104C66.78 54.3104 66.97 54.5004 66.97 54.7304C66.97 54.7504 66.97 54.7704 66.96 54.8004C67.02 54.7704 67.09 54.7604 67.17 54.7604C67.47 54.7604 67.71 55.0004 67.71 55.3004H64.55V58.0604L65.12 57.4904H66.54C66.54 57.2604 66.73 57.0704 66.96 57.0704C67.19 57.0704 67.38 57.2604 67.38 57.4904C67.38 57.5104 67.38 57.5304 67.37 57.5604C67.43 57.5304 67.5 57.5204 67.58 57.5204C67.88 57.5204 68.12 57.7604 68.12 58.0604H64.55ZM67.58 57.4304C67.54 57.4304 67.5 57.4304 67.46 57.4404C67.43 57.1804 67.22 56.9804 66.95 56.9804C66.7 56.9804 66.49 57.1604 66.45 57.4004H65.19V55.9504H66.03C66.07 56.1904 66.28 56.3704 66.53 56.3704C66.79 56.3704 67.01 56.1704 67.04 55.9104C67.08 55.9204 67.12 55.9204 67.16 55.9204C67.51 55.9204 67.79 55.6404 67.79 55.2904C67.79 54.9404 67.51 54.6604 67.16 54.6604C67.12 54.6604 67.08 54.6604 67.04 54.6704C67.01 54.4104 66.8 54.2104 66.53 54.2104C66.28 54.2104 66.07 54.3904 66.03 54.6304H65.19V53.6604C65.43 53.6204 65.61 53.4104 65.61 53.1604C65.61 52.9004 65.41 52.6804 65.15 52.6504C65.16 52.6104 65.16 52.5704 65.16 52.5304C65.16 52.1804 64.88 51.9004 64.53 51.9004C64.18 51.9004 63.9 52.1804 63.9 52.5304C63.9 52.5704 63.9 52.6104 63.91 52.6504C63.65 52.6804 63.45 52.8904 63.45 53.1604C63.45 53.4104 63.63 53.6204 63.87 53.6604V54.6304H63.02C62.98 54.3904 62.77 54.2104 62.52 54.2104C62.26 54.2104 62.04 54.4104 62.02 54.6704C61.98 54.6604 61.94 54.6604 61.9 54.6604C61.55 54.6604 61.27 54.9404 61.27 55.2904C61.27 55.6404 61.55 55.9204 61.9 55.9204C61.94 55.9204 61.98 55.9204 62.02 55.9104C62.05 56.1704 62.26 56.3704 62.53 56.3704C62.78 56.3704 62.99 56.1904 63.03 55.9504H63.87V57.4004H62.61C62.57 57.1604 62.36 56.9804 62.11 56.9804C61.85 56.9804 61.63 57.1804 61.6 57.4404C61.56 57.4304 61.52 57.4304 61.48 57.4304C61.13 57.4304 60.85 57.7104 60.85 58.0604C60.85 58.4104 61.13 58.6904 61.48 58.6904C61.52 58.6904 61.56 58.6904 61.6 58.6804C61.63 58.9404 61.84 59.1404 62.11 59.1404C62.36 59.1404 62.57 58.9604 62.61 58.7204H63.87V61.1604C63.63 61.2004 63.45 61.4104 63.45 61.6604C63.45 61.9204 63.65 62.1404 63.91 62.1704C63.9 62.2104 63.9 62.2504 63.9 62.2904C63.9 62.6404 64.18 62.9204 64.53 62.9204C64.88 62.9204 65.16 62.6404 65.16 62.2904C65.16 62.2504 65.16 62.2104 65.15 62.1704C65.41 62.1504 65.61 61.9304 65.61 61.6604C65.61 61.4104 65.43 61.2004 65.19 61.1604V58.7204H66.45C66.49 58.9604 66.7 59.1404 66.95 59.1404C67.21 59.1404 67.43 58.9404 67.46 58.6804C67.5 58.6904 67.54 58.6904 67.58 58.6904C67.93 58.6904 68.21 58.4104 68.21 58.0604C68.21 57.7204 67.93 57.4304 67.58 57.4304Z" fill="white"/>
<path d="M64.3999 9.82019C45.2799 9.82019 29.7299 25.3702 29.7299 44.4902C29.7299 63.6102 45.2799 79.1602 64.3999 79.1602C83.5199 79.1602 99.0699 63.6102 99.0699 44.4902C99.0699 25.3802 83.5199 9.82019 64.3999 9.82019ZM64.3999 81.3902C44.0499 81.3902 27.4999 64.8402 27.4999 44.4902C27.4999 24.1402 44.0499 7.59018 64.3999 7.59018C84.7499 7.59018 101.3 24.1402 101.3 44.4902C101.3 64.8402 84.7499 81.3902 64.3999 81.3902ZM21.8999 86.5702H106.91V2.41019H21.8999V86.5702ZM109.13 88.8002H19.6599V0.180176H109.13V88.8002Z" fill="white"/>
<path d="M36.12 11.5202C36.12 14.1802 33.96 16.3402 31.3 16.3402C28.64 16.3402 26.48 14.1802 26.48 11.5202C26.48 8.86017 28.64 6.7002 31.3 6.7002C33.96 6.7002 36.12 8.86017 36.12 11.5202Z" fill="white"/>
<path d="M101.73 11.5202C101.73 14.1802 99.57 16.3402 96.91 16.3402C94.25 16.3402 92.09 14.1802 92.09 11.5202C92.09 8.86017 94.25 6.7002 96.91 6.7002C99.57 6.7002 101.73 8.86017 101.73 11.5202Z" fill="white"/>
<path d="M2.79004 111.95V103.03H3.90004V110.96H8.04004V111.95H2.79004Z" fill="white"/>
<path d="M13.34 110.58V109.35C12.95 108.83 12.27 108.56 11.57 108.56C10.62 108.56 9.96996 109.15 9.96996 109.96C9.96996 110.79 10.62 111.38 11.57 111.38C12.27 111.38 12.95 111.12 13.34 110.58ZM13.34 111.95V111.22C12.82 111.81 12.07 112.12 11.2 112.12C10.12 112.12 8.94995 111.39 8.94995 109.98C8.94995 108.52 10.1 107.85 11.2 107.85C12.08 107.85 12.82 108.13 13.34 108.72V107.56C13.34 106.7 12.64 106.21 11.71 106.21C10.93 106.21 10.31 106.48 9.72996 107.11L9.25996 106.41C9.94996 105.69 10.78 105.34 11.84 105.34C13.22 105.34 14.34 105.95 14.34 107.52V111.96H13.34V111.95Z" fill="white"/>
<path d="M18.09 111.95L15.4 105.49H16.5L18.63 110.78L20.79 105.49H21.87L19.18 111.95H18.09Z" fill="white"/>
<path d="M26.9501 110.58V109.35C26.5601 108.83 25.8801 108.56 25.1901 108.56C24.2401 108.56 23.5901 109.15 23.5901 109.96C23.5901 110.79 24.2401 111.38 25.1901 111.38C25.8801 111.38 26.5601 111.12 26.9501 110.58ZM26.9501 111.95V111.22C26.4301 111.81 25.6801 112.12 24.8101 112.12C23.7301 112.12 22.5701 111.39 22.5701 109.98C22.5701 108.52 23.7201 107.85 24.8101 107.85C25.6901 107.85 26.4301 108.13 26.9501 108.72V107.56C26.9501 106.7 26.2501 106.21 25.3201 106.21C24.5401 106.21 23.9201 106.48 23.3401 107.11L22.8701 106.41C23.5701 105.69 24.3901 105.34 25.4501 105.34C26.8301 105.34 27.9501 105.95 27.9501 107.52V111.96H26.9501V111.95Z" fill="white"/>
<path d="M34.6601 110.09V107.26C34.3001 106.71 33.5201 106.23 32.7401 106.23C31.4301 106.23 30.6501 107.26 30.6501 108.69C30.6501 110.11 31.4201 111.14 32.7401 111.14C33.5201 111.13 34.2901 110.65 34.6601 110.09ZM29.9601 113.59L30.4701 112.87C31.0101 113.5 31.6501 113.74 32.5701 113.74C33.6401 113.74 34.6501 113.22 34.6501 111.85V110.87C34.1701 111.53 33.3801 112.02 32.4701 112.02C30.7901 112.02 29.6001 110.76 29.6001 108.68C29.6001 106.61 30.7801 105.32 32.4701 105.32C33.3401 105.32 34.1301 105.75 34.6501 106.46V105.48H35.6501V111.84C35.6501 113.89 34.1401 114.55 32.5601 114.55C31.4901 114.57 30.7401 114.35 29.9601 113.59Z" fill="white"/>
<path d="M40.4601 106.16C39.0801 106.16 38.4001 107.32 38.3501 108.3H42.59C42.57 107.35 41.9301 106.16 40.4601 106.16ZM37.29 108.71C37.29 106.84 38.63 105.33 40.47 105.33C42.42 105.33 43.5701 106.85 43.5701 108.79V109.04H38.36C38.44 110.26 39.28 111.27 40.67 111.27C41.42 111.27 42.15 110.98 42.68 110.44L43.16 111.09C42.51 111.73 41.64 112.09 40.59 112.09C38.67 112.11 37.29 110.73 37.29 108.71Z" fill="white"/>
<path d="M51 106.52C51.95 106.05 52.76 105.58 52.76 104.69C52.76 104.03 52.31 103.67 51.7 103.67C51.02 103.67 50.46 104.2 50.46 104.98C50.47 105.45 50.69 106 51 106.52ZM52.89 110.4C52.38 109.86 51.91 109.36 51.66 109.05C51.28 108.62 50.9 108.14 50.55 107.63C49.8 108.09 49.23 108.63 49.23 109.56C49.23 110.67 50.09 111.28 51.03 111.28C51.76 111.28 52.38 110.92 52.89 110.4ZM54.46 111.95C54.19 111.72 53.84 111.38 53.48 111.01C52.83 111.67 51.99 112.11 50.91 112.11C49.39 112.11 48.14 111.27 48.14 109.62C48.14 108.23 49.08 107.52 50.11 106.96C49.71 106.28 49.43 105.58 49.43 104.95C49.43 103.77 50.41 102.89 51.68 102.89C52.83 102.89 53.69 103.52 53.69 104.64C53.69 105.98 52.55 106.56 51.42 107.15C51.78 107.63 52.17 108.08 52.46 108.42C52.82 108.85 53.17 109.24 53.52 109.61C54 108.88 54.32 108.06 54.48 107.57L55.34 107.96C55.05 108.67 54.66 109.51 54.12 110.26C54.65 110.81 55.2 111.34 55.86 111.94H54.46V111.95Z" fill="white"/>
<path d="M60.2201 110.69L60.8901 109.84C61.4601 110.51 62.4301 111.12 63.6801 111.12C65.2701 111.12 65.7801 110.26 65.7801 109.57C65.7801 107.27 60.5001 108.55 60.5001 105.37C60.5001 103.9 61.8101 102.88 63.5701 102.88C64.9201 102.88 65.9801 103.35 66.7301 104.14L66.0601 104.96C65.3901 104.21 64.4601 103.89 63.4801 103.89C62.4201 103.89 61.6501 104.47 61.6501 105.31C61.6501 107.32 66.9301 106.16 66.9301 109.49C66.9301 110.77 66.0501 112.11 63.6401 112.11C62.1001 112.11 60.9501 111.52 60.2201 110.69Z" fill="white"/>
<path d="M68.5201 110.6V106.38H67.4501V105.5H68.5201V103.74H69.5401V105.5H70.8501V106.38H69.5401V110.39C69.5401 110.87 69.7501 111.22 70.1801 111.22C70.4701 111.22 70.7301 111.09 70.8601 110.94L71.1501 111.7C70.9001 111.94 70.5401 112.12 69.9601 112.12C69.0001 112.11 68.5201 111.56 68.5201 110.6Z" fill="white"/>
<path d="M74.9501 104.51H74.1901L76.1701 102.59H77.2101L74.9501 104.51ZM75.0501 106.16C73.6701 106.16 72.9901 107.32 72.9401 108.3H77.1801C77.1601 107.35 76.5201 106.16 75.0501 106.16ZM71.8801 108.71C71.8801 106.84 73.2201 105.33 75.0601 105.33C77.0101 105.33 78.1601 106.85 78.1601 108.79V109.04H72.9501C73.0301 110.26 73.8701 111.27 75.2601 111.27C76.0101 111.27 76.7501 110.98 77.2701 110.44L77.7501 111.09C77.1001 111.73 76.2301 112.09 75.1801 112.09C73.2601 112.11 71.8801 110.73 71.8801 108.71Z" fill="white"/>
<path d="M79.78 111.95V105.49H80.78V106.52C81.3 105.85 82.05 105.34 82.93 105.34V106.37C82.81 106.36 82.69 106.34 82.54 106.34C81.91 106.34 81.07 106.85 80.78 107.37V111.94H79.78V111.95Z" fill="white"/>
<path d="M84.2 105.49H85.2V111.95H84.2V105.49ZM84.02 103.9C84.02 103.53 84.33 103.22 84.7 103.22C85.08 103.22 85.37 103.53 85.37 103.9C85.37 104.27 85.08 104.57 84.7 104.57C84.33 104.57 84.02 104.27 84.02 103.9Z" fill="white"/>
<path d="M88.21 103.03H87.21V111.95H88.21V103.03Z" fill="white"/>
<path d="M90.22 105.49H91.22V111.95H90.22V105.49ZM90.04 103.9C90.04 103.53 90.35 103.22 90.72 103.22C91.1 103.22 91.39 103.53 91.39 103.9C91.39 104.27 91.1 104.57 90.72 104.57C90.35 104.57 90.04 104.27 90.04 103.9Z" fill="white"/>
<path d="M92.6801 111.09L93.1901 110.37C93.6201 110.86 94.4301 111.29 95.3201 111.29C96.3101 111.29 96.8601 110.82 96.8601 110.18C96.8601 108.62 92.8601 109.58 92.8601 107.19C92.8601 106.17 93.7201 105.33 95.2501 105.33C96.3601 105.33 97.1301 105.74 97.6401 106.26L97.1701 106.96C96.7801 106.49 96.0901 106.14 95.2501 106.14C94.3701 106.14 93.8201 106.58 93.8201 107.16C93.8201 108.56 97.8201 107.64 97.8201 110.15C97.8201 111.23 96.9501 112.1 95.2901 112.1C94.2201 112.11 93.3301 111.77 92.6801 111.09Z" fill="white"/>
<path d="M103.48 110.58V109.35C103.09 108.83 102.41 108.56 101.72 108.56C100.77 108.56 100.12 109.15 100.12 109.96C100.12 110.79 100.77 111.38 101.72 111.38C102.41 111.38 103.09 111.12 103.48 110.58ZM103.48 111.95V111.22C102.96 111.81 102.21 112.12 101.34 112.12C100.26 112.12 99.1001 111.39 99.1001 109.98C99.1001 108.52 100.25 107.85 101.34 107.85C102.22 107.85 102.96 108.13 103.48 108.72V107.56C103.48 106.7 102.78 106.21 101.85 106.21C101.07 106.21 100.45 106.48 99.8701 107.11L99.4001 106.41C100.1 105.69 100.92 105.34 101.98 105.34C103.36 105.34 104.48 105.95 104.48 107.52V111.96H103.48V111.95Z" fill="white"/>
<path d="M106.71 110.6V106.38H105.64V105.5H106.71V103.74H107.73V105.5H109.04V106.38H107.73V110.39C107.73 110.87 107.94 111.22 108.37 111.22C108.66 111.22 108.92 111.09 109.05 110.94L109.34 111.7C109.09 111.94 108.73 112.12 108.15 112.12C107.19 112.11 106.71 111.56 106.71 110.6Z" fill="white"/>
<path d="M110.44 105.49H111.44V111.95H110.44V105.49ZM110.26 103.9C110.26 103.53 110.57 103.22 110.94 103.22C111.32 103.22 111.61 103.53 111.61 103.9C111.61 104.27 111.32 104.57 110.94 104.57C110.57 104.57 110.26 104.27 110.26 103.9Z" fill="white"/>
<path d="M118.41 108.71C118.41 107.4 117.65 106.22 116.27 106.22C114.89 106.22 114.13 107.4 114.13 108.71C114.13 110.03 114.89 111.21 116.27 111.21C117.65 111.21 118.41 110.04 118.41 108.71ZM113.07 108.71C113.07 106.84 114.3 105.33 116.26 105.33C118.22 105.33 119.46 106.84 119.46 108.71C119.46 110.58 118.23 112.11 116.26 112.11C114.29 112.11 113.07 110.58 113.07 108.71Z" fill="white"/>
<path d="M125.47 111.95V107.73C125.47 106.58 124.88 106.23 124.01 106.23C123.22 106.23 122.49 106.71 122.1 107.23V111.95H121.1V105.49H122.1V106.43C122.56 105.88 123.44 105.33 124.41 105.33C125.75 105.33 126.46 106.01 126.46 107.41V111.94H125.47V111.95Z" fill="white"/>
<path d="M4.67003 126.63V125.4C4.28003 124.88 3.60003 124.61 2.91003 124.61C1.96003 124.61 1.31003 125.2 1.31003 126.01C1.31003 126.84 1.96003 127.43 2.91003 127.43C3.60003 127.43 4.28003 127.17 4.67003 126.63ZM3.31003 120.56L1.05003 118.64H2.09003L4.07003 120.56H3.31003ZM4.67003 128V127.27C4.15003 127.86 3.40003 128.17 2.53003 128.17C1.45003 128.17 0.280029 127.44 0.280029 126.03C0.280029 124.57 1.43003 123.9 2.53003 123.9C3.41003 123.9 4.15003 124.18 4.67003 124.77V123.61C4.67003 122.75 3.97003 122.26 3.04003 122.26C2.26003 122.26 1.64003 122.53 1.06003 123.16L0.590027 122.46C1.28003 121.74 2.11003 121.39 3.17003 121.39C4.55003 121.39 5.67003 122 5.67003 123.57V128H4.67003Z" fill="white"/>
<path d="M12.16 119.08H11.16V128H12.16V119.08Z" fill="white"/>
<path d="M18.1999 126.63V125.4C17.8099 124.88 17.1299 124.61 16.4399 124.61C15.4899 124.61 14.8399 125.2 14.8399 126.01C14.8399 126.84 15.4999 127.43 16.4399 127.43C17.1299 127.43 17.8199 127.17 18.1999 126.63ZM18.1999 128V127.27C17.6799 127.86 16.9299 128.17 16.0599 128.17C14.9799 128.17 13.8199 127.44 13.8199 126.03C13.8199 124.57 14.9699 123.9 16.0599 123.9C16.9399 123.9 17.6799 124.18 18.1999 124.77V123.61C18.1999 122.75 17.5 122.26 16.57 122.26C15.79 122.26 15.1699 122.53 14.5899 123.16L14.1199 122.46C14.8099 121.74 15.6399 121.39 16.6999 121.39C18.0799 121.39 19.1999 122 19.1999 123.57V128H18.1999Z" fill="white"/>
<path d="M30.23 125.47C30.23 124.65 29.67 123.93 28.58 123.93H25.84V127.01H28.58C29.61 127.01 30.23 126.42 30.23 125.47ZM30.05 121.51C30.05 120.71 29.52 120.07 28.51 120.07H25.83V122.94H28.51C29.52 122.94 30.05 122.33 30.05 121.51ZM24.73 128V119.08H28.7C30.25 119.08 31.2 120.01 31.2 121.35C31.2 122.47 30.45 123.22 29.64 123.4C30.59 123.55 31.38 124.52 31.38 125.59C31.38 127.02 30.43 128 28.8 128H24.73Z" fill="white"/>
<path d="M33.11 128V121.54H34.11V122.57C34.63 121.9 35.38 121.39 36.26 121.39V122.42C36.14 122.41 36.02 122.39 35.87 122.39C35.24 122.39 34.4 122.9 34.11 123.42V128H33.11Z" fill="white"/>
<path d="M41.5599 126.63V125.4C41.1699 124.88 40.4899 124.61 39.7999 124.61C38.8499 124.61 38.1999 125.2 38.1999 126.01C38.1999 126.84 38.8499 127.43 39.7999 127.43C40.4899 127.43 41.1699 127.17 41.5599 126.63ZM41.5599 128V127.27C41.0399 127.86 40.2899 128.17 39.4199 128.17C38.3399 128.17 37.1799 127.44 37.1799 126.03C37.1799 124.57 38.3299 123.9 39.4199 123.9C40.2999 123.9 41.0399 124.18 41.5599 124.77V123.61C41.5599 122.75 40.8599 122.26 39.9299 122.26C39.1499 122.26 38.5299 122.53 37.9499 123.16L37.4799 122.46C38.1799 121.74 38.9999 121.39 40.0599 121.39C41.4399 121.39 42.5599 122 42.5599 123.57V128H41.5599Z" fill="white"/>
<path d="M44.0299 127.14L44.5399 126.42C44.9699 126.91 45.7799 127.34 46.6699 127.34C47.6599 127.34 48.2099 126.87 48.2099 126.23C48.2099 124.67 44.2099 125.63 44.2099 123.24C44.2099 122.22 45.0699 121.38 46.5999 121.38C47.7099 121.38 48.4799 121.79 48.9899 122.31L48.5199 123.01C48.1299 122.54 47.4399 122.19 46.5999 122.19C45.7199 122.19 45.1699 122.63 45.1699 123.21C45.1699 124.61 49.1699 123.69 49.1699 126.2C49.1699 127.28 48.2999 128.15 46.6399 128.15C45.5699 128.16 44.6899 127.82 44.0299 127.14Z" fill="white"/>
<path d="M50.25 127.14L50.76 126.42C51.19 126.91 52 127.34 52.89 127.34C53.88 127.34 54.43 126.87 54.43 126.23C54.43 124.67 50.43 125.63 50.43 123.24C50.43 122.22 51.29 121.38 52.82 121.38C53.93 121.38 54.7 121.79 55.21 122.31L54.74 123.01C54.35 122.54 53.66 122.19 52.82 122.19C51.94 122.19 51.39 122.63 51.39 123.21C51.39 124.61 55.39 123.69 55.39 126.2C55.39 127.28 54.52 128.15 52.86 128.15C51.79 128.16 50.91 127.82 50.25 127.14Z" fill="white"/>
<path d="M59.8099 122.21C58.4299 122.21 57.7499 123.37 57.6999 124.35H61.9399C61.9199 123.4 61.2799 122.21 59.8099 122.21ZM56.6399 124.76C56.6399 122.89 57.9799 121.38 59.8199 121.38C61.7699 121.38 62.9199 122.9 62.9199 124.84V125.09H57.7099C57.7899 126.31 58.6299 127.32 60.0199 127.32C60.7699 127.32 61.4999 127.03 62.0299 126.49L62.5099 127.14C61.8599 127.78 60.9899 128.14 59.9399 128.14C58.0199 128.16 56.6399 126.78 56.6399 124.76Z" fill="white"/>
<path d="M64.5499 128V121.54H65.5499V122.57C66.0699 121.9 66.8199 121.39 67.6999 121.39V122.42C67.5799 122.41 67.4599 122.39 67.3099 122.39C66.6799 122.39 65.8399 122.9 65.5499 123.42V128H64.5499Z" fill="white"/>
<path d="M68.9599 121.54H69.9599V128H68.9599V121.54ZM68.7899 119.95C68.7899 119.58 69.0999 119.27 69.4699 119.27C69.8499 119.27 70.1399 119.58 70.1399 119.95C70.1399 120.32 69.8499 120.62 69.4699 120.62C69.0999 120.62 68.7899 120.32 68.7899 119.95Z" fill="white"/>
<path d="M74.77 122.21C73.39 122.21 72.71 123.37 72.66 124.35H76.9C76.88 123.4 76.24 122.21 74.77 122.21ZM71.6 124.76C71.6 122.89 72.94 121.38 74.78 121.38C76.73 121.38 77.88 122.9 77.88 124.84V125.09H72.67C72.75 126.31 73.59 127.32 74.98 127.32C75.73 127.32 76.46 127.03 76.99 126.49L77.47 127.14C76.82 127.78 75.95 128.14 74.9 128.14C72.98 128.16 71.6 126.78 71.6 124.76Z" fill="white"/>
<path d="M82.86 128V119.08H83.97V127.01H88.11V128H82.86Z" fill="white"/>
<path d="M94.24 124.76C94.24 123.45 93.48 122.27 92.1 122.27C90.72 122.27 89.96 123.45 89.96 124.76C89.96 126.08 90.72 127.26 92.1 127.26C93.48 127.26 94.24 126.09 94.24 124.76ZM88.9 124.76C88.9 122.89 90.13 121.38 92.09 121.38C94.05 121.38 95.29 122.89 95.29 124.76C95.29 126.63 94.06 128.16 92.09 128.16C90.12 128.16 88.9 126.63 88.9 124.76Z" fill="white"/>
<path d="M96.9301 128V121.54H97.9301V122.57C98.4501 121.9 99.2001 121.39 100.08 121.39V122.42C99.9601 122.41 99.8401 122.39 99.6901 122.39C99.0601 122.39 98.2201 122.9 97.9301 123.42V128H96.9301Z" fill="white"/>
<path d="M101.34 128V121.54H102.34V122.57C102.86 121.9 103.61 121.39 104.49 121.39V122.42C104.37 122.41 104.25 122.39 104.1 122.39C103.47 122.39 102.63 122.9 102.34 123.42V128H101.34Z" fill="white"/>
<path d="M109.79 126.63V125.4C109.4 124.88 108.72 124.61 108.03 124.61C107.08 124.61 106.43 125.2 106.43 126.01C106.43 126.84 107.09 127.43 108.03 127.43C108.72 127.43 109.41 127.17 109.79 126.63ZM109.79 128V127.27C109.27 127.86 108.52 128.17 107.65 128.17C106.57 128.17 105.41 127.44 105.41 126.03C105.41 124.57 106.56 123.9 107.65 123.9C108.53 123.9 109.27 124.18 109.79 124.77V123.61C109.79 122.75 109.09 122.26 108.16 122.26C107.38 122.26 106.76 122.53 106.18 123.16L105.71 122.46C106.41 121.74 107.23 121.39 108.29 121.39C109.67 121.39 110.79 122 110.79 123.57V128H109.79Z" fill="white"/>
<path d="M112.82 121.54H113.82V128H112.82V121.54ZM112.64 119.95C112.64 119.58 112.95 119.27 113.32 119.27C113.7 119.27 113.99 119.58 113.99 119.95C113.99 120.32 113.7 120.62 113.32 120.62C112.95 120.62 112.64 120.32 112.64 119.95Z" fill="white"/>
<path d="M120.2 128V123.78C120.2 122.63 119.61 122.28 118.74 122.28C117.95 122.28 117.22 122.76 116.83 123.28V128H115.83V121.54H116.83V122.48C117.29 121.93 118.17 121.38 119.14 121.38C120.48 121.38 121.19 122.06 121.19 123.46V128H120.2Z" fill="white"/>
<path d="M126 122.21C124.62 122.21 123.94 123.37 123.89 124.35H128.13C128.12 123.4 127.47 122.21 126 122.21ZM122.84 124.76C122.84 122.89 124.18 121.38 126.02 121.38C127.97 121.38 129.12 122.9 129.12 124.84V125.09H123.91C123.99 126.31 124.83 127.32 126.22 127.32C126.97 127.32 127.7 127.03 128.23 126.49L128.71 127.14C128.06 127.78 127.19 128.14 126.14 128.14C124.21 128.16 122.84 126.78 122.84 124.76Z" fill="white"/>
</svg>
