<svg width="15" height="74" viewBox="0 0 15 74" fill="none" xmlns="http://www.w3.org/2000/svg">
<path d="M5.10999 40.9395C5.51999 43.1295 5.96999 45.3395 6.43999 47.5295L7.52998 47.2895C7.05998 45.1095 6.60998 42.8995 6.19998 40.7295L5.10999 40.9395Z" fill="white"/>
<path d="M7.94995 54.0798C8.47995 56.2598 9.04996 58.4498 9.62996 60.5898L10.71 60.2998C10.13 58.1698 9.55995 55.9898 9.02995 53.8198L7.94995 54.0798Z" fill="white"/>
<path d="M11.49 67.0495C12.14 69.1895 12.82 71.3495 13.52 73.4595L14.58 73.1095C13.88 71.0095 13.2 68.8595 12.56 66.7295L11.49 67.0495Z" fill="white"/>
<path d="M2.97998 27.6597C3.26998 29.8597 3.59999 32.0998 3.95999 34.3098L5.05998 34.1298C4.70998 31.9298 4.37998 29.6998 4.08998 27.5098L2.97998 27.6597Z" fill="white"/>
<path d="M1.95998 0.839844L0.839966 0.869812C0.899966 3.08981 0.98997 5.34984 1.10997 7.58984L2.21997 7.52985C2.10997 5.29985 2.01998 3.04984 1.95998 0.839844Z" fill="white"/>
<path d="M2.67006 14.21L1.56006 14.2999C1.74006 16.5199 1.94005 18.7699 2.18005 20.9899L3.29005 20.8699C3.05005 18.6499 2.84006 16.41 2.67006 14.21Z" fill="white"/>
</svg>
