<svg width="156" height="91" viewBox="0 0 156 91" fill="none" xmlns="http://www.w3.org/2000/svg">
<path d="M10.6 29.9798H1.38007C0.780066 29.9798 0.290039 29.4898 0.290039 28.8898C0.290039 28.2898 0.780066 27.7998 1.38007 27.7998H10.6C11.2 27.7998 11.6901 28.2898 11.6901 28.8898C11.6901 29.4998 11.21 29.9798 10.6 29.9798Z" fill="white"/>
<path d="M20.32 18.47H11.1C10.5 18.47 10.01 17.98 10.01 17.38C10.01 16.78 10.5 16.29 11.1 16.29H20.32C20.92 16.29 21.41 16.78 21.41 17.38C21.41 17.99 20.93 18.47 20.32 18.47Z" fill="white"/>
<path d="M20.32 41.4998H11.1C10.5 41.4998 10.01 41.0098 10.01 40.4098C10.01 39.8098 10.5 39.3198 11.1 39.3198H20.32C20.92 39.3198 21.41 39.8098 21.41 40.4098C21.41 41.0098 20.93 41.4998 20.32 41.4998Z" fill="white"/>
<path d="M149.04 64.9201H144.57C144 64.9201 143.55 64.4601 143.55 63.9001C143.55 63.3401 144.01 62.8801 144.57 62.8801H149.04C151.39 62.8801 153.3 60.9701 153.3 58.6201V52.7201C153.3 50.1301 151.56 46.6101 149.5 45.0401L149.43 44.9801L122.81 20.6901C121.36 19.6101 120.51 19.6201 118.48 19.6501C118.12 19.6601 117.74 19.6601 117.33 19.6601H103.48C102.91 19.6601 102.45 19.2001 102.45 18.6301C102.45 18.0601 102.91 17.6101 103.48 17.6101H117.33C117.74 17.6101 118.11 17.6001 118.45 17.6001C120.62 17.5701 122.05 17.5501 124.08 19.0801L124.15 19.1401L150.78 43.4401C153.34 45.4201 155.35 49.4901 155.35 52.7201V58.6201C155.35 62.0901 152.51 64.9201 149.04 64.9201Z" fill="white"/>
<path d="M133.64 54.0403C128.18 54.0403 123.74 58.4802 123.74 63.9402C123.74 69.4002 128.18 73.8402 133.64 73.8402C139.1 73.8402 143.54 69.4002 143.54 63.9402C143.54 58.4802 139.1 54.0403 133.64 54.0403ZM133.64 75.8903C127.05 75.8903 121.69 70.5302 121.69 63.9402C121.69 57.3502 127.05 51.9902 133.64 51.9902C140.23 51.9902 145.59 57.3502 145.59 63.9402C145.59 70.5302 140.23 75.8903 133.64 75.8903Z" fill="white"/>
<path d="M133.64 60.1201C131.53 60.1201 129.81 61.8401 129.81 63.9501C129.81 66.0601 131.53 67.7801 133.64 67.7801C135.75 67.7801 137.47 66.0601 137.47 63.9501C137.47 61.8301 135.75 60.1201 133.64 60.1201ZM133.64 69.8201C130.4 69.8201 127.76 67.1801 127.76 63.9401C127.76 60.7001 130.4 58.0601 133.64 58.0601C136.88 58.0601 139.52 60.7001 139.52 63.9401C139.52 67.1801 136.88 69.8201 133.64 69.8201Z" fill="white"/>
<path d="M122.72 64.9199H103.01C102.44 64.9199 101.99 64.4599 101.99 63.8999C101.99 63.3399 102.45 62.8799 103.01 62.8799H122.72C123.29 62.8799 123.74 63.3399 123.74 63.8999C123.74 64.4599 123.28 64.9199 122.72 64.9199Z" fill="white"/>
<path d="M123.34 54.04H108.95C108.38 54.04 107.92 53.58 107.92 53.02C107.92 52.46 108.38 52 108.95 52H123.34C123.91 52 124.36 52.46 124.36 53.02C124.36 53.58 123.91 54.04 123.34 54.04Z" fill="white"/>
<path d="M109.98 37.6502H134.54L120.52 24.4702H109.98V37.6502ZM139.74 39.7002H107.95L107.93 38.6802V23.4502L107.95 22.4302H120.92L121.62 22.7102L137.82 37.9402L139.74 39.7002Z" fill="white"/>
<path d="M102.94 64.3302C102.37 64.3302 101.91 63.8702 101.91 63.3102V18.7702C101.91 18.2002 102.37 17.7402 102.94 17.7402C103.51 17.7402 103.96 18.2002 103.96 18.7702V63.3102C103.97 63.8702 103.51 64.3302 102.94 64.3302Z" fill="white"/>
<path d="M153.83 54.8401C153.79 54.8401 153.76 54.8401 153.72 54.8301C147.08 54.1201 142.79 46.6301 142.43 45.8501C142.07 45.0701 141.91 44.3301 141.91 44.3301H150.43C151 44.3301 151.45 44.7901 151.45 45.3501C151.45 45.9201 151.96 46.3801 151.4 46.3801H145.21C146.75 48.5601 149.97 52.3701 153.94 52.8001C154.5 52.8601 154.91 53.3701 154.85 53.9301C154.79 54.4501 154.35 54.8401 153.83 54.8401Z" fill="white"/>
<path d="M59.3099 54.0403C53.8499 54.0403 49.4099 58.4802 49.4099 63.9402C49.4099 69.4002 53.8499 73.8402 59.3099 73.8402C64.7699 73.8402 69.2099 69.4002 69.2099 63.9402C69.2099 58.4802 64.7699 54.0403 59.3099 54.0403ZM59.3099 75.8903C52.7199 75.8903 47.3599 70.5302 47.3599 63.9402C47.3599 57.3502 52.7199 51.9902 59.3099 51.9902C65.8999 51.9902 71.2599 57.3502 71.2599 63.9402C71.2599 70.5302 65.8999 75.8903 59.3099 75.8903Z" fill="white"/>
<path d="M59.3099 60.1201C57.1999 60.1201 55.4799 61.8401 55.4799 63.9501C55.4799 66.0601 57.1999 67.7801 59.3099 67.7801C61.4199 67.7801 63.14 66.0601 63.14 63.9501C63.14 61.8301 61.4199 60.1201 59.3099 60.1201ZM59.3099 69.8201C56.0699 69.8201 53.4299 67.1801 53.4299 63.9401C53.4299 60.7001 56.0699 58.0601 59.3099 58.0601C62.5499 58.0601 65.1899 60.7001 65.1899 63.9401C65.1899 67.1801 62.5499 69.8201 59.3099 69.8201Z" fill="white"/>
<path d="M110.78 64.9204H70.24C69.67 64.9204 69.22 64.4604 69.22 63.9004C69.22 63.3404 69.68 62.8804 70.24 62.8804H110.78C111.35 62.8804 111.8 63.3404 111.8 63.9004C111.8 64.4604 111.34 64.9204 110.78 64.9204Z" fill="white"/>
<path d="M48.39 64.92H46.8799C43.5999 64.92 40.9399 62.25 40.9399 58.98V53.02C40.9399 52.45 41.4 52 41.96 52C42.53 52 42.9899 52.46 42.9899 53.02V58.98C42.9899 61.13 44.7399 62.88 46.8799 62.88H48.39C48.96 62.88 49.4099 63.34 49.4099 63.9C49.4099 64.46 48.95 64.92 48.39 64.92Z" fill="white"/>
<path d="M115.05 32.0902C114.81 32.0902 114.58 32.0102 114.38 31.8502C113.95 31.4802 113.9 30.8402 114.27 30.4102L120.49 23.1202C120.86 22.6902 121.5 22.6402 121.94 23.0102C122.37 23.3802 122.42 24.0202 122.05 24.4602L115.83 31.7502C115.63 31.9602 115.34 32.0902 115.05 32.0902Z" fill="white"/>
<path d="M115.43 39.7001C115.19 39.7001 114.96 39.6201 114.77 39.4601C114.34 39.0901 114.29 38.4501 114.65 38.0201L121.67 29.7901C122.04 29.3601 122.68 29.3101 123.11 29.6801C123.54 30.0501 123.59 30.6901 123.22 31.1201L116.2 39.3501C116.01 39.5801 115.72 39.7001 115.43 39.7001Z" fill="white"/>
<path d="M113.69 42.48H108.95V44.53H113.69V42.48Z" fill="white"/>
<path d="M34.0499 51.9898H101.92V2.3598H34.0499V51.9898ZM102.94 54.0398H31.71L31.7899 0.319824H104.03L103.96 53.0198L102.94 54.0398Z" fill="white"/>
<path d="M37.66 14.9802C37.09 14.9802 36.6301 14.5202 36.6301 13.9602V5.98019L36.5901 4.9502H45.6401C46.2101 4.9502 46.67 5.41019 46.67 5.98019C46.67 6.55019 46.2101 7.01019 45.6401 7.01019H38.6801V13.9702C38.6801 14.5202 38.22 14.9802 37.66 14.9802Z" fill="white"/>
<path d="M98.3198 14.9804C97.7498 14.9804 97.2898 14.5204 97.2898 13.9604V7.00043H90.3298C89.7598 7.00043 89.2998 6.54043 89.2998 5.97043C89.2998 5.40043 89.7598 4.94043 90.3298 4.94043H98.3098H99.3298V13.9504C99.3398 14.5204 98.8798 14.9804 98.3198 14.9804Z" fill="white"/>
<path d="M98.3201 49.4204H90.3401C89.7701 49.4204 89.3101 48.9604 89.3101 48.4004C89.3101 47.8404 89.7701 47.3704 90.3401 47.3704H97.3V40.4104C97.3 39.8404 97.7601 39.3804 98.3301 39.3804C98.9001 39.3804 99.35 39.8404 99.35 40.4104V49.3904L98.3201 49.4204Z" fill="white"/>
<path d="M45.6399 49.4204H37.6599L36.6299 49.4504V40.4104C36.6299 39.8404 37.0899 39.3804 37.6599 39.3804C38.2299 39.3804 38.6799 39.8404 38.6799 40.4104V47.3704H45.6399C46.2099 47.3704 46.6599 47.8304 46.6599 48.4004C46.6599 48.9704 46.2099 49.4204 45.6399 49.4204Z" fill="white"/>
<path d="M52.6599 33.3303C52.6399 33.2203 52.6099 32.9203 52.2999 32.9203C52.1199 32.9203 51.8899 33.2203 51.8599 33.2403C51.6399 33.4003 51.47 33.5003 51.21 33.5803C51.02 33.6303 50.7799 33.6603 50.4999 33.6603C50.1599 33.6603 49.8099 33.6203 49.4799 33.5803C48.4499 33.4403 45.63 31.9303 45.52 31.8703C45.5 31.8303 45.4799 31.7903 45.4699 31.7703C45.3999 31.5903 45.39 30.2203 45.39 28.4403V27.8703L45.4099 26.6003H45.39V21.8103C45.39 20.5003 45.4599 20.1603 45.4899 20.0303C45.4999 19.9903 45.4999 19.9603 45.4999 19.9303C45.4999 19.7403 45.2499 19.5703 45.0599 19.5703C44.9499 19.5703 44.85 19.6403 44.71 19.7303C44.44 19.9103 44.0299 20.1803 43.2299 20.1803H42.8799C42.6099 20.1803 42.2599 20.6003 42.2599 20.7903C42.2599 21.0103 42.48 21.0503 42.65 21.0803C42.7 21.0903 42.7599 21.1003 42.8199 21.1103C42.9999 21.1603 43.1799 21.2703 43.1799 21.7303V26.6003V27.6703L43.1599 29.6403C43.1299 32.1003 43.0799 32.2003 42.8199 32.3003C42.8199 32.3003 42.3499 32.4503 42.1599 32.6603C42.0199 32.8203 41.96 32.9603 41.96 33.0803C41.96 33.2303 42.0099 33.3403 42.1199 33.4203C42.2399 33.5103 42.6999 33.5103 42.7999 33.5003C42.8499 33.5003 43.1999 33.4903 43.2199 33.4903C44.1199 33.5403 44.89 33.8403 45.84 34.3003C46.86 34.7903 47.91 35.3003 49.14 35.3003C49.36 35.3003 49.5899 35.2803 49.8099 35.2503C50.3299 35.1703 50.9099 34.9803 51.3799 34.7103C51.3899 34.7003 52.7499 34.0603 52.6599 33.3303Z" fill="white"/>
<path d="M51.4899 30.51C50.5999 30.51 49.6999 29.4 49.6999 26.93C49.6999 25.33 50.2299 24.34 51.0899 24.34C51.9799 24.34 52.8799 25.45 52.8799 27.92C52.8699 29.52 52.3399 30.51 51.4899 30.51ZM51.9399 22.52C49.8599 22.52 47.6399 24.76 47.6399 28.09C47.6399 30.47 48.9599 32.34 50.6399 32.34C52.7199 32.34 54.9399 30.1 54.9399 26.77C54.9399 24.38 53.6199 22.52 51.9399 22.52Z" fill="white"/>
<path d="M60.08 22.5C59.51 22.5 59.04 23.07 58.58 23.63C58.52 23.71 58.45 23.78 58.39 23.86C58.42 23.54 58.47 23.32 58.51 23.16C58.54 23.04 58.56 22.95 58.56 22.87C58.56 22.75 58.32 22.51 58.15 22.51C58.07 22.51 58 22.56 57.88 22.65C57.64 22.83 57.24 23.12 56.65 23.12C56.58 23.12 56.51 23.11 56.42 23.11C56.31 23.1 56.19 23.09 56.05 23.09C55.89 23.09 55.82 23.2 55.75 23.29C55.73 23.32 55.72 23.34 55.69 23.37C55.68 23.39 55.66 23.41 55.64 23.43C55.58 23.48 55.51 23.55 55.51 23.65C55.51 23.77 55.56 23.98 55.9 23.98C56.14 23.98 56.36 24.07 56.36 24.74V30.44C56.36 31.15 56.1 31.27 55.91 31.35C55.82 31.39 55.73 31.43 55.68 31.52C55.66 31.55 55.64 31.58 55.63 31.6C55.57 31.69 55.51 31.78 55.51 31.92C55.51 32.09 55.59 32.18 55.76 32.18C56.05 32.18 56.41 32.15 56.73 32.13C56.99 32.11 57.24 32.09 57.4 32.09C57.63 32.09 57.93 32.11 58.25 32.13C58.62 32.15 59.01 32.18 59.36 32.18C59.51 32.18 59.83 31.77 59.83 31.61C59.83 31.31 59.54 31.31 59.34 31.31C59.17 31.31 58.99 31.31 58.83 31.21C58.56 31.04 58.47 30.83 58.47 30.37V26.18C58.47 25.04 59 24.33 59.38 24.33C59.54 24.33 59.63 24.44 59.76 24.61C59.86 24.75 59.96 24.88 60.13 24.88C60.34 24.88 60.46 24.67 60.63 24.38C60.67 24.32 60.71 24.25 60.75 24.17C60.83 24.05 60.9 23.95 60.96 23.86C61.11 23.65 61.21 23.51 61.21 23.28C61.21 22.87 60.68 22.5 60.08 22.5Z" fill="white"/>
<path d="M66.09 22.5C65.52 22.5 65.05 23.07 64.59 23.63C64.53 23.71 64.46 23.78 64.4 23.86C64.43 23.54 64.48 23.32 64.52 23.16C64.55 23.04 64.57 22.95 64.57 22.88C64.57 22.76 64.33 22.52 64.16 22.52C64.08 22.52 64.01 22.57 63.89 22.66C63.65 22.84 63.25 23.13 62.66 23.13C62.59 23.13 62.52 23.12 62.43 23.12C62.32 23.11 62.2 23.1 62.06 23.1C61.9 23.1 61.83 23.21 61.76 23.3C61.74 23.33 61.73 23.35 61.7 23.38C61.69 23.4 61.67 23.42 61.65 23.44C61.59 23.49 61.52 23.56 61.52 23.66C61.52 23.78 61.57 23.99 61.92 23.99C62.16 23.99 62.38 24.08 62.38 24.75V30.45C62.38 31.16 62.12 31.28 61.93 31.36C61.84 31.4 61.75 31.44 61.7 31.53C61.68 31.56 61.66 31.59 61.65 31.61C61.59 31.7 61.53 31.79 61.53 31.93C61.53 32.1 61.61 32.19 61.78 32.19C62.07 32.19 62.44 32.16 62.75 32.14C63.01 32.12 63.26 32.1 63.43 32.1C63.66 32.1 63.96 32.12 64.28 32.14C64.65 32.16 65.03 32.19 65.38 32.19C65.53 32.19 65.85 31.78 65.85 31.62C65.85 31.32 65.56 31.32 65.36 31.32C65.19 31.32 65 31.32 64.85 31.22C64.58 31.05 64.49 30.84 64.49 30.38V26.19C64.49 25.05 65.02 24.34 65.4 24.34C65.56 24.34 65.65 24.45 65.78 24.62C65.88 24.76 65.98 24.89 66.15 24.89C66.36 24.89 66.48 24.68 66.65 24.39C66.69 24.33 66.73 24.26 66.77 24.18C66.85 24.06 66.92 23.96 66.98 23.87C67.13 23.66 67.23 23.52 67.23 23.29C67.22 22.87 66.69 22.5 66.09 22.5Z" fill="white"/>
<path d="M70.38 30.5C69.65 30.5 69.5 29.88 69.5 29.36C69.5 28.01 70.7399 27.39 71.6599 27.27V27.95C71.6599 29.4 71.11 30.5 70.38 30.5ZM74.65 30.18C74.53 30.18 74.44 30.25 74.38 30.31C74.31 30.37 74.27 30.4 74.21 30.4C73.97 30.4 73.73 30.32 73.73 29.35C73.73 28.4 73.75 27.51 73.78 26.73C73.8 26.1 73.81 25.51 73.81 25C73.81 23.53 72.79 22.5 71.34 22.5C71.03 22.5 70.5 22.6 70.03 22.69C69.68 22.76 69.35 22.82 69.21 22.82C69 22.82 68.92 22.73 68.86 22.64C68.81 22.58 68.75 22.5 68.64 22.5C68.47 22.5 68.15 22.73 68.15 23.11C68.15 24.41 67.92 25.24 67.84 25.52C67.82 25.6 67.81 25.63 67.81 25.66C67.81 25.86 67.9199 25.99 68.0999 25.99C68.2199 25.99 68.32 25.92 68.4 25.85C68.45 25.81 68.5 25.78 68.56 25.75C68.62 25.71 68.66 25.63 68.73 25.46C68.94 24.97 69.37 23.94 70.49 23.94C71.07 23.94 71.66 24.34 71.67 25.24V26.17C69.6 26.3 67.44 27.32 67.45 29.8C67.45 31.23 68.37 32.32 69.59 32.32C70.38 32.32 70.89 31.81 71.37 31.31C71.5 31.18 71.64 31.04 71.78 30.91C71.89 31.62 72.37 32.32 73.02 32.32C73.36 32.32 73.62 32.08 73.9 31.82C74.1 31.64 74.31 31.45 74.57 31.31C74.81 31.17 74.9699 30.6 74.9699 30.5C74.9499 30.38 74.91 30.18 74.65 30.18Z" fill="white"/>
<path d="M78.8598 31.3301C78.7898 31.3201 78.6998 31.3001 78.5798 31.2801C78.3498 31.2301 78.0998 31.0701 78.0998 30.2401V24.6401C78.0998 23.3901 78.1698 23.0601 78.1898 22.9301C78.1998 22.8901 78.1998 22.8701 78.1998 22.8401C78.1998 22.6601 77.9698 22.4901 77.7798 22.4901C77.6698 22.4901 77.5798 22.5601 77.4398 22.6401C77.1798 22.8101 76.7898 23.0701 76.0198 23.0701H75.6898C75.4398 23.0701 75.0998 23.4701 75.0998 23.6501C75.0998 23.8601 75.3098 23.9001 75.4698 23.9301C75.5198 23.9401 75.5698 23.9501 75.6298 23.9601C75.8098 24.0101 75.9698 24.1101 75.9698 24.5501V29.6801C75.9698 30.7401 75.8698 31.2001 75.6098 31.2701C75.2598 31.3701 75.0698 31.7701 75.0698 31.9101C75.0698 32.0601 75.1798 32.1701 75.3298 32.1701C75.8298 32.1701 76.1798 32.1401 76.4698 32.1201C76.6698 32.1001 76.8398 32.0901 76.9998 32.0901C77.3498 32.0901 77.6298 32.1101 77.8998 32.1401C78.1698 32.1601 78.4198 32.1801 78.7298 32.1801C78.8598 32.1801 79.1998 31.8001 79.1998 31.6601C79.2198 31.3901 79.0898 31.3701 78.8598 31.3301ZM76.0498 21.2701C75.8798 21.0601 75.7698 20.9301 75.7698 20.7901C75.7698 20.4701 75.8498 20.3301 76.2498 19.9501C76.7098 19.5101 76.8798 19.3901 77.0198 19.3901C77.3198 19.3901 77.4898 19.4901 77.7298 19.8001C78.1198 20.2601 78.2598 20.4401 78.2598 20.7801C78.2598 21.0101 78.1198 21.2101 77.7898 21.6101C77.5498 21.9101 77.2798 22.1801 77.0098 22.1801C76.7398 22.1801 76.5998 22.0001 76.3598 21.6701C76.3298 21.6301 76.2898 21.5801 76.2598 21.5301C76.1798 21.4401 76.1098 21.3501 76.0498 21.2701Z" fill="white"/>
<path d="M90.5601 25.63C90.5601 24.72 91.1601 23.94 91.6501 23.94C92.3301 23.94 92.6901 24.69 92.6901 25.44C92.6901 25.87 92.57 25.91 92.42 25.91H90.7401C90.6301 25.9 90.5601 25.89 90.5601 25.63ZM94.7701 28.98C94.5901 28.98 94.4501 29.15 94.2601 29.38C93.9301 29.78 93.42 30.39 92.42 30.39C91.29 30.39 90.5501 29.12 90.5101 27.14H93.9401C94.6001 27.14 94.8901 26.86 94.8901 26.23C94.8901 24 93.74 22.5 92.04 22.5C89.95 22.5 88.3101 24.76 88.3101 27.65C88.3101 30.44 89.6801 32.32 91.7101 32.32C93.5801 32.32 94.8901 30.18 94.8901 30C94.8901 29.82 94.94 29.62 94.98 29.49C95 29.4 95.0201 29.34 95.0201 29.29C95.0301 29.12 94.9101 28.98 94.7701 28.98Z" fill="white"/>
<path d="M87.8401 31.2802C87.7101 31.2702 87.5701 31.2502 87.5101 31.2002C87.2801 31.0102 87.1801 30.7402 87.1801 29.6802V24.6502C87.1801 23.2002 86.4701 22.4702 85.0801 22.4702C84.5601 22.4702 84.1001 22.8102 83.6201 23.1602C83.4001 23.3202 83.1801 23.4802 82.9501 23.6202C82.9601 23.2102 83.0102 23.0302 83.0302 22.9402C83.0402 22.9002 83.0501 22.8602 83.0501 22.8202C83.0501 22.6302 82.8101 22.4702 82.6201 22.4702C82.5101 22.4702 82.4102 22.5402 82.2802 22.6202C82.0202 22.7902 81.6201 23.0602 80.8401 23.0602H80.5001C80.2801 23.0602 79.9001 23.4702 79.9001 23.6502C79.9001 23.8702 80.1202 23.9102 80.2802 23.9302C80.3302 23.9402 80.3901 23.9502 80.4401 23.9602C80.6201 24.0102 80.7901 24.1102 80.7901 24.5602V29.8702C80.7901 31.1002 80.4401 31.2402 80.4301 31.2502C80.1001 31.3402 79.8501 31.7702 79.8501 31.9102C79.8501 32.1602 80.0401 32.1602 80.1401 32.1602C80.4701 32.1602 80.7701 32.1402 81.0701 32.1102C81.3401 32.0902 81.6001 32.0702 81.8601 32.0702C82.1001 32.0702 82.3401 32.0902 82.5801 32.1102C82.8701 32.1302 83.1901 32.1602 83.5901 32.1602C83.7601 32.1602 83.8101 32.0502 83.8401 32.0002C83.8501 31.9802 83.8601 31.9602 83.8801 31.9302C83.8901 31.9202 83.9101 31.9002 83.9301 31.8902C83.9901 31.8402 84.0801 31.7602 84.0801 31.5702C84.0801 31.3602 83.8701 31.3402 83.7401 31.3302C83.5901 31.3102 83.4001 31.2902 83.2301 31.1502C83.0401 30.9902 82.9501 30.5302 82.9501 29.6802V25.5402C82.9501 24.9202 83.6601 24.1502 84.2401 24.1502C84.7401 24.1502 85.0401 24.6102 85.0401 25.3902V29.8802C85.0401 31.1102 84.6901 31.2502 84.6901 31.2502C84.5201 31.2802 84.2601 31.8302 84.2601 31.9102C84.2601 32.1602 84.4501 32.1602 84.5501 32.1602C84.8001 32.1602 85.1601 32.1302 85.5201 32.1102C85.8201 32.0902 86.1001 32.0702 86.2601 32.0702C86.4201 32.0702 86.5901 32.0902 86.8001 32.1002C87.0701 32.1202 87.4201 32.1502 87.8401 32.1502C87.9601 32.1502 88.0501 32.0402 88.1701 31.8802C88.1901 31.8502 88.2101 31.8302 88.2201 31.8102C88.2701 31.7502 88.3301 31.6902 88.3301 31.5502C88.3101 31.3302 88.0301 31.3102 87.8401 31.2802Z" fill="white"/>
<path d="M69.1799 90.3199V81.3999H70.2899V89.3299H74.4399V90.3199H69.1799Z" fill="white"/>
<path d="M75.8799 83.8598H76.8799V90.3198H75.8799V83.8598ZM75.71 82.2698C75.71 81.8998 76.02 81.5898 76.39 81.5898C76.77 81.5898 77.0599 81.8998 77.0599 82.2698C77.0599 82.6398 76.77 82.9398 76.39 82.9398C76.02 82.9398 75.71 82.6398 75.71 82.2698Z" fill="white"/>
<path d="M80.6199 90.3199L77.9299 83.8599H79.03L81.1699 89.1499L83.3199 83.8599H84.4L81.71 90.3199H80.6199Z" fill="white"/>
<path d="M85.4502 90.3199V83.8599H86.4502V84.89C86.9702 84.22 87.7202 83.71 88.6002 83.71V84.7399C88.4802 84.7299 88.3602 84.71 88.2102 84.71C87.5802 84.71 86.7402 85.2199 86.4502 85.7399V90.3099H85.4502V90.3199Z" fill="white"/>
<path d="M93.9 88.95V87.7199C93.51 87.1999 92.83 86.9299 92.14 86.9299C91.19 86.9299 90.54 87.52 90.54 88.33C90.54 89.16 91.19 89.7499 92.14 89.7499C92.83 89.7499 93.51 89.49 93.9 88.95ZM93.9 90.3199V89.59C93.38 90.18 92.63 90.4899 91.76 90.4899C90.68 90.4899 89.52 89.7499 89.52 88.3499C89.52 86.8899 90.67 86.2199 91.76 86.2199C92.64 86.2199 93.38 86.5 93.9 87.09V85.9299C93.9 85.0699 93.2 84.58 92.27 84.58C91.49 84.58 90.86 84.8499 90.29 85.4799L89.82 84.78C90.52 84.06 91.34 83.71 92.4 83.71C93.78 83.71 94.9 84.32 94.9 85.89V90.33H93.9V90.3199Z" fill="white"/>
<path d="M96.92 83.8598H97.92V90.3198H96.92V83.8598ZM96.75 82.2698C96.75 81.8998 97.06 81.5898 97.43 81.5898C97.81 81.5898 98.1 81.8998 98.1 82.2698C98.1 82.6398 97.81 82.9398 97.43 82.9398C97.06 82.9398 96.75 82.6398 96.75 82.2698Z" fill="white"/>
<path d="M99.3801 89.4597L99.8901 88.7397C100.32 89.2297 101.13 89.6597 102.02 89.6597C103.01 89.6597 103.56 89.1897 103.56 88.5497C103.56 86.9897 99.5601 87.9497 99.5601 85.5597C99.5601 84.5397 100.42 83.6997 101.95 83.6997C103.06 83.6997 103.83 84.1097 104.34 84.6297L103.87 85.3297C103.48 84.8597 102.79 84.5097 101.95 84.5097C101.07 84.5097 100.52 84.9497 100.52 85.5297C100.52 86.9297 104.52 86.0097 104.52 88.5197C104.52 89.5997 103.65 90.4697 101.99 90.4697C100.92 90.4797 100.04 90.1397 99.3801 89.4597Z" fill="white"/>
<path d="M111.11 87.0797C111.11 85.7697 110.35 84.5897 108.97 84.5897C107.59 84.5897 106.83 85.7697 106.83 87.0797C106.83 88.3997 107.59 89.5797 108.97 89.5797C110.35 89.5797 111.11 88.4097 111.11 87.0797ZM105.78 87.0797C105.78 85.2097 107.01 83.6997 108.97 83.6997C110.94 83.6997 112.17 85.2097 112.17 87.0797C112.17 88.9497 110.94 90.4797 108.97 90.4797C107.01 90.4797 105.78 88.9497 105.78 87.0797Z" fill="white"/>
<path d="M118.17 90.3197V86.0997C118.17 84.9497 117.58 84.5997 116.71 84.5997C115.92 84.5997 115.19 85.0797 114.8 85.5997V90.3197H113.8V83.8597H114.8V84.7997C115.26 84.2497 116.14 83.6997 117.11 83.6997C118.45 83.6997 119.16 84.3797 119.16 85.7797V90.3097H118.17V90.3197Z" fill="white"/>
</svg>
