<svg width="217" height="130" viewBox="0 0 217 130" fill="none" xmlns="http://www.w3.org/2000/svg">
<path d="M40.28 74.5C44.56 74.5 47.29 75.95 47.29 76.95C47.29 77.95 44.56 79.4 40.28 79.4C36 79.4 33.27 77.95 33.27 76.95C33.27 75.95 36 74.5 40.28 74.5ZM40.28 80.9C44.4 80.9 48.78 79.52 48.78 76.96C48.78 74.4 44.4 73.02 40.28 73.02C36.16 73.02 31.78 74.4 31.78 76.96C31.78 79.52 36.16 80.9 40.28 80.9Z" fill="white"/>
<path d="M40.28 74.7802C36.1 74.7802 33.55 76.1903 33.55 76.9503C33.55 77.7203 36.11 79.1302 40.28 79.1302C44.45 79.1302 47.01 77.7203 47.01 76.9503C47.01 76.1903 44.45 74.7802 40.28 74.7802ZM40.28 79.6902C35.98 79.6902 32.99 78.2502 32.99 76.9602C32.99 75.6702 35.98 74.2303 40.28 74.2303C44.57 74.2303 47.57 75.6702 47.57 76.9602C47.56 78.2502 44.57 79.6902 40.28 79.6902ZM40.28 73.2903C36.24 73.2903 32.06 74.6603 32.06 76.9503C32.06 79.2503 36.24 80.6202 40.28 80.6202C44.32 80.6202 48.5 79.2503 48.5 76.9503C48.5 74.6603 44.32 73.2903 40.28 73.2903ZM40.28 81.1802C35.92 81.1802 31.5 79.7302 31.5 76.9602C31.5 74.1902 35.92 72.7402 40.28 72.7402C44.64 72.7402 49.06 74.1902 49.06 76.9602C49.05 79.7302 44.64 81.1802 40.28 81.1802Z" fill="white"/>
<path d="M52.8801 71.75H51.3901V82.16H52.8801V71.75Z" fill="white"/>
<path d="M51.6699 81.8802H52.5999V72.0302H51.6699V81.8802ZM52.8799 82.4402H51.3899C51.2399 82.4402 51.1099 82.3202 51.1099 82.1602V71.7502C51.1099 71.6002 51.2299 71.4702 51.3899 71.4702H52.8799C53.0299 71.4702 53.1599 71.5902 53.1599 71.7502V82.1602C53.1599 82.3102 53.0299 82.4402 52.8799 82.4402Z" fill="white"/>
<path d="M29.28 71.75H27.79V82.16H29.28V71.75Z" fill="white"/>
<path d="M28.07 81.8802H29V72.0302H28.07V81.8802ZM29.28 82.4402H27.79C27.64 82.4402 27.51 82.3202 27.51 82.1602V71.7502C27.51 71.6002 27.63 71.4702 27.79 71.4702H29.28C29.43 71.4702 29.56 71.5902 29.56 71.7502V82.1602C29.56 82.3102 29.43 82.4402 29.28 82.4402Z" fill="white"/>
<path d="M58.2801 85.4702H22.2801V77.1801C22.2801 73.5501 24.3701 70.9701 29.0401 68.8401C29.7201 68.6101 36.94 66.0301 37.61 61.0801H42.9601C43.6301 66.0301 50.8501 68.6101 51.5301 68.8401C56.2001 70.9701 58.2901 73.5501 58.2901 77.1801V85.4702H58.2801ZM58.2801 100.22H52.8801V90.5602H51.3901V100.22H22.2801V86.9502H58.2801V100.22ZM59.7701 77.1801C59.7701 72.9301 57.33 69.8402 52.11 67.4702L52.0401 67.4402C51.9601 67.4102 44.4001 64.8501 44.4001 60.3301V33.6602H42.9101V59.5801H37.6701V33.6602H36.1801V60.3301C36.1801 64.8401 28.6101 67.4102 28.5301 67.4402L28.4601 67.4702C23.2301 69.8502 20.8 72.9301 20.8 77.1801V100.23H17.5601V101.72H20.8H59.7801H63.0201V100.23H59.7801V77.1801H59.7701Z" fill="white"/>
<path d="M22.55 85.1901H58V77.1801C58 73.6701 55.97 71.1701 51.41 69.0901C50.63 68.8201 43.6 66.2901 42.72 61.3501H37.85C36.96 66.2901 29.94 68.8201 29.13 69.1001C24.6 71.1701 22.56 73.6701 22.56 77.1801V85.1901H22.55ZM58.28 85.7501H22.28C22.13 85.7501 22 85.6301 22 85.4701V77.1801C22 73.4201 24.13 70.7701 28.92 68.5901C29.74 68.3101 36.68 65.8101 37.33 61.0401C37.35 60.9001 37.47 60.8001 37.61 60.8001H42.96C43.1 60.8001 43.22 60.9001 43.24 61.0401C43.89 65.8101 50.83 68.3101 51.62 68.5801C56.43 70.7701 58.57 73.4201 58.57 77.1801V85.4701C58.56 85.6201 58.43 85.7501 58.28 85.7501ZM53.16 99.9501H58V87.2401H22.56V99.9501H51.12V90.5701C51.12 90.4101 51.24 90.2901 51.4 90.2901H52.89C53.04 90.2901 53.17 90.4101 53.17 90.5701V99.9501H53.16ZM58.28 100.5H52.88C52.73 100.5 52.6 100.38 52.6 100.22V90.8301H51.67V100.22C51.67 100.37 51.55 100.5 51.39 100.5H22.28C22.13 100.5 22 100.38 22 100.22V86.9501C22 86.8001 22.12 86.6701 22.28 86.6701H58.28C58.43 86.6701 58.56 86.7901 58.56 86.9501V100.22C58.56 100.38 58.43 100.5 58.28 100.5ZM17.82 101.44H62.73V100.51H59.76C59.61 100.51 59.48 100.39 59.48 100.23V77.1801C59.48 73.0501 57.1 70.0501 51.98 67.7201L51.92 67.7001C51.86 67.6801 44.1 65.0801 44.1 60.3301V33.9401H43.17V59.5901C43.17 59.7401 43.05 59.8701 42.89 59.8701H37.65C37.5 59.8701 37.37 59.7501 37.37 59.5901V33.9401H36.44V60.3301C36.44 65.0701 28.68 67.6801 28.6 67.7001L28.54 67.7201C23.44 70.0401 21.05 73.0501 21.05 77.1701V100.22C21.05 100.37 20.93 100.5 20.77 100.5H17.8V101.44H17.82ZM63.01 101.99H17.54C17.39 101.99 17.26 101.87 17.26 101.71V100.22C17.26 100.07 17.38 99.9401 17.54 99.9401H20.51V77.1701C20.51 72.8001 23 69.6301 28.34 67.2001L28.43 67.1701C28.52 67.1401 35.9 64.6401 35.9 60.3201V33.6501C35.9 33.5001 36.02 33.3701 36.18 33.3701H37.67C37.82 33.3701 37.95 33.4901 37.95 33.6501V59.3001H42.63V33.6501C42.63 33.5001 42.75 33.3701 42.91 33.3701H44.4C44.55 33.3701 44.68 33.4901 44.68 33.6501V60.3201C44.68 64.6401 52.06 67.1401 52.13 67.1701L52.22 67.2001C57.57 69.6301 60.06 72.8001 60.06 77.1701V99.9401H63.03C63.18 99.9401 63.31 100.06 63.31 100.22V101.71C63.29 101.87 63.17 101.99 63.01 101.99Z" fill="white"/>
<path d="M176.29 74.5C180.57 74.5 183.3 75.95 183.3 76.95C183.3 77.95 180.57 79.4 176.29 79.4C172.01 79.4 169.28 77.95 169.28 76.95C169.28 75.95 172.01 74.5 176.29 74.5ZM176.29 80.9C180.41 80.9 184.79 79.52 184.79 76.96C184.79 74.4 180.41 73.02 176.29 73.02C172.17 73.02 167.79 74.4 167.79 76.96C167.79 79.52 172.17 80.9 176.29 80.9Z" fill="white"/>
<path d="M176.29 74.7802C172.11 74.7802 169.56 76.1903 169.56 76.9503C169.56 77.7203 172.12 79.1302 176.29 79.1302C180.46 79.1302 183.02 77.7203 183.02 76.9503C183.02 76.1903 180.47 74.7802 176.29 74.7802ZM176.29 79.6902C171.99 79.6902 169 78.2502 169 76.9602C169 75.6702 171.99 74.2303 176.29 74.2303C180.58 74.2303 183.58 75.6702 183.58 76.9602C183.58 78.2502 180.59 79.6902 176.29 79.6902ZM176.29 73.2903C172.25 73.2903 168.07 74.6603 168.07 76.9503C168.07 79.2503 172.25 80.6202 176.29 80.6202C180.33 80.6202 184.51 79.2503 184.51 76.9503C184.51 74.6603 180.33 73.2903 176.29 73.2903ZM176.29 81.1802C171.93 81.1802 167.51 79.7302 167.51 76.9602C167.51 74.1902 171.93 72.7402 176.29 72.7402C180.65 72.7402 185.07 74.1902 185.07 76.9602C185.07 79.7302 180.65 81.1802 176.29 81.1802Z" fill="white"/>
<path d="M188.89 71.75H187.4V82.16H188.89V71.75Z" fill="white"/>
<path d="M187.68 81.8802H188.61V72.0302H187.68V81.8802ZM188.89 82.4402H187.4C187.25 82.4402 187.12 82.3202 187.12 82.1602V71.7502C187.12 71.6002 187.25 71.4702 187.4 71.4702H188.89C189.04 71.4702 189.17 71.5902 189.17 71.7502V82.1602C189.17 82.3102 189.05 82.4402 188.89 82.4402Z" fill="white"/>
<path d="M165.29 71.75H163.8V82.16H165.29V71.75Z" fill="white"/>
<path d="M164.08 81.8802H165.01V72.0302H164.08V81.8802ZM165.29 82.4402H163.8C163.65 82.4402 163.52 82.3202 163.52 82.1602V71.7502C163.52 71.6002 163.64 71.4702 163.8 71.4702H165.29C165.44 71.4702 165.57 71.5902 165.57 71.7502V82.1602C165.57 82.3102 165.45 82.4402 165.29 82.4402Z" fill="white"/>
<path d="M194.29 85.4702H158.29V77.1801C158.29 73.5501 160.38 70.9701 165.05 68.8401C165.73 68.6101 172.95 66.0301 173.62 61.0801H178.97C179.64 66.0301 186.86 68.6101 187.54 68.8401C192.21 70.9701 194.3 73.5501 194.3 77.1801V85.4702H194.29ZM194.29 100.22H188.89V90.5602H187.4V100.22H158.29V86.9502H194.29V100.22ZM195.78 77.1801C195.78 72.9301 193.34 69.8402 188.12 67.4702L188.05 67.4402C187.97 67.4102 180.41 64.8501 180.41 60.3301V33.6602H178.92V59.5801H173.68V33.6602H172.19V60.3301C172.19 64.8401 164.62 67.4102 164.54 67.4402L164.47 67.4702C159.24 69.8502 156.81 72.9301 156.81 77.1801V100.23H153.57V101.72H156.81H195.79H199.03V100.23H195.79V77.1801H195.78Z" fill="white"/>
<path d="M158.57 85.1901H194.01V77.1801C194.01 73.6701 191.98 71.1701 187.42 69.0901C186.63 68.8201 179.61 66.2901 178.73 61.3501H173.86C172.98 66.2901 165.95 68.8201 165.14 69.1001C160.61 71.1701 158.57 73.6701 158.57 77.1801V85.1901ZM194.29 85.7501H158.29C158.14 85.7501 158.01 85.6301 158.01 85.4701V77.1801C158.01 73.4201 160.14 70.7701 164.93 68.5901C165.75 68.3101 172.69 65.8101 173.34 61.0401C173.36 60.9001 173.48 60.8001 173.62 60.8001H178.97C179.11 60.8001 179.23 60.9001 179.25 61.0401C179.9 65.8101 186.84 68.3101 187.63 68.5801C192.44 70.7701 194.57 73.4201 194.57 77.1801V85.4701C194.57 85.6201 194.45 85.7501 194.29 85.7501ZM189.17 99.9501H194.01V87.2401H158.57V99.9501H187.13V90.5701C187.13 90.4101 187.25 90.2901 187.41 90.2901H188.9C189.05 90.2901 189.18 90.4101 189.18 90.5701V99.9501H189.17ZM194.29 100.5H188.89C188.74 100.5 188.61 100.38 188.61 100.22V90.8301H187.68V100.22C187.68 100.37 187.56 100.5 187.4 100.5H158.29C158.14 100.5 158.01 100.38 158.01 100.22V86.9501C158.01 86.8001 158.13 86.6701 158.29 86.6701H194.29C194.44 86.6701 194.57 86.7901 194.57 86.9501V100.22C194.57 100.38 194.45 100.5 194.29 100.5ZM153.83 101.44H198.74V100.51H195.77C195.62 100.51 195.49 100.39 195.49 100.23V77.1801C195.49 73.0501 193.11 70.0501 187.99 67.7201L187.93 67.7001C187.87 67.6801 180.11 65.0401 180.11 60.3301V33.9401H179.18V59.5901C179.18 59.7401 179.06 59.8701 178.9 59.8701H173.66C173.51 59.8701 173.38 59.7501 173.38 59.5901V33.9401H172.45V60.3301C172.45 65.0701 164.69 67.6801 164.61 67.7001L164.55 67.7201C159.45 70.0401 157.06 73.0501 157.06 77.1701V100.22C157.06 100.37 156.94 100.5 156.78 100.5H153.81V101.44H153.83ZM199.03 101.99H153.56C153.41 101.99 153.28 101.87 153.28 101.71V100.22C153.28 100.07 153.4 99.9401 153.56 99.9401H156.53V77.1701C156.53 72.8001 159.02 69.6301 164.36 67.2001L164.45 67.1701C164.54 67.1401 171.92 64.6401 171.92 60.3201V33.6501C171.92 33.5001 172.04 33.3701 172.2 33.3701H173.69C173.84 33.3701 173.97 33.4901 173.97 33.6501V59.3001H178.65V33.6501C178.65 33.5001 178.77 33.3701 178.93 33.3701H180.42C180.57 33.3701 180.7 33.4901 180.7 33.6501V60.3201C180.7 64.5901 188.08 67.1401 188.15 67.1701L188.24 67.2001C193.59 69.6301 196.08 72.8001 196.08 77.1701V99.9401H199.05C199.2 99.9401 199.33 100.06 199.33 100.22V101.71C199.31 101.87 199.18 101.99 199.03 101.99Z" fill="white"/>
<path d="M108.28 74.5C112.56 74.5 115.29 75.95 115.29 76.95C115.29 77.95 112.56 79.4 108.28 79.4C104 79.4 101.27 77.95 101.27 76.95C101.28 75.95 104.01 74.5 108.28 74.5ZM108.28 80.9C112.4 80.9 116.78 79.52 116.78 76.96C116.78 74.4 112.4 73.02 108.28 73.02C104.16 73.02 99.78 74.4 99.78 76.96C99.79 79.52 104.16 80.9 108.28 80.9Z" fill="white"/>
<path d="M108.28 74.7802C104.1 74.7802 101.55 76.1903 101.55 76.9503C101.55 77.7203 104.1 79.1302 108.28 79.1302C112.45 79.1302 115.01 77.7203 115.01 76.9503C115.01 76.1903 112.46 74.7802 108.28 74.7802ZM108.28 79.6902C103.98 79.6902 100.99 78.2502 100.99 76.9602C100.99 75.6702 103.98 74.2303 108.28 74.2303C112.57 74.2303 115.57 75.6702 115.57 76.9602C115.57 78.2502 112.58 79.6902 108.28 79.6902ZM108.28 73.2903C104.24 73.2903 100.06 74.6603 100.06 76.9503C100.06 79.2503 104.24 80.6202 108.28 80.6202C112.32 80.6202 116.5 79.2503 116.5 76.9503C116.5 74.6603 112.32 73.2903 108.28 73.2903ZM108.28 81.1802C103.92 81.1802 99.5 79.7302 99.5 76.9602C99.5 74.1902 103.91 72.7402 108.28 72.7402C112.64 72.7402 117.06 74.1902 117.06 76.9602C117.06 79.7302 112.65 81.1802 108.28 81.1802Z" fill="white"/>
<path d="M120.89 71.75H119.4V82.16H120.89V71.75Z" fill="white"/>
<path d="M119.68 81.8802H120.61V72.0302H119.68V81.8802ZM120.89 82.4402H119.4C119.25 82.4402 119.12 82.3202 119.12 82.1602V71.7502C119.12 71.6002 119.24 71.4702 119.4 71.4702H120.89C121.04 71.4702 121.17 71.5902 121.17 71.7502V82.1602C121.17 82.3102 121.04 82.4402 120.89 82.4402Z" fill="white"/>
<path d="M97.2901 71.75H95.8V82.16H97.2901V71.75Z" fill="white"/>
<path d="M96.07 81.8797H97V72.0297H96.07V81.8797ZM97.29 82.4397H95.8C95.65 82.4397 95.52 82.3197 95.52 82.1597V71.7497C95.52 71.5997 95.64 71.4697 95.8 71.4697H97.29C97.44 71.4697 97.57 71.5897 97.57 71.7497V82.1597C97.56 82.3097 97.44 82.4397 97.29 82.4397Z" fill="white"/>
<path d="M126.28 85.4698H90.2801V77.1798C90.2801 73.5498 92.3701 70.9698 97.0401 68.8398C97.7201 68.6098 104.94 66.0298 105.61 61.0798H110.96C111.63 66.0298 118.85 68.6098 119.53 68.8398C124.2 70.9698 126.29 73.5498 126.29 77.1798V85.4698H126.28ZM126.28 100.22H120.88V90.5598H119.39V100.22H90.2801V86.9499H126.28V100.22ZM127.77 77.1798C127.77 72.9298 125.33 69.8398 120.11 67.4698L120.04 67.4398C119.96 67.4098 112.4 64.8498 112.4 60.3298V48.8398H110.91V59.5798H105.67V48.8398H104.18V60.3298C104.18 64.8398 96.6101 67.4098 96.5301 67.4398L96.4601 67.4698C91.2301 69.8498 88.8 72.9298 88.8 77.1798V100.23H85.5601V101.72H88.8H127.78H131.02V100.23H127.78V77.1798H127.77Z" fill="white"/>
<path d="M90.56 85.1898H126V77.1798C126 73.6698 123.97 71.1698 119.41 69.0898C118.62 68.8198 111.6 66.2898 110.72 61.3498H105.85C104.97 66.2898 97.94 68.8198 97.13 69.0998C92.6 71.1698 90.56 73.6698 90.56 77.1798V85.1898ZM126.28 85.7498H90.28C90.13 85.7498 90 85.6298 90 85.4698V77.1798C90 73.4198 92.13 70.7698 96.92 68.5898C97.74 68.3098 104.68 65.8098 105.33 61.0398C105.35 60.8998 105.47 60.7998 105.61 60.7998H110.96C111.1 60.7998 111.22 60.8998 111.24 61.0398C111.89 65.8098 118.83 68.3098 119.62 68.5798C124.43 70.7698 126.56 73.4198 126.56 77.1798V85.4698C126.56 85.6198 126.44 85.7498 126.28 85.7498ZM121.17 99.9498H126.01V87.2398H90.57V99.9498H119.13V90.5698C119.13 90.4098 119.25 90.2898 119.41 90.2898H120.9C121.05 90.2898 121.18 90.4098 121.18 90.5698V99.9498H121.17ZM126.28 100.5H120.88C120.73 100.5 120.6 100.38 120.6 100.22V90.8298H119.67V100.22C119.67 100.37 119.55 100.5 119.39 100.5H90.28C90.13 100.5 90 100.38 90 100.22V86.9498C90 86.7998 90.12 86.6698 90.28 86.6698H126.28C126.43 86.6698 126.56 86.7898 126.56 86.9498V100.22C126.56 100.38 126.44 100.5 126.28 100.5ZM85.83 101.44H130.74V100.51H127.77C127.62 100.51 127.49 100.39 127.49 100.23V77.1798C127.49 73.0498 125.11 70.0498 119.99 67.7198L119.93 67.6998C119.87 67.6798 112.11 65.0398 112.11 60.3298V49.1198H111.18V59.5898C111.18 59.7398 111.06 59.8698 110.9 59.8698H105.66C105.51 59.8698 105.38 59.7498 105.38 59.5898V49.1198H104.45V60.3298C104.45 65.0898 96.69 67.6798 96.61 67.6998L96.56 67.7198C91.45 70.0398 89.07 73.0498 89.07 77.1698V100.22C89.07 100.37 88.95 100.5 88.79 100.5H85.82V101.44H85.83ZM131.02 101.99H85.55C85.4 101.99 85.27 101.87 85.27 101.71V100.22C85.27 100.07 85.39 99.9398 85.55 99.9398H88.52V77.1698C88.52 72.7998 91.01 69.6298 96.35 67.1998L96.43 67.1698C96.52 67.1398 103.9 64.5798 103.9 60.3198V48.8298C103.9 48.6798 104.02 48.5498 104.18 48.5498H105.67C105.82 48.5498 105.95 48.6698 105.95 48.8298V59.2998H110.63V48.8298C110.63 48.6798 110.75 48.5498 110.91 48.5498H112.4C112.55 48.5498 112.68 48.6698 112.68 48.8298V60.3198C112.68 64.5898 120.06 67.1398 120.13 67.1698L120.22 67.1998C125.57 69.6298 128.06 72.7998 128.06 77.1698V99.9398H131.03C131.18 99.9398 131.31 100.06 131.31 100.22V101.71C131.3 101.87 131.17 101.99 131.02 101.99Z" fill="white"/>
<path d="M2.42993 105.51H214.76V30.3198L173.37 13.8098L156.37 24.4098C156.05 24.6098 155.65 24.6298 155.31 24.4698L108.64 2.53984L61.9699 24.4698C61.6299 24.6298 61.2299 24.6098 60.9099 24.4098L43.9099 13.8098L2.43994 30.2398V105.51H2.42993ZM215.88 107.74H1.30994C0.689937 107.74 0.199951 107.24 0.199951 106.63V29.4798C0.199951 29.0198 0.479933 28.6098 0.899933 28.4398L43.5999 11.5298C43.9299 11.3998 44.2999 11.4298 44.5999 11.6198L61.5699 22.1998L108.17 0.299824C108.47 0.159824 108.82 0.159824 109.12 0.299824L155.71 22.1998L172.68 11.6198C172.98 11.4298 173.35 11.3998 173.68 11.5298L216.29 28.5298C216.71 28.6998 216.99 29.1098 216.99 29.5598V106.62C216.99 107.24 216.49 107.74 215.88 107.74Z" fill="white"/>
<path d="M111.61 23.1102C111.11 23.4002 110.59 23.6102 110.06 23.7402C110.06 23.7602 110.06 23.7802 110.06 23.8002C110.06 24.4402 109.54 24.9602 108.9 24.9602C108.26 24.9602 107.74 24.4402 107.74 23.8002C107.74 23.7802 107.74 23.7602 107.74 23.7402C107.21 23.6202 106.69 23.4102 106.19 23.1102C105.37 22.6302 104.63 21.9602 103.99 21.1102C102.71 19.4102 101.98 17.1902 101.97 15.0002C101.97 12.8702 102.67 11.0802 104 9.84024C104.98 8.93024 106.27 8.34026 107.73 8.14026C107.73 8.11026 107.73 8.08024 107.73 8.06024C107.73 7.42024 108.25 6.90024 108.89 6.90024C109.53 6.90024 110.05 7.42024 110.05 8.06024C110.05 8.09024 110.05 8.12026 110.05 8.14026C111.51 8.34026 112.81 8.92024 113.79 9.84024C115.12 11.0802 115.82 12.8602 115.82 15.0002C115.82 17.1802 115.09 19.4102 113.81 21.1102C113.16 21.9602 112.42 22.6402 111.61 23.1102ZM110.21 7.98026C110.17 7.29026 109.59 6.74023 108.89 6.74023C108.19 6.74023 107.61 7.29026 107.57 7.98026C104.13 8.51026 101.53 10.9002 101.53 15.0002C101.53 19.1002 104.14 23.0303 107.58 23.8903C107.63 24.5803 108.2 25.1202 108.9 25.1202C109.6 25.1202 110.17 24.5703 110.22 23.8903C113.66 23.0303 116.27 19.1002 116.26 14.9902C116.26 10.9002 113.65 8.51026 110.21 7.98026Z" fill="white"/>
<path d="M108.9 16.98V24.66C108.42 24.66 108.02 24.27 108.02 23.78C108.02 23.66 108.04 23.55 108.09 23.44C108.05 23.45 108.02 23.45 107.98 23.45C107.6 23.45 107.3 23.14 107.3 22.77C107.3 22.39 107.61 22.09 107.98 22.09V17.9L108.9 16.98H103.11C103.11 16.49 103.5 16.1 103.99 16.1C104.11 16.1 104.22 16.12 104.32 16.17C104.31 16.14 104.31 16.1 104.31 16.06C104.31 15.68 104.62 15.38 104.99 15.38C105.37 15.38 105.67 15.68 105.67 16.06H107.97V13.43L108.89 12.51H103.77C103.77 12.03 104.16 11.63 104.65 11.63C104.77 11.63 104.88 11.65 104.98 11.7C104.97 11.67 104.97 11.63 104.97 11.59C104.97 11.21 105.28 10.91 105.65 10.91C106.02 10.91 106.33 11.22 106.33 11.59H107.97V9.75003C107.59 9.75003 107.29 9.44004 107.29 9.07004C107.29 8.69004 107.6 8.39005 107.97 8.39005C108.01 8.39005 108.04 8.39002 108.08 8.40002C108.04 8.30002 108.01 8.18003 108.01 8.06003C108.01 7.58003 108.4 7.18002 108.89 7.18002V12.5L109.81 11.58H111.45C111.45 11.2 111.76 10.9 112.13 10.9C112.51 10.9 112.81 11.21 112.81 11.58C112.81 11.62 112.81 11.65 112.8 11.69C112.9 11.65 113.02 11.62 113.13 11.62C113.61 11.62 114.01 12.01 114.01 12.5H108.89L108.9 16.98L109.82 16.06H112.12C112.12 15.68 112.42 15.38 112.8 15.38C113.18 15.38 113.48 15.69 113.48 16.06C113.48 16.1 113.48 16.13 113.47 16.17C113.57 16.13 113.69 16.1 113.8 16.1C114.28 16.1 114.68 16.49 114.68 16.98H108.9ZM113.81 15.96C113.75 15.96 113.68 15.97 113.62 15.98C113.58 15.56 113.23 15.24 112.8 15.24C112.39 15.24 112.05 15.54 111.99 15.92H109.95V13.57H111.32C111.39 13.96 111.72 14.25 112.13 14.25C112.56 14.25 112.91 13.92 112.95 13.51C113.01 13.52 113.07 13.53 113.14 13.53C113.7 13.53 114.16 13.07 114.16 12.51C114.16 11.95 113.71 11.49 113.14 11.49C113.08 11.49 113.01 11.5 112.95 11.51C112.91 11.09 112.56 10.77 112.13 10.77C111.72 10.77 111.39 11.07 111.32 11.45H109.95V9.88004C110.34 9.81004 110.63 9.48004 110.63 9.07004C110.63 8.64004 110.3 8.29003 109.89 8.25003C109.9 8.19003 109.91 8.13003 109.91 8.06003C109.91 7.50003 109.45 7.04004 108.89 7.04004C108.33 7.04004 107.87 7.49003 107.87 8.06003C107.87 8.13003 107.88 8.19003 107.89 8.25003C107.47 8.29003 107.15 8.64004 107.15 9.07004C107.15 9.48004 107.45 9.82004 107.83 9.88004V11.45H106.46C106.39 11.06 106.06 10.77 105.65 10.77C105.22 10.77 104.87 11.1 104.83 11.51C104.77 11.5 104.7 11.49 104.64 11.49C104.08 11.49 103.62 11.95 103.62 12.51C103.62 13.07 104.08 13.53 104.64 13.53C104.7 13.53 104.77 13.52 104.83 13.51C104.87 13.93 105.22 14.25 105.65 14.25C106.06 14.25 106.39 13.95 106.46 13.57H107.83V15.92H105.79C105.72 15.53 105.39 15.24 104.98 15.24C104.55 15.24 104.2 15.57 104.16 15.98C104.1 15.97 104.04 15.96 103.97 15.96C103.41 15.96 102.95 16.42 102.95 16.98C102.95 17.54 103.41 18 103.97 18C104.04 18 104.1 17.99 104.16 17.98C104.2 18.4 104.55 18.72 104.98 18.72C105.39 18.72 105.72 18.42 105.79 18.04H107.83V21.99C107.44 22.06 107.15 22.4 107.15 22.8C107.15 23.23 107.48 23.58 107.89 23.62C107.88 23.68 107.87 23.74 107.87 23.81C107.87 24.37 108.32 24.83 108.89 24.83C109.45 24.83 109.91 24.37 109.91 23.81C109.91 23.75 109.9 23.68 109.89 23.62C110.31 23.58 110.63 23.23 110.63 22.8C110.63 22.39 110.33 22.05 109.95 21.99V18.04H111.99C112.06 18.43 112.39 18.72 112.8 18.72C113.23 18.72 113.58 18.39 113.62 17.98C113.68 17.99 113.74 18 113.81 18C114.37 18 114.83 17.54 114.83 16.98C114.83 16.42 114.37 15.96 113.81 15.96Z" fill="white"/>
<path d="M17.22 122.88C17.22 121.88 16.5 121.18 15.44 121.18H13.1V124.57H15.44C16.5 124.58 17.22 123.88 17.22 122.88ZM11.99 129.11V120.19H15.57C17.36 120.19 18.36 121.42 18.36 122.88C18.36 124.34 17.35 125.57 15.57 125.57H13.1V129.11H11.99Z" fill="white"/>
<path d="M19.8101 129.11V122.65H20.8101V123.68C21.3301 123.01 22.0801 122.5 22.9601 122.5V123.53C22.8401 123.52 22.7201 123.5 22.5701 123.5C21.9401 123.5 21.1 124.01 20.8 124.53V129.1H19.8101V129.11Z" fill="white"/>
<path d="M29.1798 125.88C29.1798 124.57 28.4199 123.39 27.0399 123.39C25.6599 123.39 24.8998 124.57 24.8998 125.88C24.8998 127.2 25.6599 128.38 27.0399 128.38C28.4199 128.38 29.1798 127.2 29.1798 125.88ZM23.8398 125.88C23.8398 124.01 25.0698 122.5 27.0298 122.5C28.9898 122.5 30.2299 124.01 30.2299 125.88C30.2299 127.75 28.9998 129.28 27.0298 129.28C25.0598 129.28 23.8398 127.75 23.8398 125.88Z" fill="white"/>
<path d="M36.55 127.35V124.44C36.2 123.88 35.41 123.4 34.62 123.4C33.31 123.4 32.54 124.47 32.54 125.9C32.54 127.33 33.31 128.39 34.62 128.39C35.41 128.38 36.2 127.91 36.55 127.35ZM36.55 129.11V128.15C36.07 128.81 35.28 129.27 34.37 129.27C32.69 129.27 31.49 127.99 31.49 125.89C31.49 123.82 32.68 122.5 34.37 122.5C35.24 122.5 36.03 122.93 36.55 123.64V120.21H37.55V129.13H36.55V129.11Z" fill="white"/>
<path d="M43.9201 129.11V128.2C43.4201 128.76 42.5801 129.27 41.6201 129.27C40.2701 129.27 39.5601 128.6 39.5601 127.21V122.65H40.5601V126.9C40.5601 128.04 41.1401 128.37 42.0201 128.37C42.7901 128.37 43.5401 127.92 43.9201 127.39V122.64H44.9201V129.1H43.9201V129.11Z" fill="white"/>
<path d="M46.55 125.88C46.55 123.97 47.8501 122.5 49.7701 122.5C50.95 122.5 51.6401 122.98 52.1401 123.62L51.4701 124.22C51.0401 123.63 50.49 123.39 49.83 123.39C48.47 123.39 47.6001 124.45 47.6001 125.88C47.6001 127.31 48.47 128.38 49.83 128.38C50.5 128.38 51.0501 128.11 51.4701 127.54L52.1401 128.15C51.6501 128.79 50.95 129.27 49.7701 129.27C47.8501 129.27 46.55 127.79 46.55 125.88Z" fill="white"/>
<path d="M53.7599 127.76V123.54H52.6899V122.66H53.7599V120.9H54.7799V122.66H56.0899V123.54H54.7799V127.55C54.7799 128.03 54.99 128.38 55.42 128.38C55.71 128.38 55.9699 128.25 56.0999 128.1L56.39 128.86C56.14 129.1 55.78 129.28 55.2 129.28C54.24 129.27 53.7599 128.72 53.7599 127.76Z" fill="white"/>
<path d="M57.4901 122.65H58.4901V129.11H57.4901V122.65ZM57.3201 121.06C57.3201 120.69 57.6301 120.38 58.0001 120.38C58.3801 120.38 58.6701 120.69 58.6701 121.06C58.6701 121.43 58.3801 121.73 58.0001 121.73C57.6301 121.73 57.3201 121.44 57.3201 121.06Z" fill="white"/>
<path d="M65.4599 125.88C65.4599 124.57 64.6999 123.39 63.3199 123.39C61.9399 123.39 61.1799 124.57 61.1799 125.88C61.1799 127.2 61.9399 128.38 63.3199 128.38C64.6999 128.38 65.4599 127.2 65.4599 125.88ZM60.1299 125.88C60.1299 124.01 61.3599 122.5 63.3199 122.5C65.2799 122.5 66.5199 124.01 66.5199 125.88C66.5199 127.75 65.2899 129.28 63.3199 129.28C61.3499 129.28 60.1299 127.75 60.1299 125.88Z" fill="white"/>
<path d="M72.5299 129.11V124.89C72.5299 123.74 71.9399 123.39 71.0699 123.39C70.2799 123.39 69.5499 123.87 69.1599 124.39V129.11H68.1599V122.65H69.1599V123.59C69.6199 123.04 70.4999 122.49 71.4699 122.49C72.8099 122.49 73.5199 123.17 73.5199 124.57V129.1H72.5299V129.11Z" fill="white"/>
<path d="M83.0399 127.75V126.52C82.6499 126 81.9699 125.73 81.2799 125.73C80.3299 125.73 79.6699 126.32 79.6699 127.13C79.6699 127.96 80.3199 128.55 81.2799 128.55C81.9699 128.55 82.6499 128.28 83.0399 127.75ZM81.6699 121.68L79.4099 119.76H80.4499L82.4299 121.68H81.6699ZM83.0399 129.11V128.38C82.5199 128.97 81.7699 129.28 80.8999 129.28C79.8199 129.28 78.6599 128.55 78.6599 127.14C78.6599 125.68 79.8099 125.01 80.8999 125.01C81.7799 125.01 82.5199 125.29 83.0399 125.88V124.72C83.0399 123.86 82.3399 123.37 81.4099 123.37C80.6299 123.37 80.0099 123.64 79.4299 124.27L78.9599 123.57C79.6599 122.85 80.4799 122.5 81.5399 122.5C82.9199 122.5 84.0399 123.11 84.0399 124.68V129.12H83.0399V129.11Z" fill="white"/>
<path d="M90.53 120.19H89.53V129.11H90.53V120.19Z" fill="white"/>
<path d="M96.5699 127.75V126.52C96.1799 126 95.4999 125.73 94.8099 125.73C93.8599 125.73 93.2 126.32 93.2 127.13C93.2 127.96 93.8599 128.55 94.8099 128.55C95.4999 128.55 96.1899 128.28 96.5699 127.75ZM96.5699 129.11V128.38C96.0499 128.97 95.2999 129.28 94.4299 129.28C93.3499 129.28 92.1899 128.55 92.1899 127.14C92.1899 125.68 93.3399 125.01 94.4299 125.01C95.3099 125.01 96.0499 125.29 96.5699 125.88V124.72C96.5699 123.86 95.8699 123.37 94.9399 123.37C94.1599 123.37 93.5399 123.64 92.9599 124.27L92.4899 123.57C93.1899 122.85 94.0099 122.5 95.0699 122.5C96.4499 122.5 97.5699 123.11 97.5699 124.68V129.12H96.5699V129.11Z" fill="white"/>
<path d="M108.6 126.58C108.6 125.76 108.04 125.04 106.95 125.04H104.21V128.12H106.95C107.98 128.12 108.6 127.53 108.6 126.58ZM108.42 122.63C108.42 121.83 107.88 121.19 106.88 121.19H104.2V124.06H106.88C107.89 124.06 108.42 123.44 108.42 122.63ZM103.1 129.11V120.19H107.07C108.62 120.19 109.57 121.12 109.57 122.46C109.57 123.58 108.82 124.33 108.01 124.5C108.96 124.65 109.75 125.62 109.75 126.69C109.75 128.12 108.8 129.1 107.17 129.1H103.1V129.11Z" fill="white"/>
<path d="M111.48 129.11V122.65H112.48V123.68C113 123.01 113.75 122.5 114.63 122.5V123.53C114.51 123.52 114.39 123.5 114.24 123.5C113.61 123.5 112.77 124.01 112.47 124.53V129.1H111.48V129.11Z" fill="white"/>
<path d="M119.93 127.75V126.52C119.54 126 118.86 125.73 118.17 125.73C117.22 125.73 116.56 126.32 116.56 127.13C116.56 127.96 117.21 128.55 118.17 128.55C118.86 128.55 119.54 128.28 119.93 127.75ZM119.93 129.11V128.38C119.41 128.97 118.66 129.28 117.79 129.28C116.71 129.28 115.55 128.55 115.55 127.14C115.55 125.68 116.7 125.01 117.79 125.01C118.67 125.01 119.41 125.29 119.93 125.88V124.72C119.93 123.86 119.23 123.37 118.3 123.37C117.52 123.37 116.9 123.64 116.32 124.27L115.85 123.57C116.55 122.85 117.37 122.5 118.43 122.5C119.81 122.5 120.93 123.11 120.93 124.68V129.12H119.93V129.11Z" fill="white"/>
<path d="M122.4 128.25L122.91 127.53C123.34 128.02 124.15 128.45 125.04 128.45C126.03 128.45 126.58 127.98 126.58 127.34C126.58 125.78 122.58 126.74 122.58 124.35C122.58 123.33 123.44 122.49 124.97 122.49C126.08 122.49 126.85 122.9 127.36 123.42L126.89 124.12C126.5 123.65 125.81 123.3 124.97 123.3C124.09 123.3 123.54 123.74 123.54 124.32C123.54 125.72 127.54 124.8 127.54 127.31C127.54 128.39 126.67 129.26 125.01 129.26C123.94 129.27 123.06 128.94 122.4 128.25Z" fill="white"/>
<path d="M128.62 128.25L129.13 127.53C129.56 128.02 130.37 128.45 131.26 128.45C132.25 128.45 132.8 127.98 132.8 127.34C132.8 125.78 128.8 126.74 128.8 124.35C128.8 123.33 129.66 122.49 131.19 122.49C132.3 122.49 133.07 122.9 133.58 123.42L133.11 124.12C132.72 123.65 132.03 123.3 131.19 123.3C130.31 123.3 129.76 123.74 129.76 124.32C129.76 125.72 133.76 124.8 133.76 127.31C133.76 128.39 132.89 129.26 131.23 129.26C130.16 129.27 129.28 128.94 128.62 128.25Z" fill="white"/>
<path d="M138.18 123.32C136.8 123.32 136.12 124.48 136.07 125.46H140.31C140.3 124.51 139.65 123.32 138.18 123.32ZM135.02 125.88C135.02 124.01 136.36 122.5 138.2 122.5C140.15 122.5 141.3 124.02 141.3 125.96V126.21H136.09C136.17 127.43 137.01 128.44 138.4 128.44C139.15 128.44 139.88 128.15 140.41 127.61L140.89 128.26C140.24 128.9 139.37 129.26 138.32 129.26C136.39 129.27 135.02 127.89 135.02 125.88Z" fill="white"/>
<path d="M142.92 129.11V122.65H143.92V123.68C144.44 123.01 145.19 122.5 146.07 122.5V123.53C145.95 123.52 145.83 123.5 145.68 123.5C145.05 123.5 144.21 124.01 143.91 124.53V129.1H142.92V129.11Z" fill="white"/>
<path d="M147.33 122.65H148.33V129.11H147.33V122.65ZM147.16 121.06C147.16 120.69 147.47 120.38 147.84 120.38C148.22 120.38 148.51 120.69 148.51 121.06C148.51 121.43 148.22 121.73 147.84 121.73C147.47 121.73 147.16 121.44 147.16 121.06Z" fill="white"/>
<path d="M153.14 123.32C151.76 123.32 151.08 124.48 151.03 125.46H155.27C155.25 124.51 154.61 123.32 153.14 123.32ZM149.97 125.88C149.97 124.01 151.31 122.5 153.15 122.5C155.1 122.5 156.25 124.02 156.25 125.96V126.21H151.04C151.12 127.43 151.96 128.44 153.35 128.44C154.1 128.44 154.83 128.15 155.36 127.61L155.84 128.26C155.19 128.9 154.32 129.26 153.27 129.26C151.35 129.27 149.97 127.89 149.97 125.88Z" fill="white"/>
<path d="M161.23 129.11V120.19H162.34V128.12H166.48V129.11H161.23Z" fill="white"/>
<path d="M172.61 125.88C172.61 124.57 171.85 123.39 170.47 123.39C169.09 123.39 168.33 124.57 168.33 125.88C168.33 127.2 169.09 128.38 170.47 128.38C171.85 128.38 172.61 127.2 172.61 125.88ZM167.27 125.88C167.27 124.01 168.5 122.5 170.46 122.5C172.42 122.5 173.66 124.01 173.66 125.88C173.66 127.75 172.43 129.28 170.46 129.28C168.49 129.28 167.27 127.75 167.27 125.88Z" fill="white"/>
<path d="M175.3 129.11V122.65H176.3V123.68C176.82 123.01 177.57 122.5 178.45 122.5V123.53C178.33 123.52 178.21 123.5 178.06 123.5C177.43 123.5 176.59 124.01 176.29 124.53V129.1H175.3V129.11Z" fill="white"/>
<path d="M179.71 129.11V122.65H180.71V123.68C181.23 123.01 181.98 122.5 182.86 122.5V123.53C182.74 123.52 182.62 123.5 182.47 123.5C181.84 123.5 181 124.01 180.7 124.53V129.1H179.71V129.11Z" fill="white"/>
<path d="M188.16 127.75V126.52C187.77 126 187.09 125.73 186.4 125.73C185.45 125.73 184.79 126.32 184.79 127.13C184.79 127.96 185.44 128.55 186.4 128.55C187.09 128.55 187.78 128.28 188.16 127.75ZM188.16 129.11V128.38C187.64 128.97 186.89 129.28 186.02 129.28C184.94 129.28 183.78 128.55 183.78 127.14C183.78 125.68 184.93 125.01 186.02 125.01C186.9 125.01 187.64 125.29 188.16 125.88V124.72C188.16 123.86 187.46 123.37 186.53 123.37C185.75 123.37 185.13 123.64 184.55 124.27L184.08 123.57C184.78 122.85 185.6 122.5 186.66 122.5C188.04 122.5 189.16 123.11 189.16 124.68V129.12H188.16V129.11Z" fill="white"/>
<path d="M191.19 122.65H192.19V129.11H191.19V122.65ZM191.01 121.06C191.01 120.69 191.32 120.38 191.69 120.38C192.07 120.38 192.36 120.69 192.36 121.06C192.36 121.43 192.07 121.73 191.69 121.73C191.32 121.73 191.01 121.44 191.01 121.06Z" fill="white"/>
<path d="M198.57 129.11V124.89C198.57 123.74 197.98 123.39 197.11 123.39C196.32 123.39 195.59 123.87 195.2 124.39V129.11H194.2V122.65H195.2V123.59C195.66 123.04 196.54 122.49 197.51 122.49C198.85 122.49 199.56 123.17 199.56 124.57V129.1H198.57V129.11Z" fill="white"/>
<path d="M204.38 123.32C203 123.32 202.32 124.48 202.27 125.46H206.51C206.49 124.51 205.85 123.32 204.38 123.32ZM201.21 125.88C201.21 124.01 202.55 122.5 204.39 122.5C206.34 122.5 207.49 124.02 207.49 125.96V126.21H202.28C202.36 127.43 203.2 128.44 204.59 128.44C205.34 128.44 206.07 128.15 206.6 127.61L207.08 128.26C206.42 128.9 205.56 129.26 204.51 129.26C202.58 129.27 201.21 127.89 201.21 125.88Z" fill="white"/>
<path d="M75.43 37.3702C75.43 36.5602 74.86 35.8602 73.79 35.8602H70.65V38.8902H73.79C74.81 38.8902 75.43 38.3202 75.43 37.3702ZM75.21 32.7802C75.21 31.9802 74.66 31.3802 73.7 31.3802H70.64V34.1802H73.7C74.66 34.1802 75.21 33.6102 75.21 32.7802ZM68.74 40.5602V29.7002H74.08C76.08 29.7002 77.17 30.9402 77.17 32.4702C77.17 33.8202 76.29 34.7502 75.28 34.9602C76.45 35.1402 77.38 36.3002 77.38 37.6102C77.38 39.3002 76.27 40.5602 74.22 40.5602H68.74V40.5602Z" fill="white"/>
<path d="M86.2301 33.0902C86.2301 32.0502 85.4501 31.3802 84.3701 31.3802H81.7501V34.8302H84.3701C85.4501 34.8302 86.2301 34.1502 86.2301 33.0902ZM86.0501 40.5602L83.6601 36.5102H81.7601V40.5602H79.8601V29.7002H84.6301C86.7801 29.7002 88.1901 31.0802 88.1901 33.1002C88.1901 35.0202 86.9201 36.0802 85.6001 36.2902L88.2701 40.5502H86.0501V40.5602Z" fill="white"/>
<path d="M94.96 31.6102L93.01 36.7902H96.92L94.96 31.6102ZM98.25 40.5602L97.45 38.4602H92.47L91.67 40.5602H89.5L93.76 29.7002H96.14L100.4 40.5602H98.25Z" fill="white"/>
<path d="M101.27 39.03L102.34 37.55C103.07 38.35 104.26 39.06 105.77 39.06C107.33 39.06 107.93 38.29 107.93 37.56C107.93 35.28 101.61 36.7 101.61 32.71C101.61 30.9 103.17 29.52 105.57 29.52C107.25 29.52 108.63 30.07 109.62 31.05L108.55 32.47C107.69 31.61 106.53 31.22 105.39 31.22C104.28 31.22 103.57 31.77 103.57 32.57C103.57 34.61 109.89 33.35 109.89 37.39C109.89 39.2 108.6 40.76 105.69 40.76C103.7 40.76 102.25 40.04 101.27 39.03Z" fill="white"/>
<path d="M111.49 39.03L112.56 37.55C113.29 38.35 114.48 39.06 115.99 39.06C117.55 39.06 118.15 38.29 118.15 37.56C118.15 35.28 111.84 36.7 111.84 32.71C111.84 30.9 113.4 29.52 115.79 29.52C117.47 29.52 118.85 30.07 119.84 31.05L118.77 32.47C117.91 31.61 116.75 31.22 115.61 31.22C114.5 31.22 113.79 31.77 113.79 32.57C113.79 34.61 120.11 33.35 120.11 37.39C120.11 39.2 118.82 40.76 115.91 40.76C113.92 40.76 112.47 40.04 111.49 39.03Z" fill="white"/>
<path d="M122.41 40.56V29.71H129.85V31.38H124.31V34.18H129.73V35.86H124.31V38.89H129.85V40.56H122.41Z" fill="white"/>
<path d="M138.73 33.0902C138.73 32.0502 137.95 31.3802 136.88 31.3802H134.26V34.8302H136.88C137.95 34.8302 138.73 34.1502 138.73 33.0902ZM138.55 40.5602L136.16 36.5102H134.26V40.5602H132.36V29.7002H137.13C139.28 29.7002 140.69 31.0802 140.69 33.1002C140.69 35.0202 139.42 36.0802 138.1 36.2902L140.77 40.5502H138.55V40.5602Z" fill="white"/>
<path d="M145.04 29.71H143.14V40.57H145.04V29.71Z" fill="white"/>
<path d="M147.9 40.56V29.71H155.34V31.38H149.81V34.18H155.23V35.86H149.81V38.89H155.34V40.56H147.9Z" fill="white"/>
</svg>
