<svg width="9" height="74" viewBox="0 0 9 74" fill="none" xmlns="http://www.w3.org/2000/svg">
<path d="M7.72992 6.84961L8.83997 6.81964C8.77997 4.57964 8.67994 2.31961 8.55994 0.0996094L7.44995 0.159607C7.56995 2.36961 7.65992 4.61961 7.72992 6.84961Z" fill="white"/>
<path d="M0.699951 73.6299L1.77997 73.8899C2.30997 71.7299 2.80997 69.5199 3.27997 67.3399L2.18994 67.1099C1.72994 69.2799 1.22995 71.4699 0.699951 73.6299Z" fill="white"/>
<path d="M3.52002 60.5397L4.60999 60.7497C5.01999 58.5797 5.40001 56.3497 5.76001 54.1297L4.65997 53.9497C4.30997 56.1597 3.92002 58.3797 3.52002 60.5397Z" fill="white"/>
<path d="M5.62988 47.3199L6.73987 47.4699C7.02987 45.2599 7.29991 43.0199 7.52991 40.7899L6.41986 40.6699C6.18986 42.8899 5.91988 45.1299 5.62988 47.3199Z" fill="white"/>
<path d="M7.03003 34.0096L8.14001 34.0995C8.32001 31.8795 8.47002 29.6296 8.58002 27.3896L7.46997 27.3296C7.35997 29.5596 7.21003 31.7996 7.03003 34.0096Z" fill="white"/>
<path d="M7.82001 13.5396V13.9496C7.82001 16.1796 7.78998 18.4296 7.72998 20.6396L8.84003 20.6696C8.90003 18.4496 8.92999 16.1896 8.92999 13.9496V13.5396H7.82001Z" fill="white"/>
</svg>
