<svg width="68" height="58" viewBox="0 0 68 58" fill="none" xmlns="http://www.w3.org/2000/svg">
<path d="M15.13 42.5495L14.33 41.7695C12.77 43.3695 11.21 45.0195 9.69995 46.6495L10.52 47.4095C12.03 45.7795 13.58 44.1395 15.13 42.5495Z" fill="white"/>
<path d="M45.3 16.12L44.6301 15.23C42.8401 16.56 41.04 17.94 39.3 19.31L39.9901 20.19C41.7301 18.82 43.51 17.45 45.3 16.12Z" fill="white"/>
<path d="M24.72 33.2096L23.96 32.3896C22.33 33.8996 20.68 35.4596 19.08 37.0196L19.86 37.8196C21.46 36.2596 23.09 34.7096 24.72 33.2096Z" fill="white"/>
<path d="M6.04997 52.3799L5.20998 51.6499C3.73998 53.3299 2.26998 55.0499 0.849976 56.7699L1.70998 57.4799C3.12998 55.7699 4.58997 54.0599 6.04997 52.3799Z" fill="white"/>
<path d="M34.78 24.3898L34.07 23.5298C32.36 24.9498 30.64 26.4198 28.96 27.8898L29.69 28.7298C31.37 27.2698 33.08 25.8098 34.78 24.3898Z" fill="white"/>
<path d="M56.2301 8.41977L55.61 7.48975C53.75 8.72975 51.8901 9.99975 50.0701 11.2798L50.7101 12.1898C52.5201 10.9198 54.3801 9.64977 56.2301 8.41977Z" fill="white"/>
<path d="M67.54 1.31989L66.97 0.359863C65.05 1.49986 63.12 2.66988 61.24 3.84988L61.83 4.78989C63.71 3.61989 65.63 2.44989 67.54 1.31989Z" fill="white"/>
</svg>
