<svg width="77" height="67" viewBox="0 0 77 67" fill="none" xmlns="http://www.w3.org/2000/svg">
<path d="M72.6901 60.5903L71.8301 61.3003C73.2401 63.0003 74.66 64.7403 76.04 66.5003L76.92 65.8103C75.52 64.0503 74.1001 62.2903 72.6901 60.5903Z" fill="white"/>
<path d="M0.580078 0.850098L0.0400391 1.83008C1.98004 2.91008 3.94005 4.0301 5.86005 5.1601L6.43005 4.2001C4.50005 3.0501 2.53008 1.9301 0.580078 0.850098Z" fill="white"/>
<path d="M63.83 50.4805L63.01 51.2404C64.5 52.8504 66.01 54.5204 67.49 56.2104L68.33 55.4705C66.84 53.7805 65.32 52.1005 63.83 50.4805Z" fill="white"/>
<path d="M44.55 31.7402L43.8201 32.5802C45.4801 34.0402 47.16 35.5402 48.8 37.0502L49.5601 36.2303C47.9101 34.7103 46.23 33.2002 44.55 31.7402Z" fill="white"/>
<path d="M54.4399 40.8604L53.6599 41.6604C55.2499 43.2104 56.85 44.8004 58.4 46.3904L59.2 45.6104C57.64 44.0104 56.0399 42.4104 54.4399 40.8604Z" fill="white"/>
<path d="M12.1801 7.69043L11.5901 8.64044C13.4801 9.82044 15.38 11.0504 17.22 12.2704L17.8401 11.3404C15.9801 10.1004 14.0801 8.87043 12.1801 7.69043Z" fill="white"/>
<path d="M34.2 23.1602L33.51 24.0402C35.25 25.4102 37 26.8202 38.72 28.2502L39.43 27.3902C37.71 25.9502 35.94 24.5302 34.2 23.1602Z" fill="white"/>
<path d="M23.39 15.1304L22.75 16.0404C24.57 17.3204 26.4 18.6404 28.18 19.9604L28.84 19.0604C27.06 17.7404 25.22 16.4104 23.39 15.1304Z" fill="white"/>
</svg>
