<svg width="137" height="103" viewBox="0 0 137 103" fill="none" xmlns="http://www.w3.org/2000/svg">
<path d="M34.81 26.5304H20.21V24.7804C20.21 21.7904 22.02 19.1003 24.83 17.9803C25.14 17.8603 25.33 17.4803 25.2 17.1703C25.01 16.9203 24.64 16.7903 24.33 16.9203C23.95 17.0403 23.64 17.2303 23.33 17.4203L25.33 4.88037H29.76L31.69 17.4203C31.44 17.3003 31.19 17.1104 30.88 17.0504C30.57 16.9304 30.19 17.0504 30.07 17.3604C29.95 17.6704 30.07 18.0503 30.38 18.1703C33.06 19.3503 34.81 21.9704 34.81 24.8404V26.5304V26.5304ZM33.38 52.6003H21.65C20.84 52.6003 20.22 51.9803 20.22 51.1703V46.7404H34.82V51.1703C34.81 51.9803 34.13 52.6003 33.38 52.6003ZM34.81 45.4904H20.21V27.7704H34.81V45.4904ZM24.96 2.45038H30.08L30.2 3.64038H24.77L24.96 2.45038ZM33.13 18.3503L31.07 4.81036C31.19 4.81036 31.32 4.75036 31.45 4.62036C31.57 4.50036 31.64 4.31036 31.57 4.12036L31.32 2.19037C31.26 1.57037 30.7 1.13037 30.13 1.13037H24.95C24.33 1.13037 23.83 1.57037 23.77 2.19037L23.52 4.12036C23.52 4.31036 23.58 4.49036 23.64 4.62036C23.76 4.74036 23.95 4.81036 24.08 4.81036L21.9 18.3503C20.03 19.9103 18.97 22.2804 18.97 24.8404V51.1703C18.97 52.6703 20.16 53.8503 21.65 53.8503H33.32C34.82 53.8503 36 52.6703 36 51.1703V24.8404C36.06 22.2904 34.94 19.9803 33.13 18.3503Z" fill="#D6BC78"/>
<path d="M25.0899 3.35034H29.8799L29.8099 2.72034H25.1799L25.0899 3.35034ZM30.5099 3.91034H24.4499L24.7199 2.17035H30.3199L30.5099 3.91034ZM20.4899 26.2504H34.5299V24.8404C34.5299 22.0804 32.8599 19.5603 30.2699 18.4203C29.8299 18.2503 29.6299 17.7204 29.8099 17.2504C29.9899 16.8104 30.5199 16.6004 30.9799 16.7804C31.0999 16.8004 31.2099 16.8504 31.3299 16.9004L29.5199 5.15039H25.5699L23.6999 16.8804C23.8699 16.7904 24.0499 16.7104 24.2399 16.6504C24.6399 16.4904 25.1499 16.6304 25.4199 17.0004L25.4599 17.0604C25.6399 17.5104 25.3999 18.0503 24.9299 18.2303C22.2299 19.3103 20.4899 21.8804 20.4899 24.7704V26.2504V26.2504ZM35.0899 26.8104H19.9299V24.7804C19.9299 21.6604 21.8099 18.8803 24.7199 17.7203C24.8799 17.6503 24.9899 17.4604 24.9499 17.3104C24.8199 17.1704 24.5999 17.1104 24.4299 17.1804C24.0699 17.3004 23.7799 17.4703 23.4699 17.6603L22.9599 17.9703L25.0899 4.61035H29.9999L32.0499 17.9203L31.5699 17.6804C31.4899 17.6404 31.4199 17.6004 31.3399 17.5604C31.1699 17.4604 30.9999 17.3704 30.8199 17.3304C30.6099 17.2504 30.3899 17.3003 30.3199 17.4703C30.2499 17.6303 30.2999 17.8503 30.4799 17.9203C33.2799 19.1603 35.0799 21.8803 35.0799 24.8503V26.8104H35.0899ZM20.4899 45.2104H34.5299V28.0504H20.4899V45.2104ZM35.0899 45.7704H19.9299V27.5004H35.0899V45.7704ZM20.4899 47.0204V51.1703C20.4899 51.8303 20.9899 52.3304 21.6499 52.3304H33.3799C34.0099 52.3304 34.5399 51.8003 34.5399 51.1703V47.0204H20.4899ZM33.3799 52.8804H21.6499C20.6899 52.8804 19.9399 52.1303 19.9399 51.1703V46.4604H35.0999V51.1703C35.0899 52.1003 34.3099 52.8804 33.3799 52.8804ZM23.8699 4.46039C23.9399 4.51039 24.0299 4.54034 24.0799 4.54034H24.4099L22.1599 18.5004L22.0799 18.5704C20.2799 20.0704 19.2499 22.3604 19.2499 24.8404V51.1703C19.2499 52.5203 20.2999 53.5704 21.6499 53.5704H33.3199C34.6699 53.5704 35.7199 52.5103 35.7199 51.1703V24.8404C35.7799 22.4804 34.7599 20.1904 32.9399 18.5604L32.8599 18.4904L32.8499 18.3904L30.7399 4.5304H31.0599C31.1099 4.5304 31.1699 4.49035 31.2399 4.42035C31.2599 4.40035 31.3299 4.32039 31.2999 4.21039L31.0399 2.22034C30.9899 1.71034 30.5299 1.40039 30.1299 1.40039H24.9499C24.4599 1.40039 24.0899 1.73039 24.0399 2.21039L23.7899 4.15039C23.7999 4.25039 23.8299 4.37039 23.8699 4.46039ZM33.3199 54.1304H21.6499C19.9899 54.1304 18.6899 52.8303 18.6899 51.1703V24.8404C18.6899 22.2204 19.7599 19.8104 21.6399 18.2104L23.7699 5.0304C23.6599 4.9904 23.5499 4.92037 23.4499 4.82037L23.3999 4.75037C23.3499 4.66037 23.2499 4.41037 23.2499 4.13037L23.4999 2.16034C23.5699 1.41034 24.1899 0.860352 24.9599 0.860352H30.1399C30.8899 0.860352 31.5299 1.44035 31.5999 2.17035L31.8499 4.10034C31.9299 4.32034 31.8499 4.62038 31.6399 4.83038C31.5599 4.91038 31.4699 4.98039 31.3799 5.02039L33.3899 18.2203C35.2899 19.9603 36.3399 22.3704 36.2799 24.8604V51.1804C36.2799 52.8304 34.9799 54.1304 33.3199 54.1304Z" fill="#D6BC78"/>
<path d="M22.09 22.7203C21.78 22.6603 21.4 22.8403 21.34 23.2203C21.28 23.4103 21.28 23.5904 21.28 23.8404C21.28 24.2104 21.53 24.4604 21.84 24.5304H21.9C22.21 24.5304 22.52 24.2803 22.52 23.9703C22.52 23.8503 22.52 23.6604 22.58 23.5304C22.65 23.1004 22.46 22.7803 22.09 22.7203Z" fill="#D6BC78"/>
<path d="M21.97 22.99C21.89 22.99 21.81 23.01 21.75 23.06C21.7 23.09 21.63 23.16 21.62 23.27C21.56 23.46 21.56 23.61 21.56 23.85C21.56 24.1 21.73 24.23 21.9 24.26C22.08 24.25 22.25 24.11 22.25 23.97C22.25 23.83 22.25 23.63 22.32 23.46C22.34 23.27 22.31 23.04 22.05 23H22.04C22.01 22.99 21.99 22.99 21.97 22.99ZM21.9 24.81H21.78C21.31 24.72 20.99 24.33 20.99 23.85C20.99 23.59 20.99 23.37 21.07 23.14C21.1 22.95 21.23 22.74 21.43 22.6C21.64 22.46 21.89 22.4 22.14 22.45C22.66 22.54 22.95 22.99 22.86 23.57L22.83 23.66C22.8 23.73 22.8 23.89 22.8 23.97C22.8 24.42 22.38 24.81 21.9 24.81Z" fill="#D6BC78"/>
<path d="M24.21 19.6001C24.15 19.6001 23.21 20.1001 22.46 21.0401C22.21 21.2901 22.27 21.6601 22.52 21.9101C22.64 22.0301 22.77 22.0302 22.96 22.0302C23.15 22.0302 23.34 21.9702 23.46 21.8402C24.08 21.0902 24.83 20.7201 24.83 20.7201C25.14 20.5301 25.27 20.1601 25.08 19.9101C24.89 19.6601 24.52 19.4801 24.21 19.6001Z" fill="#D6BC78"/>
<path d="M24.26 19.8805C24.09 19.9605 23.32 20.4205 22.68 21.2105C22.61 21.2905 22.58 21.3405 22.58 21.4205C22.58 21.5205 22.63 21.6304 22.72 21.7204C22.76 21.7604 22.78 21.7605 22.96 21.7605C23.08 21.7605 23.2 21.7205 23.26 21.6505C23.9 20.8805 24.67 20.4905 24.7 20.4805C24.78 20.4305 24.86 20.3305 24.88 20.2305C24.89 20.1705 24.88 20.1205 24.85 20.0805C24.73 19.9205 24.48 19.7905 24.3 19.8605L24.26 19.8805ZM22.96 22.3105C22.75 22.3105 22.53 22.3104 22.33 22.1004C22.14 21.9104 22.03 21.6604 22.03 21.4104C22.03 21.1904 22.12 20.9905 22.27 20.8305C22.91 20.0305 23.78 19.4605 24.11 19.3405C24.55 19.1605 25.06 19.4105 25.31 19.7405C25.43 19.9105 25.48 20.1205 25.44 20.3305C25.39 20.5905 25.22 20.8105 24.98 20.9605C24.95 20.9705 24.25 21.3305 23.68 22.0205C23.48 22.2205 23.23 22.3105 22.96 22.3105Z" fill="#D6BC78"/>
<path d="M56.08 26.5304H41.48V24.7804C41.48 21.7904 43.29 19.1003 46.1 17.9803C46.41 17.8603 46.6 17.4803 46.47 17.1703C46.28 16.9203 45.91 16.7903 45.6 16.9203C45.23 17.0403 44.91 17.2303 44.6 17.4203L46.6 4.88037H51.03L52.96 17.4203C52.71 17.3003 52.46 17.1104 52.15 17.0504C51.84 16.9304 51.46 17.0504 51.34 17.3604C51.22 17.6704 51.34 18.0503 51.65 18.1703C54.33 19.3503 56.08 21.9704 56.08 24.8404V26.5304V26.5304ZM54.65 52.6003H42.92C42.11 52.6003 41.49 51.9803 41.49 51.1703V46.7404H56.09V51.1703C56.08 51.9803 55.4 52.6003 54.65 52.6003ZM56.08 45.4904H41.48V27.7704H56.08V45.4904ZM46.23 2.45038H51.35L51.47 3.64038H46.04L46.23 2.45038ZM54.4 18.3503L52.34 4.81036C52.46 4.81036 52.59 4.75036 52.72 4.62036C52.84 4.50036 52.91 4.31036 52.84 4.12036L52.59 2.19037C52.53 1.57037 51.97 1.13037 51.4 1.13037H46.22C45.6 1.13037 45.1 1.57037 45.04 2.19037L44.79 4.12036C44.79 4.31036 44.85 4.49036 44.91 4.62036C45.03 4.74036 45.22 4.81036 45.35 4.81036L43.17 18.3503C41.3 19.9103 40.24 22.2804 40.24 24.8404V51.1703C40.24 52.6703 41.43 53.8503 42.92 53.8503H54.59C56.09 53.8503 57.27 52.6703 57.27 51.1703V24.8404C57.33 22.2904 56.21 19.9803 54.4 18.3503Z" fill="#D6BC78"/>
<path d="M46.3699 3.35034H51.16L51.09 2.72034H46.46L46.3699 3.35034ZM51.78 3.91034H45.72L45.99 2.17035H51.59L51.78 3.91034ZM41.7599 26.2504H55.8V24.8404C55.8 22.0804 54.1299 19.5603 51.5399 18.4203C51.1099 18.2503 50.9 17.7204 51.08 17.2504C51.26 16.8004 51.79 16.6004 52.25 16.7804C52.37 16.8004 52.48 16.8504 52.6 16.9004L50.7899 5.15039H46.84L44.97 16.8804C45.14 16.7904 45.3199 16.7104 45.5099 16.6504C45.9099 16.4904 46.42 16.6304 46.69 17.0004L46.7299 17.0604C46.9099 17.5104 46.67 18.0503 46.2 18.2303C43.5 19.3103 41.7599 21.8804 41.7599 24.7704V26.2504V26.2504ZM56.36 26.8104H41.2V24.7804C41.2 21.6604 43.08 18.8803 45.99 17.7203C46.15 17.6503 46.26 17.4604 46.22 17.3104C46.09 17.1704 45.87 17.1104 45.7 17.1804C45.34 17.3004 45.05 17.4703 44.74 17.6603L44.2299 17.9703L46.36 4.61035H51.27L53.32 17.9203L52.84 17.6804C52.76 17.6404 52.69 17.6004 52.61 17.5604C52.44 17.4604 52.27 17.3704 52.09 17.3304C51.88 17.2504 51.66 17.3003 51.59 17.4703C51.53 17.6303 51.57 17.8503 51.75 17.9203C54.55 19.1603 56.35 21.8803 56.35 24.8503V26.8104H56.36ZM41.7599 45.2104H55.8V28.0504H41.7599V45.2104ZM56.36 45.7704H41.2V27.5004H56.36V45.7704ZM41.7599 47.0204V51.1703C41.7599 51.8303 42.26 52.3304 42.92 52.3304H54.6499C55.2799 52.3304 55.81 51.8003 55.81 51.1703V47.0204H41.7599ZM54.6499 52.8804H42.92C41.96 52.8804 41.21 52.1303 41.21 51.1703V46.4604H56.3699V51.1703C56.3599 52.1003 55.5799 52.8804 54.6499 52.8804ZM45.1499 4.46039C45.2199 4.51039 45.31 4.54034 45.36 4.54034H45.69L43.44 18.5004L43.36 18.5704C41.56 20.0704 40.53 22.3604 40.53 24.8404V51.1703C40.53 52.5203 41.5799 53.5704 42.9299 53.5704H54.6C55.95 53.5704 57 52.5103 57 51.1703V24.8404C57.06 22.4804 56.04 20.1904 54.22 18.5604L54.14 18.4904L54.13 18.3904L52.02 4.5304H52.34C52.39 4.5304 52.45 4.49035 52.52 4.42035C52.54 4.40035 52.61 4.32039 52.58 4.21039L52.32 2.22034C52.27 1.71034 51.81 1.40039 51.41 1.40039H46.2299C45.7399 1.40039 45.37 1.73039 45.32 2.21039L45.07 4.15039C45.07 4.25039 45.1099 4.37039 45.1499 4.46039ZM54.59 54.1304H42.92C41.26 54.1304 39.96 52.8303 39.96 51.1703V24.8404C39.96 22.2204 41.03 19.8104 42.91 18.2104L45.03 5.0304C44.92 4.9904 44.81 4.92037 44.71 4.82037L44.66 4.75037C44.61 4.66037 44.5099 4.41037 44.5099 4.13037L44.7599 2.16034C44.8399 1.41034 45.45 0.860352 46.22 0.860352H51.3999C52.1499 0.860352 52.79 1.44035 52.86 2.17035L53.11 4.10034C53.19 4.32034 53.1199 4.62038 52.8999 4.83038C52.8199 4.91038 52.73 4.98039 52.64 5.02039L54.6499 18.2203C56.5499 19.9603 57.5999 22.3704 57.5399 24.8604V51.1804C57.5499 52.8304 56.25 54.1304 54.59 54.1304Z" fill="#D6BC78"/>
<path d="M43.3599 22.7203C43.0499 22.6603 42.6699 22.8403 42.6099 23.2203C42.5499 23.4103 42.5499 23.5904 42.5499 23.8404C42.5499 24.2104 42.7999 24.4604 43.1099 24.5304H43.1699C43.4799 24.5304 43.7899 24.2803 43.7899 23.9703C43.7899 23.8503 43.7899 23.6604 43.8499 23.5304C43.9199 23.1004 43.7299 22.7803 43.3599 22.7203Z" fill="#D6BC78"/>
<path d="M43.24 22.99C43.16 22.99 43.08 23.01 43.02 23.06C42.97 23.09 42.9 23.16 42.89 23.27C42.83 23.46 42.83 23.61 42.83 23.85C42.83 24.1 43 24.23 43.17 24.26C43.35 24.25 43.52 24.11 43.52 23.97C43.52 23.83 43.52 23.63 43.59 23.46C43.61 23.27 43.58 23.04 43.32 23H43.31C43.28 22.99 43.26 22.99 43.24 22.99ZM43.17 24.81H43.05C42.58 24.72 42.26 24.33 42.26 23.85C42.26 23.59 42.26 23.37 42.34 23.14C42.37 22.95 42.5 22.74 42.7 22.6C42.91 22.46 43.16 22.4 43.41 22.45C43.93 22.54 44.22 22.99 44.13 23.57L44.1 23.66C44.07 23.73 44.07 23.89 44.07 23.97C44.07 24.42 43.65 24.81 43.17 24.81Z" fill="#D6BC78"/>
<path d="M45.48 19.6001C45.42 19.6001 44.48 20.1001 43.73 21.0401C43.48 21.2901 43.54 21.6601 43.79 21.9101C43.91 22.0301 44.04 22.0302 44.23 22.0302C44.42 22.0302 44.61 21.9702 44.73 21.8402C45.35 21.0902 46.1 20.7201 46.1 20.7201C46.41 20.5301 46.54 20.1601 46.35 19.9101C46.17 19.6601 45.79 19.4801 45.48 19.6001Z" fill="#D6BC78"/>
<path d="M45.5299 19.8805C45.3599 19.9605 44.5899 20.4205 43.9499 21.2105C43.8799 21.2905 43.8499 21.3405 43.8499 21.4205C43.8499 21.5205 43.8999 21.6304 43.9899 21.7204C44.0299 21.7604 44.0499 21.7605 44.2299 21.7605C44.3499 21.7605 44.4699 21.7205 44.5299 21.6505C45.1599 20.8805 45.9399 20.4905 45.9699 20.4805C46.0499 20.4305 46.1299 20.3305 46.1499 20.2305C46.1599 20.1705 46.1499 20.1205 46.1199 20.0805C45.9999 19.9205 45.7499 19.7905 45.5699 19.8605L45.5299 19.8805ZM44.2299 22.3105C44.0199 22.3105 43.7999 22.3104 43.5999 22.1004C43.4099 21.9104 43.2999 21.6604 43.2999 21.4104C43.2999 21.1904 43.3899 20.9905 43.5399 20.8305C44.1799 20.0305 45.0499 19.4605 45.3799 19.3405C45.8199 19.1605 46.3299 19.4105 46.5799 19.7405C46.6999 19.9105 46.7499 20.1205 46.7099 20.3305C46.6599 20.5905 46.4899 20.8205 46.2499 20.9605C46.2199 20.9705 45.5199 21.3305 44.9499 22.0205C44.7599 22.2205 44.4999 22.3105 44.2299 22.3105Z" fill="#D6BC78"/>
<path d="M117.6 26.5304H103V24.7804C103 21.7904 104.81 19.1003 107.62 17.9803C107.93 17.8603 108.12 17.4803 107.99 17.1703C107.8 16.9203 107.43 16.7903 107.12 16.9203C106.75 17.0403 106.43 17.2303 106.12 17.4203L108.12 4.88037H112.55L114.48 17.4203C114.23 17.3003 113.98 17.1104 113.67 17.0504C113.36 16.9304 112.98 17.0504 112.86 17.3604C112.74 17.6704 112.86 18.0503 113.17 18.1703C115.85 19.3503 117.6 21.9704 117.6 24.8404V26.5304V26.5304ZM116.16 52.6003H104.43C103.62 52.6003 103 51.9803 103 51.1703V46.7404H117.6V51.1703C117.6 51.9803 116.91 52.6003 116.16 52.6003ZM117.6 45.4904H103V27.7704H117.6V45.4904ZM107.74 2.45038H112.86L112.98 3.64038H107.55L107.74 2.45038ZM115.91 18.3503L113.85 4.81036C113.97 4.81036 114.1 4.75036 114.23 4.62036C114.35 4.50036 114.42 4.31036 114.35 4.12036L114.1 2.19037C114.04 1.57037 113.48 1.13037 112.91 1.13037H107.73C107.11 1.13037 106.61 1.57037 106.55 2.19037L106.3 4.12036C106.3 4.31036 106.36 4.49036 106.42 4.62036C106.54 4.74036 106.73 4.81036 106.86 4.81036L104.68 18.3503C102.81 19.9103 101.75 22.2804 101.75 24.8404V51.1703C101.75 52.6703 102.94 53.8503 104.43 53.8503H116.1C117.6 53.8503 118.78 52.6703 118.78 51.1703V24.8404C118.84 22.2904 117.72 19.9803 115.91 18.3503Z" fill="#D6BC78"/>
<path d="M107.88 3.35034H112.67L112.6 2.72034H107.97L107.88 3.35034ZM113.29 3.91034H107.23L107.5 2.17035H113.1L113.29 3.91034ZM103.28 26.2504H117.32V24.8404C117.32 22.0804 115.65 19.5603 113.06 18.4203C112.63 18.2503 112.42 17.7204 112.6 17.2504C112.78 16.8004 113.31 16.6004 113.77 16.7804C113.89 16.8004 114 16.8504 114.12 16.9004L112.31 5.15039H108.36L106.49 16.8804C106.66 16.7904 106.84 16.7104 107.03 16.6504C107.43 16.4904 107.94 16.6304 108.21 17.0004L108.25 17.0604C108.43 17.5104 108.19 18.0503 107.72 18.2303C105.02 19.3103 103.28 21.8804 103.28 24.7704V26.2504V26.2504ZM117.87 26.8104H102.71V24.7804C102.71 21.6604 104.59 18.8803 107.5 17.7203C107.66 17.6503 107.77 17.4604 107.73 17.3104C107.6 17.1704 107.38 17.1104 107.21 17.1804C106.85 17.3004 106.56 17.4703 106.25 17.6603L105.74 17.9703L107.87 4.61035H112.78L114.83 17.9203L114.35 17.6804C114.27 17.6404 114.2 17.6004 114.12 17.5604C113.95 17.4604 113.78 17.3704 113.6 17.3304C113.39 17.2504 113.17 17.3003 113.1 17.4703C113.04 17.6303 113.08 17.8503 113.26 17.9203C116.06 19.1603 117.86 21.8803 117.86 24.8503V26.8104H117.87ZM103.28 45.2104H117.32V28.0504H103.28V45.2104ZM117.87 45.7704H102.71V27.5004H117.87V45.7704ZM103.28 47.0204V51.1703C103.28 51.8303 103.78 52.3304 104.44 52.3304H116.17C116.8 52.3304 117.33 51.8003 117.33 51.1703V47.0204H103.28ZM116.16 52.8804H104.43C103.47 52.8804 102.72 52.1303 102.72 51.1703V46.4604H117.88V51.1703C117.87 52.1003 117.09 52.8804 116.16 52.8804ZM106.66 4.46039C106.73 4.51039 106.82 4.54034 106.87 4.54034H107.2L104.95 18.5004L104.87 18.5704C103.07 20.0704 102.04 22.3604 102.04 24.8404V51.1703C102.04 52.5203 103.09 53.5704 104.44 53.5704H116.11C117.46 53.5704 118.51 52.5103 118.51 51.1703V24.8404C118.57 22.4804 117.55 20.1904 115.73 18.5604L115.65 18.4904L115.64 18.3904L113.53 4.5304H113.85C113.9 4.5304 113.96 4.49035 114.03 4.42035C114.05 4.40035 114.12 4.32039 114.09 4.21039L113.83 2.22034C113.78 1.71034 113.32 1.40039 112.92 1.40039H107.74C107.25 1.40039 106.88 1.73039 106.83 2.21039L106.58 4.15039C106.58 4.25039 106.62 4.37039 106.66 4.46039ZM116.1 54.1304H104.43C102.77 54.1304 101.47 52.8303 101.47 51.1703V24.8404C101.47 22.2204 102.54 19.8104 104.42 18.2104L106.54 5.0304C106.43 4.9904 106.32 4.92037 106.22 4.82037L106.17 4.75037C106.12 4.66037 106.01 4.41037 106.01 4.13037L106.26 2.16034C106.34 1.41034 106.95 0.860352 107.72 0.860352H112.9C113.65 0.860352 114.29 1.44035 114.36 2.17035L114.61 4.10034C114.69 4.32034 114.62 4.62038 114.4 4.83038C114.32 4.91038 114.23 4.98039 114.14 5.02039L116.15 18.2203C118.05 19.9603 119.1 22.3704 119.04 24.8604V51.1804C119.06 52.8304 117.76 54.1304 116.1 54.1304Z" fill="#D6BC78"/>
<path d="M104.87 22.7203C104.56 22.6603 104.18 22.8403 104.12 23.2203C104.06 23.4103 104.06 23.5904 104.06 23.8404C104.06 24.2104 104.31 24.4604 104.62 24.5304H104.68C104.99 24.5304 105.3 24.2803 105.3 23.9703C105.3 23.8503 105.3 23.6604 105.36 23.5304C105.43 23.1004 105.24 22.7803 104.87 22.7203Z" fill="#D6BC78"/>
<path d="M104.75 22.99C104.67 22.99 104.59 23.01 104.53 23.06C104.48 23.09 104.41 23.16 104.4 23.27C104.34 23.46 104.34 23.61 104.34 23.85C104.34 24.1 104.51 24.23 104.68 24.26C104.86 24.25 105.03 24.11 105.03 23.97C105.03 23.83 105.03 23.63 105.1 23.46C105.12 23.27 105.09 23.04 104.83 23H104.82C104.79 22.99 104.77 22.99 104.75 22.99ZM104.68 24.81H104.56C104.09 24.72 103.77 24.33 103.77 23.85C103.77 23.59 103.77 23.37 103.85 23.14C103.88 22.95 104.01 22.74 104.21 22.6C104.42 22.46 104.67 22.4 104.92 22.45C105.44 22.54 105.73 22.99 105.64 23.57L105.61 23.66C105.58 23.73 105.58 23.89 105.58 23.97C105.58 24.42 105.16 24.81 104.68 24.81Z" fill="#D6BC78"/>
<path d="M106.99 19.6001C106.93 19.6001 105.99 20.1001 105.24 21.0401C104.99 21.2901 105.05 21.6601 105.3 21.9101C105.42 22.0301 105.55 22.0302 105.74 22.0302C105.93 22.0302 106.12 21.9702 106.24 21.8402C106.86 21.0902 107.61 20.7201 107.61 20.7201C107.92 20.5301 108.05 20.1601 107.86 19.9101C107.68 19.6601 107.3 19.4801 106.99 19.6001Z" fill="#D6BC78"/>
<path d="M107.04 19.8805C106.87 19.9605 106.1 20.4205 105.46 21.2105C105.39 21.2905 105.36 21.3405 105.36 21.4205C105.36 21.5205 105.41 21.6304 105.5 21.7204C105.54 21.7604 105.56 21.7605 105.74 21.7605C105.86 21.7605 105.98 21.7205 106.04 21.6505C106.67 20.8805 107.45 20.4905 107.48 20.4805C107.56 20.4305 107.64 20.3305 107.66 20.2305C107.67 20.1705 107.66 20.1205 107.63 20.0805C107.51 19.9205 107.26 19.7905 107.08 19.8605L107.04 19.8805ZM105.74 22.3105C105.53 22.3105 105.31 22.3104 105.11 22.1004C104.92 21.9104 104.81 21.6604 104.81 21.4104C104.81 21.1904 104.9 20.9905 105.05 20.8305C105.69 20.0305 106.56 19.4605 106.89 19.3405C107.33 19.1605 107.84 19.4105 108.09 19.7405C108.21 19.9105 108.26 20.1205 108.22 20.3305C108.17 20.5905 108 20.8205 107.76 20.9605C107.73 20.9705 107.03 21.3305 106.46 22.0205C106.27 22.2205 106.01 22.3105 105.74 22.3105Z" fill="#D6BC78"/>
<path d="M9.49994 71.0402C11.5499 75.1802 16.5799 76.8802 20.7199 74.8302C24.8599 72.7802 26.5599 67.7502 24.5099 63.6102C22.4599 59.4702 17.4299 57.7702 13.2899 59.8202C9.15993 61.8702 7.45994 66.9002 9.49994 71.0402ZM7.94993 71.8102C5.47993 66.8202 7.52994 60.7402 12.5199 58.2702C17.5099 55.8002 23.5899 57.8503 26.0599 62.8403C28.5299 67.8303 26.4799 73.9102 21.4899 76.3802C16.4999 78.8502 10.4199 76.8002 7.94993 71.8102Z" fill="#D6BC78"/>
<path d="M14.1099 68.7604C14.8999 70.3604 16.8499 71.0203 18.4499 70.2203C20.0499 69.4203 20.7099 67.4804 19.9099 65.8804C19.1199 64.2804 17.1699 63.6203 15.5699 64.4203C13.9699 65.2103 13.3099 67.1604 14.1099 68.7604ZM12.5499 69.5304C11.3299 67.0704 12.3399 64.0904 14.7999 62.8704C17.2599 61.6504 20.2399 62.6604 21.4599 65.1204C22.6799 67.5804 21.6699 70.5604 19.2099 71.7804C16.7599 72.9904 13.7699 71.9804 12.5499 69.5304Z" fill="#D6BC78"/>
<path d="M113.49 71.0402C115.54 75.1802 120.57 76.8802 124.71 74.8302C128.85 72.7802 130.55 67.7502 128.5 63.6102C126.45 59.4702 121.42 57.7702 117.28 59.8202C113.14 61.8702 111.44 66.9002 113.49 71.0402ZM111.93 71.8102C109.46 66.8202 111.51 60.7402 116.5 58.2702C121.49 55.8002 127.57 57.8503 130.04 62.8403C132.51 67.8303 130.46 73.9102 125.47 76.3802C120.48 78.8502 114.41 76.8002 111.93 71.8102Z" fill="#D6BC78"/>
<path d="M118.09 68.7604C118.88 70.3604 120.83 71.0203 122.43 70.2203C124.03 69.4203 124.69 67.4804 123.89 65.8804C123.1 64.2804 121.15 63.6203 119.55 64.4203C117.95 65.2103 117.3 67.1604 118.09 68.7604ZM116.54 69.5304C115.32 67.0704 116.33 64.0904 118.79 62.8704C121.25 61.6504 124.23 62.6604 125.45 65.1204C126.67 67.5804 125.66 70.5604 123.2 71.7804C120.74 72.9904 117.75 71.9804 116.54 69.5304Z" fill="#D6BC78"/>
<path d="M61.55 71.0402C63.6 75.1802 68.63 76.8802 72.77 74.8302C76.91 72.7802 78.61 67.7502 76.56 63.6102C74.51 59.4702 69.48 57.7702 65.34 59.8202C61.2 61.8702 59.5 66.9002 61.55 71.0402ZM60 71.8102C57.53 66.8202 59.58 60.7402 64.57 58.2702C69.56 55.8002 75.64 57.8503 78.11 62.8403C80.58 67.8303 78.53 73.9102 73.54 76.3802C68.54 78.8502 62.47 76.8002 60 71.8102Z" fill="#D6BC78"/>
<path d="M66.15 68.7604C66.94 70.3604 68.89 71.0203 70.49 70.2203C72.09 69.4203 72.75 67.4804 71.95 65.8804C71.16 64.2804 69.21 63.6203 67.61 64.4203C66.02 65.2103 65.36 67.1604 66.15 68.7604ZM64.6 69.5304C63.38 67.0704 64.39 64.0904 66.85 62.8704C69.31 61.6504 72.29 62.6604 73.51 65.1204C74.73 67.5804 73.72 70.5604 71.26 71.7804C68.8 72.9904 65.81 71.9804 64.6 69.5304Z" fill="#D6BC78"/>
<path d="M29.17 41.0905C28.86 41.2705 28.54 41.4005 28.21 41.4805C28.21 41.4905 28.21 41.5105 28.21 41.5205C28.21 41.9105 27.89 42.2405 27.5 42.2405C27.1 42.2405 26.7899 41.9205 26.7899 41.5305C26.7899 41.5205 26.7899 41.5005 26.7899 41.4905C26.4599 41.4105 26.14 41.2805 25.83 41.1005C25.33 40.8105 24.87 40.3905 24.47 39.8705C23.68 38.8205 23.2299 37.4505 23.2299 36.1005C23.2299 34.7805 23.6599 33.6805 24.4799 32.9105C25.0799 32.3505 25.8799 31.9905 26.7899 31.8605C26.7899 31.8405 26.7899 31.8305 26.7899 31.8105C26.7899 31.4105 27.11 31.1005 27.5 31.1005C27.89 31.1005 28.21 31.4205 28.21 31.8105C28.21 31.8305 28.21 31.8405 28.21 31.8605C29.11 31.9805 29.91 32.3405 30.52 32.9105C31.34 33.6705 31.77 34.7805 31.78 36.0905C31.78 37.4405 31.3299 38.8105 30.5399 39.8605C30.1299 40.3805 29.67 40.7905 29.17 41.0905ZM28.31 31.7505C28.28 31.3205 27.93 30.9805 27.5 30.9805C27.07 30.9805 26.7099 31.3205 26.6799 31.7505C24.5599 32.0805 22.95 33.5505 22.95 36.0905C22.95 38.6205 24.56 41.0505 26.69 41.5805C26.72 42.0005 27.07 42.3405 27.5 42.3405C27.93 42.3405 28.28 42.0005 28.31 41.5805C30.43 41.0505 32.0399 38.6205 32.0399 36.0905C32.0399 33.5505 30.43 32.0705 28.31 31.7505Z" fill="#D6BC78"/>
<path d="M27.5 37.3001V42.0401C27.2 42.0401 26.96 41.8001 26.96 41.5001C26.96 41.4301 26.97 41.3601 27 41.2901C26.98 41.2901 26.9599 41.3001 26.9299 41.3001C26.6999 41.3001 26.5099 41.1101 26.5099 40.8801C26.5099 40.6501 26.6999 40.4601 26.9299 40.4601V37.8701L27.5 37.3001H23.92C23.92 37.0001 24.16 36.7601 24.46 36.7601C24.53 36.7601 24.6 36.7801 24.67 36.8001C24.67 36.7801 24.66 36.7601 24.66 36.7301C24.66 36.5001 24.85 36.3101 25.08 36.3101C25.31 36.3101 25.5 36.5001 25.5 36.7301H26.92V35.1001L27.49 34.5302H24.33C24.33 34.2302 24.5699 33.9901 24.8699 33.9901C24.9399 33.9901 25.01 34.0102 25.08 34.0302C25.08 34.0102 25.07 33.9901 25.07 33.9601C25.07 33.7301 25.26 33.5401 25.49 33.5401C25.72 33.5401 25.91 33.7301 25.91 33.9601H26.92V32.8301C26.69 32.8301 26.5 32.6401 26.5 32.4101C26.5 32.1801 26.69 31.9901 26.92 31.9901C26.94 31.9901 26.96 31.9901 26.99 32.0001C26.96 31.9401 26.95 31.8701 26.95 31.7901C26.95 31.4901 27.19 31.2501 27.49 31.2501V34.5401L28.06 33.9701H29.07C29.07 33.7401 29.26 33.5501 29.49 33.5501C29.72 33.5501 29.91 33.7401 29.91 33.9701C29.91 33.9901 29.9099 34.0101 29.8999 34.0401C29.9599 34.0101 30.03 34.0001 30.11 34.0001C30.41 34.0001 30.6499 34.2401 30.6499 34.5401H27.49L27.5 37.3001L28.07 36.7301H29.49C29.49 36.5001 29.68 36.3101 29.91 36.3101C30.14 36.3101 30.33 36.5001 30.33 36.7301C30.33 36.7501 30.33 36.7701 30.32 36.8001C30.38 36.7701 30.45 36.7601 30.53 36.7601C30.83 36.7601 31.07 37.0001 31.07 37.3001H27.5ZM30.53 36.6701C30.49 36.6701 30.45 36.6701 30.41 36.6801C30.38 36.4201 30.1699 36.2201 29.8999 36.2201C29.6499 36.2201 29.4399 36.4001 29.3999 36.6401H28.14V35.1901H28.9799C29.0199 35.4301 29.2299 35.6101 29.4799 35.6101C29.7399 35.6101 29.96 35.4101 29.99 35.1501C30.03 35.1601 30.07 35.1601 30.11 35.1601C30.46 35.1601 30.74 34.8802 30.74 34.5302C30.74 34.1802 30.46 33.9001 30.11 33.9001C30.07 33.9001 30.03 33.9001 29.99 33.9101C29.96 33.6501 29.7499 33.4501 29.4799 33.4501C29.2299 33.4501 29.0199 33.6301 28.9799 33.8701H28.14V32.9001C28.38 32.8601 28.56 32.6501 28.56 32.4001C28.56 32.1401 28.36 31.9201 28.1 31.8901C28.11 31.8501 28.11 31.8101 28.11 31.7701C28.11 31.4201 27.8299 31.1401 27.4799 31.1401C27.1299 31.1401 26.85 31.4201 26.85 31.7701C26.85 31.8101 26.85 31.8501 26.86 31.8901C26.6 31.9201 26.3999 32.1301 26.3999 32.4001C26.3999 32.6501 26.58 32.8601 26.82 32.9001V33.8701H26C25.96 33.6301 25.75 33.4501 25.5 33.4501C25.24 33.4501 25.02 33.6501 25 33.9101C24.96 33.9001 24.92 33.9001 24.88 33.9001C24.53 33.9001 24.25 34.1802 24.25 34.5302C24.25 34.8802 24.53 35.1601 24.88 35.1601C24.92 35.1601 24.96 35.1601 25 35.1501C25.03 35.4101 25.2399 35.6101 25.5099 35.6101C25.7599 35.6101 25.9699 35.4301 26.0099 35.1901H26.85V36.6401H25.59C25.55 36.4001 25.34 36.2201 25.09 36.2201C24.83 36.2201 24.61 36.4201 24.58 36.6801C24.54 36.6701 24.5 36.6701 24.46 36.6701C24.11 36.6701 23.83 36.9501 23.83 37.3001C23.83 37.6501 24.11 37.9301 24.46 37.9301C24.5 37.9301 24.54 37.9301 24.58 37.9201C24.61 38.1801 24.82 38.3801 25.09 38.3801C25.34 38.3801 25.55 38.2001 25.59 37.9601H26.85V40.4001C26.61 40.4401 26.4299 40.6501 26.4299 40.9001C26.4299 41.1601 26.63 41.3801 26.89 41.4101C26.88 41.4501 26.88 41.4902 26.88 41.5302C26.88 41.8802 27.1599 42.1601 27.5099 42.1601C27.8599 42.1601 28.14 41.8802 28.14 41.5302C28.14 41.4902 28.14 41.4501 28.13 41.4101C28.39 41.3901 28.59 41.1701 28.59 40.9001C28.59 40.6501 28.41 40.4401 28.17 40.4001V37.9601H29.4299C29.4699 38.2001 29.6799 38.3801 29.9299 38.3801C30.1899 38.3801 30.41 38.1801 30.44 37.9201C30.48 37.9301 30.52 37.9301 30.56 37.9301C30.91 37.9301 31.19 37.6501 31.19 37.3001C31.16 36.9501 30.88 36.6701 30.53 36.6701Z" fill="#D6BC78"/>
<path d="M50.17 41.0905C49.86 41.2705 49.54 41.4005 49.21 41.4805C49.21 41.4905 49.21 41.5105 49.21 41.5205C49.21 41.9105 48.89 42.2405 48.5 42.2405C48.11 42.2405 47.7899 41.9205 47.7899 41.5305C47.7899 41.5205 47.7899 41.5005 47.7899 41.4905C47.4599 41.4105 47.14 41.2805 46.83 41.1005C46.33 40.8105 45.87 40.3905 45.47 39.8705C44.68 38.8205 44.2299 37.4505 44.2299 36.1005C44.2299 34.7805 44.6599 33.6805 45.4799 32.9105C46.0799 32.3505 46.8799 31.9905 47.7899 31.8605C47.7899 31.8405 47.7899 31.8305 47.7899 31.8105C47.7899 31.4105 48.11 31.1005 48.5 31.1005C48.89 31.1005 49.21 31.4205 49.21 31.8105C49.21 31.8305 49.21 31.8405 49.21 31.8605C50.11 31.9805 50.91 32.3405 51.52 32.9105C52.34 33.6705 52.77 34.7805 52.78 36.0905C52.78 37.4405 52.3299 38.8105 51.5399 39.8605C51.1299 40.3805 50.68 40.7905 50.17 41.0905ZM49.31 31.7505C49.28 31.3205 48.93 30.9805 48.5 30.9805C48.07 30.9805 47.7099 31.3205 47.6799 31.7505C45.5599 32.0805 43.95 33.5505 43.95 36.0905C43.95 38.6205 45.56 41.0505 47.69 41.5805C47.72 42.0005 48.07 42.3405 48.5 42.3405C48.93 42.3405 49.28 42.0005 49.31 41.5805C51.43 41.0505 53.0399 38.6205 53.0399 36.0905C53.0399 33.5505 51.43 32.0705 49.31 31.7505Z" fill="#D6BC78"/>
<path d="M48.5 37.3001V42.0401C48.2 42.0401 47.96 41.8001 47.96 41.5001C47.96 41.4301 47.97 41.3601 48 41.2901C47.98 41.2901 47.9599 41.3001 47.9299 41.3001C47.6999 41.3001 47.5099 41.1101 47.5099 40.8801C47.5099 40.6501 47.6999 40.4601 47.9299 40.4601V37.8701L48.5 37.3001H44.92C44.92 37.0001 45.16 36.7601 45.46 36.7601C45.53 36.7601 45.6 36.7801 45.67 36.8001C45.67 36.7801 45.66 36.7601 45.66 36.7301C45.66 36.5001 45.85 36.3101 46.08 36.3101C46.31 36.3101 46.5 36.5001 46.5 36.7301H47.92V35.1001L48.49 34.5302H45.33C45.33 34.2302 45.5699 33.9901 45.8699 33.9901C45.9399 33.9901 46.01 34.0102 46.08 34.0302C46.08 34.0102 46.07 33.9901 46.07 33.9601C46.07 33.7301 46.26 33.5401 46.49 33.5401C46.72 33.5401 46.91 33.7301 46.91 33.9601H47.92V32.8301C47.69 32.8301 47.5 32.6401 47.5 32.4101C47.5 32.1801 47.69 31.9901 47.92 31.9901C47.94 31.9901 47.96 31.9901 47.99 32.0001C47.96 31.9401 47.95 31.8701 47.95 31.7901C47.95 31.4901 48.19 31.2501 48.49 31.2501V34.5401L49.06 33.9701H50.07C50.07 33.7401 50.26 33.5501 50.49 33.5501C50.72 33.5501 50.91 33.7401 50.91 33.9701C50.91 33.9901 50.9099 34.0101 50.8999 34.0401C50.9599 34.0101 51.03 34.0001 51.11 34.0001C51.41 34.0001 51.6499 34.2401 51.6499 34.5401H48.49L48.5 37.3001L49.07 36.7301H50.49C50.49 36.5001 50.68 36.3101 50.91 36.3101C51.14 36.3101 51.33 36.5001 51.33 36.7301C51.33 36.7501 51.33 36.7701 51.32 36.8001C51.38 36.7701 51.45 36.7601 51.53 36.7601C51.83 36.7601 52.07 37.0001 52.07 37.3001H48.5ZM51.53 36.6701C51.49 36.6701 51.45 36.6701 51.41 36.6801C51.38 36.4201 51.1699 36.2201 50.8999 36.2201C50.6499 36.2201 50.4399 36.4001 50.3999 36.6401H49.14V35.1901H50C50.04 35.4301 50.25 35.6101 50.5 35.6101C50.76 35.6101 50.9799 35.4101 51.0099 35.1501C51.0499 35.1601 51.09 35.1601 51.13 35.1601C51.48 35.1601 51.7599 34.8802 51.7599 34.5302C51.7599 34.1802 51.48 33.9001 51.13 33.9001C51.09 33.9001 51.0499 33.9001 51.0099 33.9101C50.9799 33.6501 50.77 33.4501 50.5 33.4501C50.25 33.4501 50.04 33.6301 50 33.8701H49.16V32.9001C49.4 32.8601 49.58 32.6501 49.58 32.4001C49.58 32.1401 49.3799 31.9201 49.1199 31.8901C49.1299 31.8501 49.13 31.8101 49.13 31.7701C49.13 31.4201 48.85 31.1401 48.5 31.1401C48.15 31.1401 47.8699 31.4201 47.8699 31.7701C47.8699 31.8101 47.87 31.8501 47.88 31.8901C47.62 31.9201 47.42 32.1301 47.42 32.4001C47.42 32.6501 47.6 32.8601 47.84 32.9001V33.8701H47C46.96 33.6301 46.75 33.4501 46.5 33.4501C46.24 33.4501 46.02 33.6501 46 33.9101C45.96 33.9001 45.92 33.9001 45.88 33.9001C45.53 33.9001 45.25 34.1802 45.25 34.5302C45.25 34.8802 45.53 35.1601 45.88 35.1601C45.92 35.1601 45.96 35.1601 46 35.1501C46.03 35.4101 46.2399 35.6101 46.5099 35.6101C46.7599 35.6101 46.9699 35.4301 47.0099 35.1901H47.85V36.6401H46.59C46.55 36.4001 46.34 36.2201 46.09 36.2201C45.83 36.2201 45.61 36.4201 45.58 36.6801C45.54 36.6701 45.5 36.6701 45.46 36.6701C45.11 36.6701 44.83 36.9501 44.83 37.3001C44.83 37.6501 45.11 37.9301 45.46 37.9301C45.5 37.9301 45.54 37.9301 45.58 37.9201C45.61 38.1801 45.82 38.3801 46.09 38.3801C46.34 38.3801 46.55 38.2001 46.59 37.9601H47.85V40.4001C47.61 40.4401 47.4299 40.6501 47.4299 40.9001C47.4299 41.1601 47.63 41.3801 47.89 41.4101C47.88 41.4501 47.88 41.4902 47.88 41.5302C47.88 41.8802 48.1599 42.1601 48.5099 42.1601C48.8599 42.1601 49.14 41.8802 49.14 41.5302C49.14 41.4902 49.14 41.4501 49.13 41.4101C49.39 41.3901 49.59 41.1701 49.59 40.9001C49.59 40.6501 49.41 40.4401 49.17 40.4001V37.9601H50.4299C50.4699 38.2001 50.6799 38.3801 50.9299 38.3801C51.1899 38.3801 51.41 38.1801 51.44 37.9201C51.48 37.9301 51.52 37.9301 51.56 37.9301C51.91 37.9301 52.19 37.6501 52.19 37.3001C52.16 36.9501 51.88 36.6701 51.53 36.6701Z" fill="#D6BC78"/>
<path d="M111.81 41.0905C111.5 41.2705 111.18 41.4005 110.85 41.4805C110.85 41.4905 110.85 41.5105 110.85 41.5205C110.85 41.9105 110.53 42.2405 110.14 42.2405C109.75 42.2405 109.43 41.9205 109.43 41.5305C109.43 41.5205 109.43 41.5005 109.43 41.4905C109.1 41.4105 108.78 41.2805 108.47 41.1005C107.97 40.8105 107.51 40.3905 107.11 39.8705C106.32 38.8205 105.87 37.4505 105.87 36.1005C105.87 34.7805 106.3 33.6805 107.12 32.9105C107.72 32.3505 108.52 31.9905 109.43 31.8605C109.43 31.8405 109.43 31.8305 109.43 31.8105C109.43 31.4105 109.75 31.1005 110.14 31.1005C110.53 31.1005 110.85 31.4205 110.85 31.8105C110.85 31.8305 110.85 31.8405 110.85 31.8605C111.75 31.9805 112.55 32.3405 113.16 32.9105C113.98 33.6705 114.41 34.7805 114.42 36.0905C114.42 37.4405 113.97 38.8105 113.18 39.8605C112.77 40.3805 112.31 40.7905 111.81 41.0905ZM110.95 31.7505C110.92 31.3205 110.57 30.9805 110.14 30.9805C109.71 30.9805 109.35 31.3205 109.32 31.7505C107.2 32.0805 105.59 33.5505 105.59 36.0905C105.59 38.6205 107.2 41.0505 109.33 41.5805C109.36 42.0005 109.71 42.3405 110.14 42.3405C110.57 42.3405 110.92 42.0005 110.95 41.5805C113.07 41.0505 114.68 38.6205 114.68 36.0905C114.68 33.5505 113.07 32.0705 110.95 31.7505Z" fill="#D6BC78"/>
<path d="M110.13 37.3001V42.0401C109.83 42.0401 109.59 41.8001 109.59 41.5001C109.59 41.4301 109.6 41.3601 109.63 41.2901C109.61 41.2901 109.59 41.3001 109.56 41.3001C109.33 41.3001 109.14 41.1101 109.14 40.8801C109.14 40.6501 109.33 40.4601 109.56 40.4601V37.8701L110.13 37.3001H106.55C106.55 37.0001 106.79 36.7601 107.09 36.7601C107.16 36.7601 107.23 36.7801 107.3 36.8001C107.3 36.7801 107.29 36.7601 107.29 36.7301C107.29 36.5001 107.48 36.3101 107.71 36.3101C107.94 36.3101 108.13 36.5001 108.13 36.7301H109.55V35.1001L110.12 34.5302H106.96C106.96 34.2302 107.2 33.9901 107.5 33.9901C107.57 33.9901 107.64 34.0102 107.71 34.0302C107.71 34.0102 107.71 33.9901 107.71 33.9601C107.71 33.7301 107.9 33.5401 108.13 33.5401C108.36 33.5401 108.55 33.7301 108.55 33.9601H109.56V32.8301C109.33 32.8301 109.14 32.6401 109.14 32.4101C109.14 32.1801 109.33 31.9901 109.56 31.9901C109.58 31.9901 109.6 31.9901 109.63 32.0001C109.6 31.9401 109.59 31.8701 109.59 31.7901C109.59 31.4901 109.83 31.2501 110.13 31.2501V34.5401L110.7 33.9701H111.71C111.71 33.7401 111.9 33.5501 112.13 33.5501C112.36 33.5501 112.55 33.7401 112.55 33.9701C112.55 33.9901 112.55 34.0101 112.54 34.0401C112.6 34.0101 112.67 34.0001 112.75 34.0001C113.05 34.0001 113.29 34.2401 113.29 34.5401H110.13V37.3001L110.7 36.7301H112.12C112.12 36.5001 112.31 36.3101 112.54 36.3101C112.77 36.3101 112.96 36.5001 112.96 36.7301C112.96 36.7501 112.96 36.7701 112.95 36.8001C113.01 36.7701 113.08 36.7601 113.16 36.7601C113.46 36.7601 113.7 37.0001 113.7 37.3001H110.13ZM113.17 36.6701C113.13 36.6701 113.09 36.6701 113.05 36.6801C113.02 36.4201 112.81 36.2201 112.54 36.2201C112.29 36.2201 112.08 36.4001 112.04 36.6401H110.78V35.1901H111.62C111.66 35.4301 111.87 35.6101 112.12 35.6101C112.38 35.6101 112.6 35.4101 112.63 35.1501C112.67 35.1601 112.71 35.1601 112.75 35.1601C113.1 35.1601 113.38 34.8802 113.38 34.5302C113.38 34.1802 113.1 33.9001 112.75 33.9001C112.71 33.9001 112.67 33.9001 112.63 33.9101C112.6 33.6501 112.39 33.4501 112.12 33.4501C111.87 33.4501 111.66 33.6301 111.62 33.8701H110.78V32.9001C111.02 32.8601 111.2 32.6501 111.2 32.4001C111.2 32.1401 111 31.9201 110.74 31.8901C110.75 31.8501 110.75 31.8101 110.75 31.7701C110.75 31.4201 110.47 31.1401 110.12 31.1401C109.77 31.1401 109.49 31.4201 109.49 31.7701C109.49 31.8101 109.49 31.8501 109.5 31.8901C109.24 31.9201 109.04 32.1301 109.04 32.4001C109.04 32.6501 109.22 32.8601 109.46 32.9001V33.8701H108.61C108.57 33.6301 108.36 33.4501 108.11 33.4501C107.85 33.4501 107.63 33.6501 107.61 33.9101C107.57 33.9001 107.53 33.9001 107.49 33.9001C107.14 33.9001 106.86 34.1802 106.86 34.5302C106.86 34.8802 107.14 35.1601 107.49 35.1601C107.53 35.1601 107.57 35.1601 107.61 35.1501C107.64 35.4101 107.85 35.6101 108.12 35.6101C108.37 35.6101 108.58 35.4301 108.62 35.1901H109.46V36.6401H108.2C108.16 36.4001 107.95 36.2201 107.7 36.2201C107.44 36.2201 107.22 36.4201 107.19 36.6801C107.15 36.6701 107.11 36.6701 107.07 36.6701C106.72 36.6701 106.44 36.9501 106.44 37.3001C106.44 37.6501 106.72 37.9301 107.07 37.9301C107.11 37.9301 107.15 37.9301 107.19 37.9201C107.22 38.1801 107.43 38.3801 107.7 38.3801C107.95 38.3801 108.16 38.2001 108.2 37.9601H109.46V40.4001C109.22 40.4401 109.04 40.6501 109.04 40.9001C109.04 41.1601 109.24 41.3801 109.5 41.4101C109.49 41.4501 109.49 41.4902 109.49 41.5302C109.49 41.8802 109.77 42.1601 110.12 42.1601C110.47 42.1601 110.75 41.8802 110.75 41.5302C110.75 41.4902 110.75 41.4501 110.74 41.4101C111 41.3901 111.2 41.1701 111.2 40.9001C111.2 40.6501 111.02 40.4401 110.78 40.4001V37.9601H112.04C112.08 38.2001 112.29 38.3801 112.54 38.3801C112.8 38.3801 113.02 38.1801 113.05 37.9201C113.09 37.9301 113.13 37.9301 113.17 37.9301C113.52 37.9301 113.8 37.6501 113.8 37.3001C113.8 36.9501 113.51 36.6701 113.17 36.6701Z" fill="#D6BC78"/>
<path d="M15.66 54.3101C8.48997 54.3101 2.65997 60.1401 2.65997 67.3101C2.65997 74.3501 8.16998 80.0501 15.21 80.2901L35.94 80.3201L121.84 80.3101C121.86 80.3101 121.94 80.3101 121.96 80.3101C129.13 80.3101 134.96 74.4801 134.96 67.3101C134.96 60.1401 129.13 54.3101 121.96 54.3101C121.82 54.3101 106.35 54.3301 106.06 54.3301H33.04C32.73 54.3301 15.82 54.3101 15.66 54.3101ZM109.85 82.0101H35.94L15.18 81.9801C7.19996 81.7101 0.969971 75.2701 0.969971 67.3101C0.969971 59.2101 7.55997 52.6201 15.66 52.6201C15.83 52.6201 32.93 52.6301 33.06 52.6401H106.04C106.15 52.6301 121.8 52.6201 121.95 52.6201C130.05 52.6201 136.64 59.2101 136.64 67.3101C136.64 75.4101 130.05 82.0001 121.95 82.0001C121.93 82.0001 121.85 82.0001 121.83 81.9901L109.85 82.0101Z" fill="#D6BC78"/>
<path d="M24.2 101.97L20.6 93.0498H21.87L24.88 100.75L27.89 93.0498H29.16L25.57 101.97H24.2Z" fill="#D6BC78"/>
<path d="M32.98 94.5399H32.22L34.2 92.6099H35.24L32.98 94.5399ZM33.08 96.1799C31.7 96.1799 31.02 97.3399 30.97 98.3199H35.21C35.19 97.3699 34.55 96.1799 33.08 96.1799ZM29.91 98.7299C29.91 96.8599 31.25 95.3499 33.09 95.3499C35.04 95.3499 36.19 96.8699 36.19 98.8099V99.0599H30.98C31.06 100.28 31.9 101.29 33.29 101.29C34.04 101.29 34.77 101 35.3 100.46L35.78 101.12C35.13 101.76 34.26 102.12 33.21 102.12C31.29 102.13 29.91 100.75 29.91 98.7299Z" fill="#D6BC78"/>
<path d="M37.8101 101.97V95.5099H38.8101V96.5399C39.3301 95.8699 40.0801 95.3599 40.9601 95.3599V96.3899C40.8401 96.3799 40.7201 96.3599 40.5701 96.3599C39.9401 96.3599 39.1001 96.8699 38.8101 97.3899V101.96H37.8101V101.97Z" fill="#D6BC78"/>
<path d="M42.23 95.5098H43.23V101.97H42.23V95.5098ZM42.05 93.9197C42.05 93.5497 42.36 93.2397 42.73 93.2397C43.1 93.2397 43.4 93.5497 43.4 93.9197C43.4 94.2997 43.11 94.5898 42.73 94.5898C42.36 94.5898 42.05 94.2997 42.05 93.9197Z" fill="#D6BC78"/>
<path d="M49.0301 95.5097H50.0301V101.97H49.0301V95.5097ZM48.8601 93.9197C48.8601 93.5497 49.1701 93.2397 49.5401 93.2397C49.9101 93.2397 50.2101 93.5497 50.2101 93.9197C50.2101 94.2997 49.9201 94.5897 49.5401 94.5897C49.1701 94.5897 48.8601 94.2997 48.8601 93.9197ZM45.5201 101.97V96.3997H44.4501V95.5197H45.5201V95.0297C45.5201 93.6897 46.2801 92.9297 47.3901 92.9297C47.7801 92.9297 48.1101 92.9997 48.3801 93.1397L48.1301 93.8997C47.9701 93.8097 47.8001 93.7497 47.5601 93.7497C46.8901 93.7497 46.5301 94.1897 46.5301 95.0197V95.5097H47.8401V96.3897H46.5301V101.96H45.5201V101.97Z" fill="#D6BC78"/>
<path d="M51.67 98.7296C51.67 96.8196 52.97 95.3496 54.89 95.3496C56.07 95.3496 56.76 95.8296 57.26 96.4696L56.59 97.0696C56.16 96.4796 55.61 96.2396 54.94 96.2396C53.58 96.2396 52.7101 97.2996 52.7101 98.7296C52.7101 100.16 53.58 101.23 54.94 101.23C55.61 101.23 56.16 100.96 56.59 100.39L57.26 101C56.76 101.64 56.07 102.12 54.89 102.12C52.97 102.13 51.67 100.64 51.67 98.7296Z" fill="#D6BC78"/>
<path d="M62.7201 100.61V99.3801C62.3301 98.8601 61.6501 98.5901 60.9601 98.5901C60.0101 98.5901 59.3601 99.1801 59.3601 99.9901C59.3601 100.82 60.0201 101.41 60.9601 101.41C61.6501 101.41 62.3301 101.14 62.7201 100.61ZM62.7201 101.97V101.24C62.2001 101.83 61.4501 102.14 60.5801 102.14C59.5001 102.14 58.3401 101.4 58.3401 100C58.3401 98.5401 59.4901 97.8801 60.5801 97.8801C61.4601 97.8801 62.2001 98.1601 62.7201 98.7501V97.5901C62.7201 96.7301 62.0201 96.2401 61.0901 96.2401C60.3101 96.2401 59.6901 96.5101 59.1101 97.1401L58.6401 96.4401C59.3401 95.7201 60.1601 95.3701 61.2201 95.3701C62.6001 95.3701 63.7201 95.9801 63.7201 97.5501V101.99H62.7201V101.97Z" fill="#D6BC78"/>
<path d="M65.94 100.62V96.3998H64.87V95.5198H65.94V93.7598H66.96V95.5198H68.27V96.3998H66.96V100.41C66.96 100.89 67.17 101.24 67.6 101.24C67.89 101.24 68.15 101.11 68.28 100.96L68.57 101.72C68.32 101.96 67.96 102.13 67.38 102.13C66.42 102.13 65.94 101.58 65.94 100.62Z" fill="#D6BC78"/>
<path d="M69.67 95.5098H70.67V101.97H69.67V95.5098ZM69.5 93.9197C69.5 93.5497 69.81 93.2397 70.18 93.2397C70.56 93.2397 70.85 93.5497 70.85 93.9197C70.85 94.2997 70.56 94.5898 70.18 94.5898C69.81 94.5898 69.5 94.2997 69.5 93.9197Z" fill="#D6BC78"/>
<path d="M77.6401 98.7296C77.6401 97.4196 76.8801 96.2396 75.5001 96.2396C74.1201 96.2396 73.3601 97.4196 73.3601 98.7296C73.3601 100.05 74.1201 101.23 75.5001 101.23C76.8801 101.23 77.6401 100.06 77.6401 98.7296ZM72.3101 98.7296C72.3101 96.8596 73.5401 95.3496 75.5001 95.3496C77.4601 95.3496 78.7001 96.8596 78.7001 98.7296C78.7001 100.6 77.4701 102.13 75.5001 102.13C73.5301 102.13 72.3101 100.61 72.3101 98.7296Z" fill="#D6BC78"/>
<path d="M84.7001 101.97V97.7496C84.7001 96.5996 84.1101 96.2496 83.2401 96.2496C82.4501 96.2496 81.7201 96.7296 81.3301 97.2496V101.97H80.3301V95.5096H81.3301V96.4496C81.7901 95.8996 82.6701 95.3496 83.6401 95.3496C84.9801 95.3496 85.6901 96.0296 85.6901 97.4396V101.97H84.7001Z" fill="#D6BC78"/>
<path d="M93.97 96.1796C92.59 96.1796 91.91 97.3396 91.86 98.3196H96.1001C96.0801 97.3696 95.44 96.1796 93.97 96.1796ZM90.8 98.7296C90.8 96.8596 92.14 95.3496 93.98 95.3496C95.93 95.3496 97.08 96.8696 97.08 98.8096V99.0596H91.87C91.95 100.28 92.79 101.29 94.18 101.29C94.93 101.29 95.66 101 96.19 100.46L96.67 101.12C96.02 101.76 95.1501 102.12 94.1001 102.12C92.1801 102.13 90.8 100.75 90.8 98.7296Z" fill="#D6BC78"/>
<path d="M98.9101 100.62V96.3998H97.8401V95.5198H98.9101V93.7598H99.9301V95.5198H101.24V96.3998H99.9301V100.41C99.9301 100.89 100.14 101.24 100.57 101.24C100.86 101.24 101.12 101.11 101.25 100.96L101.54 101.72C101.29 101.96 100.93 102.13 100.35 102.13C99.3901 102.13 98.9101 101.58 98.9101 100.62Z" fill="#D6BC78"/>
<path d="M106.3 100.62V96.3998H105.23V95.5198H106.3V93.7598H107.32V95.5198H108.63V96.3998H107.32V100.41C107.32 100.89 107.53 101.24 107.96 101.24C108.25 101.24 108.51 101.11 108.64 100.96L108.93 101.72C108.68 101.96 108.32 102.13 107.74 102.13C106.79 102.13 106.3 101.58 106.3 100.62Z" fill="#D6BC78"/>
<path d="M110.04 101.97V95.5099H111.04V96.5399C111.56 95.8699 112.31 95.3599 113.19 95.3599V96.3899C113.07 96.3799 112.95 96.3599 112.8 96.3599C112.17 96.3599 111.33 96.8699 111.04 97.3899V101.96H110.04V101.97Z" fill="#D6BC78"/>
<path d="M114.45 95.5098H115.45V101.97H114.45V95.5098ZM114.28 93.9197C114.28 93.5497 114.59 93.2397 114.96 93.2397C115.34 93.2397 115.63 93.5497 115.63 93.9197C115.63 94.2997 115.34 94.5898 114.96 94.5898C114.58 94.5898 114.28 94.2997 114.28 93.9197Z" fill="#D6BC78"/>
</svg>
